<svg width="542" height="591" viewBox="0 0 542 591" fill="none" xmlns="http://www.w3.org/2000/svg">
<g opacity="0.699997">
<g opacity="0.699997">
<path opacity="0.699997" d="M14.0398 183.961C14.0398 183.961 -23.1295 279.944 29.1025 376.632C81.3331 473.321 188.941 524.368 275.061 568.03C361.181 611.692 450.609 590.429 493.106 518.913C535.602 447.397 477.313 396.341 477.244 294.354C477.176 192.368 492.506 165.366 437.293 79.2025C382.08 -6.9602 246.548 -26.0309 144.094 37.8745C41.6385 101.78 14.0398 183.961 14.0398 183.961Z" fill="#E0E0E0"/>
</g>
</g>
<path d="M22.0586 212.729C69.2812 165.524 109.267 205.128 126.115 141.74C164.172 -1.43994 321.999 -0.0452648 342.753 101.804C380.149 285.331 543.005 168.78 541.795 300.227C540.503 440.567 437.3 549.869 252.204 560.793C86.2666 570.587 -56.1828 290.943 22.0586 212.729Z" fill="#0A263E"/>
<path d="M193.84 212.589C188.77 208.06 183.518 210.047 180.829 211.637C180.288 208.56 178.37 203.273 171.634 202.367C164.32 201.393 158.337 208.531 160.296 218.464C161.714 225.611 166.278 232.155 168.728 235.253C169.018 235.625 169.292 235.949 169.516 236.211C169.86 236.211 170.284 236.208 170.757 236.187C174.702 236.033 182.642 235.245 188.982 231.671C197.814 226.704 199.336 217.513 193.84 212.589Z" stroke="#0197F6" stroke-width="1.33333" stroke-miterlimit="10" stroke-linecap="round" stroke-linejoin="round"/>
<path d="M165.368 240.854C165.368 240.854 165.012 241.518 164.53 242.663" stroke="#0197F6" stroke-width="1.33333" stroke-linecap="round" stroke-linejoin="round"/>
<path d="M163.208 246.36C161.259 252.929 160.099 263.861 170.566 270.533C196.858 287.297 205.706 247.753 185.572 251.308C171.774 253.744 186.278 290.152 207.864 283.09" stroke="#0197F6" stroke-width="1.33333" stroke-linecap="round" stroke-linejoin="round" stroke-dasharray="3.93 3.93"/>
<path d="M209.712 282.386C210.306 282.126 210.906 281.834 211.509 281.506" stroke="#0197F6" stroke-width="1.33333" stroke-linecap="round" stroke-linejoin="round"/>
<path d="M177.404 523.973C177.404 523.973 162.564 534.072 156.585 533.398C155.842 533.325 155.26 533.09 154.826 532.654C150.926 528.63 147.794 521.568 147.794 521.568C147.794 521.568 149.649 518.99 155.381 525.824L159.024 522.481L151.505 514.926C151.505 514.926 155.737 511.564 162.921 515.84C162.682 515.326 158.044 505.237 161.541 491.501L144.024 474.628L159.529 461.118L160.724 460.08C160.724 460.08 161.702 461.042 163.28 462.534C164.808 463.984 166.91 465.92 169.196 467.925C174.665 472.729 181.278 477.937 184.145 477.889C189.45 477.784 177.404 523.973 177.404 523.973Z" fill="white"/>
<g opacity="0.399994">
<g opacity="0.399994">
<path opacity="0.399994" d="M165.928 517.356C165.928 517.356 157.475 526.073 156.586 533.398C155.842 533.325 155.259 533.09 154.826 532.654C150.926 528.63 147.794 521.568 147.794 521.568C147.794 521.568 149.65 518.99 155.382 525.824L159.024 522.481L151.504 514.926C151.504 514.926 155.736 511.564 162.922 515.84C162.682 515.326 158.043 505.237 161.54 491.501L144.023 474.628L159.528 461.118L163.28 462.534C164.807 463.984 166.911 465.92 169.196 467.925C165.915 472.741 158.887 482.685 158.887 482.685L164.959 490.924C164.959 490.924 161.278 511.694 165.928 517.356Z" fill="#0A263E"/>
</g>
</g>
<path d="M177.404 523.973C177.404 523.973 162.564 534.072 156.585 533.398C155.842 533.325 155.26 533.09 154.826 532.654C150.926 528.63 147.794 521.568 147.794 521.568C147.794 521.568 149.649 518.99 155.381 525.824L159.024 522.481L151.505 514.926C151.505 514.926 155.737 511.564 162.921 515.84C162.682 515.326 158.044 505.237 161.541 491.501L144.024 474.628L159.529 461.118L160.724 460.08C160.724 460.08 161.702 461.042 163.28 462.534C164.808 463.984 166.91 465.92 169.196 467.925C174.665 472.729 181.278 477.937 184.145 477.889C189.45 477.784 177.404 523.973 177.404 523.973Z" stroke="#1A2E35" stroke-width="1.33333" stroke-miterlimit="10" stroke-linecap="round" stroke-linejoin="round"/>
<path d="M159.025 522.485C159.025 522.485 160.316 518.433 162.937 515.851" stroke="#1A2E35" stroke-width="1.33333" stroke-miterlimit="10" stroke-linecap="round" stroke-linejoin="round"/>
<path d="M435.962 406.395C433.857 409.593 430.99 412.612 427.561 415.451C427.561 415.451 427.547 415.449 427.546 415.463C400.254 438.06 337.329 449.227 337.329 449.227C337.329 449.227 335.226 452.387 331.985 456.885C326.165 464.961 316.635 477.364 308.867 483.581H308.853C305.575 486.216 302.602 487.741 300.362 487.331L312.162 530.937L317.446 549.867C317.446 549.867 263.191 573.537 170.385 546.465C170.385 546.465 169.335 534.355 170.121 531.769C170.157 531.651 170.195 531.521 170.246 531.391C171.11 529.308 173.881 526.817 173.881 526.817C173.881 526.817 173.363 519.031 173.098 511.103C172.889 504.945 172.834 498.707 173.287 495.935C173.946 491.935 176.873 482.273 178.342 477.524C178.866 475.84 179.207 474.771 179.207 474.771L174.589 431.523L173.259 419.067C173.259 419.067 173.238 418.837 173.191 418.42C173.186 418.324 173.181 418.231 173.163 418.109L172.435 411.428L148.566 418.719C148.566 418.719 149.838 421.511 151.539 425.435C154.675 432.605 159.285 443.535 160.311 447.86C160.39 448.213 160.495 448.556 160.615 448.9C162.831 455.207 171.235 460.933 171.235 460.933L148.634 487.351L141.95 482.687C141.95 482.687 140.979 483.451 139.258 484.38C134.863 486.765 125.643 490.271 115.577 484.919C111.897 482.96 108.11 479.829 104.407 475.033C86.5902 451.969 78.9395 433.181 81.4448 411.071C83.9528 388.948 183.239 320.939 202.941 321.644L232.246 328.119C232.877 327.593 234.593 326.236 235.911 326.303C241.239 326.576 241.379 332.767 241.379 332.767L307.051 343.427C307.051 343.427 313.857 340.021 315.043 340.077C317.947 340.219 319.189 342.715 319.189 342.715C319.189 342.715 336.203 332.527 341.683 334.897C359.673 342.66 449.255 386.192 435.962 406.395Z" fill="#0197F6"/>
<g opacity="0.199997">
<g opacity="0.199997">
<path opacity="0.199997" d="M207.818 514.326C207.818 514.326 197.624 526.848 179.397 529.74C175.941 530.29 172.9 530.844 170.246 531.391C171.11 529.307 173.881 526.818 173.881 526.818C173.881 526.818 173.364 519.03 173.098 511.103C180.809 516.143 194.232 522.01 207.818 514.326Z" fill="black"/>
</g>
</g>
<g opacity="0.199997">
<g opacity="0.199997">
<path opacity="0.199997" d="M178.342 477.524C178.867 475.84 179.207 474.772 179.207 474.772L174.589 431.522C181.49 441.42 206.106 475.152 223.079 478.79C240.816 482.586 193.384 489.301 178.342 477.524Z" fill="black"/>
</g>
</g>
<g opacity="0.199997">
<g opacity="0.199997">
<path opacity="0.199997" d="M312.163 530.938C293.632 528.83 267.417 524.158 264.795 514.46C260.715 499.306 280.583 490.219 308.853 483.58C305.576 486.216 302.603 487.742 300.361 487.331L312.163 530.938Z" fill="black"/>
</g>
</g>
<g opacity="0.199997">
<g opacity="0.199997">
<path opacity="0.199997" d="M427.547 415.462C400.253 438.06 337.329 449.226 337.329 449.226C337.329 449.226 335.227 452.386 331.984 456.885C326.668 444.454 319.004 418.749 327.964 387.157C327.964 387.157 332.815 413.41 352.936 419.648C352.936 419.648 337.535 408.176 342.908 380.56C342.908 380.56 348.16 413.065 382.359 422.038C398.993 426.4 415.239 421.566 427.547 415.462Z" fill="black"/>
</g>
</g>
<g opacity="0.199997">
<g opacity="0.199997">
<path opacity="0.199997" d="M173.192 418.42L172.436 411.429L148.567 418.72C148.567 418.72 149.837 421.51 151.539 425.436C142.412 424.493 125.095 432.972 122.073 423.736C118.431 412.592 140.847 416.433 140.847 416.433L161.992 404.132C157.991 387.032 168.172 374.173 168.172 374.173L170.105 386.104C171.033 363.421 179.904 351.016 179.904 351.016C172.524 368.952 172.728 413.097 173.192 418.42Z" fill="black"/>
</g>
</g>
<g opacity="0.199997">
<g opacity="0.199997">
<path opacity="0.199997" d="M171.236 460.934L148.634 487.35L141.95 482.686C141.95 482.686 140.98 483.451 139.258 484.38C134.864 486.766 125.644 490.271 115.577 484.918C122.902 474.784 138.026 459.867 156.032 454.107C156.032 454.107 148.624 464.942 144.024 474.628L148.668 479.206C148.668 479.206 160.256 465.994 171.236 460.934" fill="black"/>
</g>
</g>
<g opacity="0.199997">
<g opacity="0.199997">
<path opacity="0.199997" d="M226.136 344.585C226.129 346.91 224.664 373.342 243.889 380.326C263.115 387.309 280.212 375.465 280.212 375.465C280.212 375.465 250.723 403.901 232.783 388.705C214.844 373.508 226.136 344.585 226.136 344.585Z" fill="black"/>
</g>
</g>
<path d="M170.385 546.46C170.385 546.46 169.342 534.349 170.115 531.769C170.763 529.608 173.877 526.82 173.877 526.82C173.877 526.82 172.245 502.268 173.289 495.94C174.185 490.517 179.211 474.765 179.211 474.765L172.439 411.428L148.569 418.723C148.569 418.723 158.731 441.173 160.305 447.864C161.878 454.553 171.238 460.937 171.238 460.937L148.63 487.347L141.951 482.692C141.951 482.692 122.226 498.113 104.407 475.04C86.5874 451.964 78.9407 433.183 81.4434 411.065C83.9461 388.949 183.246 320.937 202.946 321.639L232.247 328.116C232.882 327.595 234.594 326.236 235.913 326.304C241.242 326.576 241.381 332.768 241.381 332.768L307.047 343.429C307.047 343.429 313.862 340.021 315.046 340.081C317.95 340.225 319.194 342.711 319.194 342.711C319.194 342.711 336.201 332.528 341.689 334.895C359.67 342.655 449.251 386.192 435.961 406.393C417.094 435.072 337.333 449.223 337.333 449.223C337.333 449.223 310.803 489.229 300.357 487.324L317.443 549.871" stroke="#1A2E35" stroke-width="1.33333" stroke-miterlimit="10" stroke-linecap="round" stroke-linejoin="round"/>
<path d="M366.565 410.772C396.701 430.682 420.99 426.994 440.006 401.38C440.006 401.38 455.836 380.976 454.714 358.958C453.593 336.939 448.334 265.136 379.73 283.496C368.44 286.518 342.085 321.811 339.865 331.51C338.849 335.943 328.269 358.507 318.001 381.86" fill="#0197F6"/>
<path d="M366.565 410.772C396.701 430.682 420.99 426.994 440.006 401.38C440.006 401.38 455.836 380.976 454.714 358.958C453.593 336.939 448.334 265.136 379.73 283.496C368.44 286.518 342.085 321.811 339.865 331.51C338.849 335.943 328.269 358.507 318.001 381.86" stroke="#1A2E35" stroke-width="1.33333" stroke-miterlimit="10" stroke-linecap="round" stroke-linejoin="round"/>
<path d="M285.03 199.874C285.03 199.874 304.223 196.961 317.565 208.903C334.431 223.999 353.362 264.691 326.393 332.134C326.393 332.134 286.559 305.686 218.574 323.374C218.574 323.374 224.427 307.551 214.151 257.755C209.505 235.239 221.187 183.327 285.03 199.874Z" fill="#1A2E35"/>
<path d="M255.922 369.111C284.335 373.718 314.53 342.264 314.53 342.264C314.53 342.264 299.081 340.36 297.697 333.107C293.265 310.226 311.091 281.963 311.091 281.963C311.091 281.963 242.099 283.872 254.165 299.483C256.694 302.759 258.437 305.898 259.621 308.84C263.803 319.118 260.902 326.871 258.675 328.762C258.515 328.899 258.331 329.01 258.174 329.096C253.999 331.004 236.853 328.163 236.853 328.163C236.853 328.163 229.998 364.908 255.922 369.111Z" fill="white"/>
<path d="M255.922 369.111C284.335 373.718 314.53 342.264 314.53 342.264C314.53 342.264 299.081 340.36 297.697 333.107C293.265 310.226 311.091 281.963 311.091 281.963C311.091 281.963 242.099 283.872 254.165 299.483C256.694 302.759 258.437 305.898 259.621 308.84C263.803 319.118 260.902 326.871 258.675 328.762C258.515 328.899 258.331 329.01 258.174 329.096C253.999 331.004 236.853 328.163 236.853 328.163C236.853 328.163 229.998 364.908 255.922 369.111Z" stroke="#1A2E35" stroke-width="1.33333" stroke-miterlimit="10" stroke-linecap="round" stroke-linejoin="round"/>
<path d="M304.747 350.973C304.747 350.973 291.647 356.214 272.453 354.655L263.807 358.89" stroke="#1A2E35" stroke-width="1.33333" stroke-miterlimit="10" stroke-linecap="round" stroke-linejoin="round"/>
<path d="M255.203 358.192L254.569 352.517C254.569 352.517 240.419 348.086 236.038 339.67" stroke="#1A2E35" stroke-width="1.33333" stroke-miterlimit="10" stroke-linecap="round" stroke-linejoin="round"/>
<path d="M258.676 328.762C279.805 334.286 289.726 307.187 289.726 307.187C289.726 307.187 272.822 302.147 259.621 308.841C263.804 319.118 260.902 326.871 258.676 328.762Z" fill="#1A2E35"/>
<path d="M312.311 267.707C317.45 238.855 311.737 204.231 267.825 207.098C236.451 209.149 236.709 243.547 238.786 253.814C242.279 271.082 237.273 277.882 242.653 292.387C246.519 302.811 255.503 314.469 266.075 318.837C272.579 321.523 298.911 303.046 300.858 294.597" fill="white"/>
<path d="M312.311 267.707C317.45 238.855 311.737 204.231 267.825 207.098C236.451 209.149 236.709 243.547 238.786 253.814C242.279 271.082 237.273 277.882 242.653 292.387C246.519 302.811 255.503 314.469 266.075 318.837C272.579 321.523 298.911 303.046 300.858 294.597" stroke="#1A2E35" stroke-width="1.33333" stroke-miterlimit="10" stroke-linecap="round" stroke-linejoin="round"/>
<path d="M257.131 259.201C256.867 262.44 256.487 270.464 249.627 276.383C245.19 280.212 255.376 284.129 255.376 284.129" stroke="#1A2E35" stroke-width="1.33333" stroke-miterlimit="10" stroke-linecap="round" stroke-linejoin="round"/>
<path d="M249.841 247.754C249.841 247.754 240.15 243.033 233.602 250.823" stroke="#1A2E35" stroke-width="1.33333" stroke-miterlimit="10" stroke-linecap="round" stroke-linejoin="round"/>
<path d="M266.096 247.142C266.096 247.142 275.46 243.783 286.812 247.957" stroke="#1A2E35" stroke-width="1.33333" stroke-miterlimit="10" stroke-linecap="round" stroke-linejoin="round"/>
<path d="M276.162 260.763C276.463 263.545 278.336 265.627 280.347 265.409C282.356 265.192 283.743 262.759 283.442 259.975C283.14 257.192 281.267 255.111 279.256 255.328C277.246 255.545 275.86 257.979 276.162 260.763Z" fill="#1A2E35"/>
<path d="M255.855 293.246C268.042 291.768 277.527 285.33 277.527 285.33C277.527 285.33 278.431 297.436 268.294 299.952C260.519 301.884 257.507 293.009 257.507 293.009" stroke="#1A2E35" stroke-width="1.33333" stroke-miterlimit="10" stroke-linecap="round" stroke-linejoin="round"/>
<path d="M284.354 218.092C284.354 218.092 281.576 252.281 311.758 264.703L325.896 231.84L304.506 208.148L272.276 198.837C224.128 201.84 203.397 231.763 230.132 311.472C230.132 311.472 222.656 216.536 284.354 218.092Z" fill="#1A2E35"/>
<path d="M305.159 266.154C304.743 262.311 314.461 252.523 317.751 258.805C323.357 269.509 319.273 278.842 313.475 282.498C310.877 284.135 307.588 287.202 305.275 284.309" fill="white"/>
<path d="M305.159 266.154C304.743 262.311 314.461 252.523 317.751 258.805C323.357 269.509 319.273 278.842 313.475 282.498C310.877 284.135 307.588 287.202 305.275 284.309" stroke="#1A2E35" stroke-width="1.33333" stroke-miterlimit="10" stroke-linecap="round" stroke-linejoin="round"/>
<path d="M246.777 262.035C247.079 264.819 248.952 266.899 250.963 266.681C252.972 266.464 254.359 264.031 254.057 261.248C253.756 258.464 251.883 256.384 249.872 256.601C247.861 256.819 246.476 259.252 246.777 262.035Z" fill="#1A2E35"/>
<g opacity="0.199997">
<g opacity="0.199997">
<path opacity="0.199997" d="M225.862 256.422C225.501 258.742 225.254 261.081 225.111 263.425" stroke="white" stroke-width="1.33333" stroke-miterlimit="10" stroke-linecap="round" stroke-linejoin="round"/>
</g>
<g opacity="0.199997">
<path opacity="0.199997" d="M279.353 211.872C254.961 211.228 232.294 226.776 226.898 251.189" stroke="white" stroke-width="1.33333" stroke-miterlimit="10" stroke-linecap="round" stroke-linejoin="round"/>
</g>
<g opacity="0.199997">
<path opacity="0.199997" d="M274.997 204.903C274.997 204.903 239.824 196.629 226.635 219.961" stroke="white" stroke-width="1.33333" stroke-miterlimit="10" stroke-linecap="round" stroke-linejoin="round"/>
</g>
<g opacity="0.199997">
<path opacity="0.199997" d="M303.534 245.549C305.686 248.538 308.184 251.302 311.116 253.544" stroke="white" stroke-width="1.33333" stroke-miterlimit="10" stroke-linecap="round" stroke-linejoin="round"/>
</g>
<g opacity="0.199997">
<path opacity="0.199997" d="M289.583 209.46C291.469 220.454 295.089 231.619 300.742 241.25" stroke="white" stroke-width="1.33333" stroke-miterlimit="10" stroke-linecap="round" stroke-linejoin="round"/>
</g>
<g opacity="0.199997">
<path opacity="0.199997" d="M324.927 315.274C324.302 318.075 323.568 320.852 322.735 323.598" stroke="white" stroke-width="1.33333" stroke-miterlimit="10" stroke-linecap="round" stroke-linejoin="round"/>
</g>
<g opacity="0.199997">
<path opacity="0.199997" d="M322.893 268.793C328.6 281.462 328.208 297.225 325.865 310.559" stroke="white" stroke-width="1.33333" stroke-miterlimit="10" stroke-linecap="round" stroke-linejoin="round"/>
</g>
<g opacity="0.199997">
<path opacity="0.199997" d="M318.703 290.856C318.703 290.856 320.451 304.994 308.787 316.925" stroke="white" stroke-width="1.33333" stroke-miterlimit="10" stroke-linecap="round" stroke-linejoin="round"/>
</g>
<g opacity="0.199997">
<path opacity="0.199997" d="M302.484 213.54C308.47 221.633 312.911 230.309 319.847 237.7C327.151 245.48 334.454 254.396 335.824 265.357" stroke="white" stroke-width="1.33333" stroke-miterlimit="10" stroke-linecap="round" stroke-linejoin="round"/>
</g>
<g opacity="0.199997">
<path opacity="0.199997" d="M294.053 205.128C295.771 206.242 297.331 207.586 298.747 209.064" stroke="white" stroke-width="1.33333" stroke-miterlimit="10" stroke-linecap="round" stroke-linejoin="round"/>
</g>
</g>
<path d="M414.387 392.87C413.692 393.027 412.987 393.143 412.269 393.246C393.389 395.939 372.213 380.293 365.073 361.493C359.429 346.654 364.369 329.811 367.055 322.606C367.908 320.346 368.524 319.033 368.524 319.033C379.904 302.767 446.105 334.579 446.873 352.114C447.644 369.633 433.781 388.626 414.387 392.87Z" fill="#1A2E35"/>
<path d="M414.387 392.87C413.692 393.027 412.987 393.143 412.269 393.246C393.389 395.939 372.213 380.293 365.073 361.493C359.429 346.654 364.369 329.811 367.055 322.606C367.908 320.346 368.524 319.033 368.524 319.033C379.904 302.767 446.105 334.579 446.873 352.114C447.644 369.633 433.781 388.626 414.387 392.87Z" stroke="#1A2E35" stroke-width="1.33333" stroke-miterlimit="10" stroke-linecap="round" stroke-linejoin="round"/>
<path d="M435.096 354.487C435.096 354.487 431.335 382.342 412.27 393.246C393.39 395.939 372.214 380.293 365.072 361.493C359.43 346.654 364.37 329.811 367.055 322.606C367.056 322.591 367.068 322.593 367.068 322.593C389.374 309.865 435.096 354.487 435.096 354.487Z" fill="white"/>
<g opacity="0.399994">
<g opacity="0.399994">
<path opacity="0.399994" d="M435.096 354.487C435.096 354.487 431.335 382.342 412.27 393.246C393.39 395.939 372.214 380.293 365.072 361.493C359.43 346.654 364.37 329.811 367.055 322.606C367.056 322.591 367.068 322.593 367.068 322.593C389.374 309.865 435.096 354.487 435.096 354.487Z" fill="#0A263E"/>
</g>
</g>
<path d="M435.096 354.487C435.096 354.487 431.335 382.342 412.27 393.246C393.39 395.939 372.214 380.293 365.072 361.493C359.43 346.654 364.37 329.811 367.055 322.606C367.056 322.591 367.068 322.593 367.068 322.593C389.374 309.865 435.096 354.487 435.096 354.487Z" stroke="#1A2E35" stroke-width="1.33333" stroke-miterlimit="10" stroke-linecap="round" stroke-linejoin="round"/>
<path d="M357.04 369.156C357.04 369.156 378.535 400.01 403.634 402.578C428.735 405.147 444.788 384.004 445.831 368.059" stroke="#1A2E35" stroke-width="1.33333" stroke-miterlimit="10" stroke-linecap="round" stroke-linejoin="round"/>
<path d="M344.948 229.889C346.84 224.6 360.399 226.375 364.697 242.863C368.993 259.352 385.959 299.403 385.959 299.403C385.959 299.403 453.331 200.26 465.417 196.439C477.503 192.617 472.713 209.796 456.579 233.635C456.579 233.635 471.692 230.972 475.659 233.645C479.627 236.319 477.696 252.324 479.809 257.936C483.351 267.341 475.477 269.328 475.477 269.328C475.477 269.328 481.673 269.273 486.001 273.328C490.328 277.384 488.157 294.153 489.393 298.895C490.629 303.637 482.368 307.647 482.368 307.647C482.368 307.647 502.235 318.481 497.749 321.193C490.187 325.763 485.869 321.081 485.869 321.081C485.869 321.081 455.353 359.417 432.335 367.948C409.316 376.479 364.5 342.557 359.684 324.079C354.867 305.599 360.616 306.739 356.963 275.989C353.309 245.24 344.948 229.889 344.948 229.889Z" fill="white"/>
<path d="M344.948 229.889C346.84 224.6 360.399 226.375 364.697 242.863C368.993 259.352 385.959 299.403 385.959 299.403C385.959 299.403 453.331 200.26 465.417 196.439C477.503 192.617 472.713 209.796 456.579 233.635C456.579 233.635 471.692 230.972 475.659 233.645C479.627 236.319 477.696 252.324 479.809 257.936C483.351 267.341 475.477 269.328 475.477 269.328C475.477 269.328 481.673 269.273 486.001 273.328C490.328 277.384 488.157 294.153 489.393 298.895C490.629 303.637 482.368 307.647 482.368 307.647C482.368 307.647 502.235 318.481 497.749 321.193C490.187 325.763 485.869 321.081 485.869 321.081C485.869 321.081 455.353 359.417 432.335 367.948C409.316 376.479 364.5 342.557 359.684 324.079C354.867 305.599 360.616 306.739 356.963 275.989C353.309 245.24 344.948 229.889 344.948 229.889Z" stroke="#1A2E35" stroke-width="1.33333" stroke-miterlimit="10" stroke-linecap="round" stroke-linejoin="round"/>
<path d="M443.236 169.005L354.477 192.137C351.324 192.959 349.434 196.181 350.257 199.333L392.208 360.305C393.03 363.457 396.252 365.347 399.405 364.525L488.164 341.392C491.317 340.571 493.206 337.349 492.384 334.197L450.43 173.225C449.609 170.073 446.388 168.184 443.236 169.005Z" fill="white"/>
<path d="M443.236 169.005L354.477 192.137C351.324 192.959 349.434 196.181 350.257 199.333L392.208 360.305C393.03 363.457 396.252 365.347 399.405 364.525L488.164 341.392C491.317 340.571 493.206 337.349 492.384 334.197L450.43 173.225C449.609 170.073 446.388 168.184 443.236 169.005Z" stroke="#1A2E35" stroke-width="1.33333" stroke-miterlimit="10" stroke-linecap="round" stroke-linejoin="round"/>
<path d="M447.759 174.848L489.368 334.504C489.854 336.371 488.735 338.276 486.87 338.763L399.248 361.597C397.383 362.085 395.476 360.967 394.991 359.1L353.38 199.445C352.895 197.579 354.012 195.672 355.879 195.185L373.867 190.497C375.051 190.189 376.302 190.649 377.006 191.652L378.304 193.505C379.007 194.507 380.258 194.967 381.442 194.657L420.93 184.367C422.115 184.057 422.982 183.045 423.106 181.828L423.336 179.576C423.459 178.359 424.327 177.347 425.511 177.039L443.5 172.349C445.366 171.864 447.272 172.983 447.759 174.848Z" fill="#0A263E"/>
<path d="M392.384 187.47C392.586 188.242 392.123 189.03 391.352 189.231C390.579 189.432 389.791 188.97 389.59 188.198C389.388 187.426 389.851 186.636 390.623 186.436C391.395 186.235 392.184 186.698 392.384 187.47Z" fill="#0A263E"/>
<path d="M410.667 182.705C410.793 183.189 410.503 183.683 410.019 183.81C409.535 183.935 409.04 183.646 408.915 183.162C408.788 182.677 409.079 182.183 409.561 182.057C410.045 181.93 410.54 182.221 410.667 182.705Z" fill="#0A263E"/>
<path d="M410.667 182.705C410.793 183.189 410.503 183.683 410.019 183.81C409.535 183.935 409.04 183.646 408.915 183.162C408.788 182.677 409.079 182.183 409.561 182.057C410.045 181.93 410.54 182.221 410.667 182.705Z" stroke="#1A2E35" stroke-width="1.33333" stroke-miterlimit="10" stroke-linecap="round" stroke-linejoin="round"/>
<path d="M405.902 184.474L395.256 187.249C395.029 187.307 394.798 187.171 394.738 186.946L394.696 186.778C394.636 186.551 394.772 186.319 394.998 186.259L405.646 183.485C405.873 183.426 406.102 183.562 406.162 183.789L406.206 183.957C406.265 184.183 406.129 184.415 405.902 184.474Z" fill="#0A263E"/>
<path d="M405.902 184.474L395.256 187.249C395.029 187.307 394.798 187.171 394.738 186.946L394.696 186.778C394.636 186.551 394.772 186.319 394.998 186.259L405.646 183.485C405.873 183.426 406.102 183.562 406.162 183.789L406.206 183.957C406.265 184.183 406.129 184.415 405.902 184.474Z" stroke="#1A2E35" stroke-width="1.33333" stroke-miterlimit="10" stroke-linecap="round" stroke-linejoin="round"/>
<path d="M392.384 187.47C392.586 188.242 392.123 189.03 391.352 189.231C390.579 189.432 389.791 188.97 389.59 188.198C389.388 187.426 389.851 186.636 390.623 186.436C391.395 186.235 392.184 186.698 392.384 187.47Z" stroke="#1A2E35" stroke-width="1.33333" stroke-miterlimit="10" stroke-linecap="round" stroke-linejoin="round"/>
<path d="M337.333 449.223C337.333 449.223 322.177 413.954 329.909 371.186" stroke="#1A2E35" stroke-width="1.33333" stroke-miterlimit="10" stroke-linecap="round" stroke-linejoin="round"/>
<path d="M300.357 487.324C300.357 487.324 269.719 496.691 266.611 503.742C263.503 510.794 280.353 504.859 280.353 504.859" stroke="#1A2E35" stroke-width="1.33333" stroke-miterlimit="10" stroke-linecap="round" stroke-linejoin="round"/>
<path d="M319.194 342.71C319.194 342.71 290.979 370.669 272.105 378.131" stroke="#1A2E35" stroke-width="1.33333" stroke-miterlimit="10" stroke-linecap="round" stroke-linejoin="round"/>
<path d="M226.747 335.198C226.747 335.198 221.608 372.948 240.793 380.074" stroke="#1A2E35" stroke-width="1.33333" stroke-miterlimit="10" stroke-linecap="round" stroke-linejoin="round"/>
<path d="M172.439 411.427C172.439 411.427 172.283 361.933 182.115 346.63" stroke="#1A2E35" stroke-width="1.33333" stroke-miterlimit="10" stroke-linecap="round" stroke-linejoin="round"/>
<path d="M168.775 361.003C168.775 361.003 166.009 391.738 172.208 401.767" stroke="#1A2E35" stroke-width="1.33333" stroke-miterlimit="10" stroke-linecap="round" stroke-linejoin="round"/>
<path d="M148.569 418.723C148.569 418.723 127.11 411.332 122.661 420.496C118.213 429.66 135.458 421.536 135.458 421.536" stroke="#1A2E35" stroke-width="1.33333" stroke-miterlimit="10" stroke-linecap="round" stroke-linejoin="round"/>
<path d="M161.475 450.817C161.475 450.817 140.402 462.687 139.321 469.479" stroke="#1A2E35" stroke-width="1.33333" stroke-miterlimit="10" stroke-linecap="round" stroke-linejoin="round"/>
<path d="M195.897 417.981C195.897 417.981 236.23 478.942 258.496 473.342" stroke="#1A2E35" stroke-width="1.33333" stroke-miterlimit="10" stroke-linecap="round" stroke-linejoin="round"/>
<path d="M223.457 503.482C223.457 503.482 191.829 526.667 187.225 524.706" stroke="#1A2E35" stroke-width="1.33333" stroke-miterlimit="10" stroke-linecap="round" stroke-linejoin="round"/>
<g opacity="0.199997">
<g opacity="0.199997">
<path opacity="0.199997" d="M444.98 404.559C447.116 402.807 448.52 401.65 448.979 401.286C448.504 401.702 447.122 402.9 444.98 404.559Z" fill="black"/>
</g>
</g>
</svg>
