<svg width="80" height="80" viewBox="0 0 80 80" fill="none" xmlns="http://www.w3.org/2000/svg">
<circle cx="40" cy="40" r="40" fill="#FF7A00"/>
<path d="M64.3594 54.1562H47.5156V26.4844H53.5312L64.3594 32.5V54.1562Z" fill="#FFCEB6"/>
<path d="M30.6719 1.21875H9.01562C7.68669 1.21875 6.60938 2.29606 6.60938 3.625V46.9375C6.60938 48.2664 7.68669 49.3438 9.01562 49.3438H30.6719C32.0008 49.3438 33.0781 48.2664 33.0781 46.9375V3.625C33.0781 2.29606 32.0008 1.21875 30.6719 1.21875Z" fill="#00A64F"/>
<path d="M6.60938 8.4375H9.01562C10.292 8.4375 11.5161 7.93047 12.4186 7.02795C13.3211 6.12543 13.8281 4.90135 13.8281 3.625V1.21875H9.01562C8.37745 1.21875 7.76541 1.47226 7.31415 1.92352C6.86289 2.37478 6.60938 2.98682 6.60938 3.625V8.4375Z" fill="#C8DBF7"/>
<path d="M33.0781 8.4375H30.6719C29.3955 8.4375 28.1714 7.93047 27.2689 7.02795C26.3664 6.12543 25.8594 4.90135 25.8594 3.625V1.21875H30.6719C31.3101 1.21875 31.9221 1.47226 32.3734 1.92352C32.8246 2.37478 33.0781 2.98682 33.0781 3.625V8.4375Z" fill="#C8DBF7"/>
<path d="M6.60938 42.125H9.01562C10.292 42.125 11.5161 42.632 12.4186 43.5345C13.3211 44.4371 13.8281 45.6611 13.8281 46.9375V49.3438H9.01562C8.37745 49.3438 7.76541 49.0902 7.31415 48.639C6.86289 48.1877 6.60938 47.5757 6.60938 46.9375V42.125Z" fill="#C8DBF7"/>
<path d="M37.8906 8.4375H16.2344C14.9054 8.4375 13.8281 9.51481 13.8281 10.8438V54.1562C13.8281 55.4852 14.9054 56.5625 16.2344 56.5625H37.8906C39.2196 56.5625 40.2969 55.4852 40.2969 54.1562V10.8438C40.2969 9.51481 39.2196 8.4375 37.8906 8.4375Z" fill="#00B55B"/>
<path d="M13.8281 15.6562H16.2344C17.5107 15.6562 18.7348 15.1492 19.6373 14.2467C20.5398 13.3442 21.0469 12.1201 21.0469 10.8438V8.4375H16.2344C15.5962 8.4375 14.9842 8.69102 14.5329 9.14227C14.0816 9.59353 13.8281 10.2056 13.8281 10.8438V15.6562Z" fill="#D1E4FF"/>
<path d="M40.2969 15.6562H37.8906C36.6143 15.6562 35.3902 15.1492 34.4877 14.2467C33.5852 13.3442 33.0781 12.1201 33.0781 10.8438V8.4375H37.8906C38.5288 8.4375 39.1408 8.69102 39.5921 9.14227C40.0434 9.59353 40.2969 10.2056 40.2969 10.8438V15.6562Z" fill="#D1E4FF"/>
<path d="M13.8281 49.3438H16.2344C17.5107 49.3438 18.7348 49.8508 19.6373 50.7533C20.5398 51.6558 21.0469 52.8799 21.0469 54.1562V56.5625H16.2344C15.5962 56.5625 14.9842 56.309 14.5329 55.8577C14.0816 55.4065 13.8281 54.7944 13.8281 54.1562V49.3438Z" fill="#D1E4FF"/>
<path d="M76.3906 32.5V54.1562H64.3594V32.5H76.3906Z" fill="#0A263E"/>
<path d="M47.5156 43.3281V61.375C47.5156 62.0132 47.2621 62.6252 46.8109 63.0765C46.3596 63.5277 45.7476 63.7812 45.1094 63.7812H23.4531C22.8149 63.7812 22.2029 63.5277 21.7516 63.0765C21.3004 62.6252 21.0469 62.0132 21.0469 61.375V18.0625C21.0469 17.4243 21.3004 16.8123 21.7516 16.361C22.2029 15.9098 22.8149 15.6562 23.4531 15.6562H45.1094C45.7476 15.6562 46.3596 15.9098 46.8109 16.361C47.2621 16.8123 47.5156 17.4243 47.5156 18.0625V36.1094" fill="#02C26A"/>
<path d="M21.0469 22.875H23.4531C24.7295 22.875 25.9536 22.368 26.8561 21.4655C27.7586 20.5629 28.2656 19.3389 28.2656 18.0625V15.6562H23.4531C22.8149 15.6562 22.2029 15.9098 21.7516 16.361C21.3004 16.8123 21.0469 17.4243 21.0469 18.0625V22.875Z" fill="#E0EDFF"/>
<path d="M33.0781 45.7344H35.4844V54.1562H33.0781V45.7344Z" fill="#00B55B"/>
<path d="M33.0781 25.2812H35.4844V33.7031H33.0781V25.2812Z" fill="#00B55B"/>
<path d="M34.2812 46.9375C38.2681 46.9375 41.5 43.7056 41.5 39.7188C41.5 35.7319 38.2681 32.5 34.2812 32.5C30.2944 32.5 27.0625 35.7319 27.0625 39.7188C27.0625 43.7056 30.2944 46.9375 34.2812 46.9375Z" fill="#E0EDFF"/>
<path d="M47.5156 22.875H45.1094C43.833 22.875 42.6089 22.368 41.7064 21.4655C40.8039 20.5629 40.2969 19.3389 40.2969 18.0625V15.6562H45.1094C45.7476 15.6562 46.3596 15.9098 46.8109 16.361C47.2621 16.8123 47.5156 17.4243 47.5156 18.0625V22.875Z" fill="#E0EDFF"/>
<path d="M21.0469 56.5625H23.4531C24.7295 56.5625 25.9536 57.0695 26.8561 57.972C27.7586 58.8746 28.2656 60.0986 28.2656 61.375V63.7812H23.4531C22.8149 63.7812 22.2029 63.5277 21.7516 63.0765C21.3004 62.6252 21.0469 62.0132 21.0469 61.375V56.5625Z" fill="#E0EDFF"/>
<path d="M47.5156 56.5625H45.1094C43.833 56.5625 42.6089 57.0695 41.7064 57.972C40.8039 58.8746 40.2969 60.0986 40.2969 61.375V63.7812H45.1094C45.7476 63.7812 46.3596 63.5277 46.8109 63.0765C47.2621 62.6252 47.5156 62.0132 47.5156 61.375V56.5625Z" fill="#E0EDFF"/>
<path d="M58.3438 48.1406H54.7344C53.6137 48.1406 52.5084 47.8797 51.5061 47.3785C50.5037 46.8773 49.6318 46.1497 48.9594 45.2531L47.5156 43.3281H40.2969C39.3396 43.3281 38.4216 42.9479 37.7447 42.271C37.0678 41.5941 36.6875 40.676 36.6875 39.7188C36.6875 38.7615 37.0678 37.8434 37.7447 37.1665C38.4216 36.4896 39.3396 36.1094 40.2969 36.1094H58.3438V48.1406Z" fill="#FFCEB6"/>
<path d="M35.4851 39.802C35.4392 37.1097 37.7 34.9062 40.3927 34.9062H54.7344C55.0534 34.9062 55.3595 35.033 55.5851 35.2586C55.8107 35.4843 55.9375 35.7903 55.9375 36.1094C55.9375 36.4285 55.8107 36.7345 55.5851 36.9601C55.3595 37.1857 55.0534 37.3125 54.7344 37.3125H40.3667C39.0726 37.3125 37.9574 38.3049 37.8936 39.5975C37.8775 39.9232 37.9278 40.2487 38.0413 40.5545C38.1547 40.8602 38.3291 41.1397 38.5538 41.376C38.7785 41.6123 39.0489 41.8006 39.3485 41.9293C39.6481 42.0581 39.9708 42.1246 40.2969 42.125H47.5157C47.7024 42.125 47.8866 42.1685 48.0537 42.252C48.2207 42.3355 48.366 42.4568 48.4781 42.6062L49.922 44.5314C50.4823 45.2784 51.2089 45.8848 52.0442 46.3024C52.8794 46.7201 53.8005 46.9375 54.7344 46.9375H57.1406C57.4597 46.9375 57.7657 47.0643 57.9913 47.2899C58.217 47.5155 58.3437 47.8215 58.3437 48.1406C58.3437 48.4597 58.217 48.7657 57.9913 48.9914C57.7657 49.217 57.4597 49.3438 57.1406 49.3438H54.7344C53.427 49.3438 52.1375 49.0394 50.9682 48.4547C49.7988 47.87 48.7816 47.0212 47.9971 45.9753L46.914 44.5312H40.2969C39.0354 44.5298 37.8247 44.0337 36.925 43.1494C36.0253 42.2651 35.5083 41.0633 35.4851 39.802Z" fill="#FFB089"/>
<path d="M47.5156 52.9531H63.1562C63.4753 52.9531 63.7814 53.0799 64.007 53.3055C64.2326 53.5311 64.3594 53.8372 64.3594 54.1562C64.3594 54.4753 64.2326 54.7814 64.007 55.007C63.7814 55.2326 63.4753 55.3594 63.1562 55.3594H47.5156V52.9531Z" fill="#FFB089"/>
</svg>
