<svg width="30" height="30" viewBox="0 0 30 30" fill="none" xmlns="http://www.w3.org/2000/svg">
<g clip-path="url(#clip0)">
<path d="M27.1289 21.0156C25.8523 21.0156 24.7681 21.8534 24.396 23.0078H20.8554V18.6952H23.6656C27.1584 18.6952 29.9999 15.8537 29.9999 12.3609C29.9999 9.02031 27.4007 6.2755 24.1183 6.04259C23.6295 4.43753 22.6654 2.99331 21.3556 1.92199C19.8402 0.682616 17.9259 0 15.965 0C14.2038 0 12.5134 0.533026 11.0764 1.54148C9.85293 2.40011 8.88783 3.54714 8.25748 4.88483C6.12532 4.91829 4.37864 6.56835 4.19179 8.66049C1.81429 9.07094 0 11.1481 0 13.6411C0 16.428 2.26728 18.6952 5.05417 18.6952H9.14465V23.0078H5.60401C5.23183 21.8534 4.14767 21.0157 2.87109 21.0157C1.28795 21.0157 0 22.3036 0 23.8867C0 25.4699 1.28795 26.7578 2.87109 26.7578C4.14767 26.7578 5.23188 25.9201 5.60401 24.7657H10.9024V18.6952H14.1211V24.3959C12.9667 24.7681 12.1289 25.8523 12.1289 27.1289C12.1289 28.712 13.4168 29.9999 15 29.9999C16.5831 29.9999 17.8711 28.712 17.8711 27.1289C17.8711 25.8523 17.0333 24.7681 15.8789 24.3959V18.6952H19.0976V24.7657H24.396C24.7682 25.9201 25.8523 26.7578 27.1289 26.7578C28.7121 26.7578 30 25.4699 30 23.8867C30 22.3036 28.7121 21.0156 27.1289 21.0156ZM2.87109 25C2.2572 25 1.75781 24.5006 1.75781 23.8867C1.75781 23.2728 2.2572 22.7734 2.87109 22.7734C3.48497 22.7734 3.98437 23.2728 3.98437 23.8867C3.98437 24.5006 3.48497 25 2.87109 25ZM15 28.2421C14.3861 28.2421 13.8867 27.7427 13.8867 27.1289C13.8867 26.515 14.3861 26.0156 15 26.0156C15.6139 26.0156 16.1132 26.515 16.1132 27.1289C16.1132 27.7427 15.6139 28.2421 15 28.2421ZM1.75781 13.6411C1.75781 11.8268 3.23097 10.3502 5.04403 10.3447C5.05552 10.3451 5.06712 10.3454 5.07866 10.3455L6.08794 10.3513C6.08794 10.3513 5.93307 9.13428 5.93307 9.03256C5.93307 7.7145 7.00545 6.64212 8.32352 6.64212C8.4461 6.64212 9.39086 6.77723 9.39086 6.77723L9.64357 6.11395C10.636 3.50841 13.1765 1.75781 15.965 1.75781C19.1332 1.75781 21.9139 4.00265 22.5769 7.09545L22.7322 7.82002C22.7322 7.82002 23.6029 7.7844 23.6656 7.7844C26.1891 7.7844 28.2421 9.8374 28.2421 12.3609C28.2421 14.8844 26.1891 16.9374 23.6656 16.9374H5.05417C3.23654 16.9374 1.75781 15.4587 1.75781 13.6411ZM27.1289 25C26.515 25 26.0156 24.5006 26.0156 23.8867C26.0156 23.2728 26.515 22.7734 27.1289 22.7734C27.7428 22.7734 28.2422 23.2728 28.2422 23.8867C28.2422 24.5006 27.7428 25 27.1289 25Z" fill="#EE2B47"/>
</g>
<defs>
<clipPath id="clip0">
<rect width="30" height="30" fill="white"/>
</clipPath>
</defs>
</svg>
