<svg width="834" height="783" viewBox="0 0 834 783" fill="none" xmlns="http://www.w3.org/2000/svg">
<path fill-rule="evenodd" clip-rule="evenodd" d="M123.446 237.904C161.836 173.929 269.022 237.688 340.842 217.471C395.703 202.028 429.849 127.639 486.258 135.772C542.475 143.878 566.093 211.079 601.958 255.121C635.472 296.277 673.723 333.135 688.491 384.114C705.463 442.703 712.041 505.346 691.031 562.611C667.568 626.562 631.946 700.735 566.027 717.906C499.913 735.129 443.635 669.465 380.432 643.519C332.116 623.685 272.917 624.213 239.672 583.931C206.915 544.239 225.866 485.162 209.48 436.378C185.944 366.31 85.4131 301.284 123.446 237.904Z" fill="#F3F4F2"/>
<path fill-rule="evenodd" clip-rule="evenodd" d="M89.3933 342.856C104.634 269.818 226.818 294.824 288.008 252.133C334.75 219.523 342.561 138.045 398.512 127.194C454.271 116.381 498.656 172.092 547 201.906C592.175 229.767 640.412 252.012 671.109 295.31C706.387 345.07 733.181 402.075 732.151 463.064C731.001 531.173 721.725 612.932 665.107 650.807C608.32 688.795 533.593 645.266 465.375 641.525C413.224 638.665 357.485 658.613 312.851 631.489C268.873 604.763 267.362 542.739 235.858 502.046C190.609 443.6 74.2944 415.212 89.3933 342.856Z" fill="#001E89"/>
<path d="M474.434 393.807H314.054V250.322H474.434V393.807Z" fill="#FAFAFA"/>
<path d="M474.434 393.807C474.434 393.807 474.407 392.887 474.394 391.145C474.383 389.384 474.371 386.81 474.352 383.456C474.33 376.72 474.298 366.873 474.258 354.33C474.213 329.26 474.148 293.437 474.07 250.322L474.434 250.685C428.246 250.704 373.124 250.727 314.068 250.751H314.054L314.482 250.322C314.464 302.524 314.446 351.645 314.431 393.807L314.054 393.429C361.899 393.509 401.943 393.574 430.052 393.621C444.117 393.663 455.189 393.696 462.77 393.719C466.546 393.739 469.448 393.754 471.431 393.765C472.401 393.773 473.143 393.781 473.665 393.786C474.167 393.792 474.434 393.807 474.434 393.807C474.434 393.807 474.196 393.822 473.707 393.828C473.195 393.834 472.467 393.841 471.515 393.85C469.549 393.861 466.672 393.876 462.927 393.894C455.365 393.918 444.322 393.951 430.295 393.994C402.127 394.04 361.998 394.106 314.054 394.184L313.677 394.185V393.807C313.661 351.645 313.643 302.524 313.625 250.322V249.893H314.054H314.068C373.124 249.917 428.246 249.939 474.434 249.958H474.798V250.322C474.721 293.532 474.656 329.434 474.611 354.561C474.57 367.068 474.538 376.887 474.517 383.605C474.498 386.928 474.484 389.478 474.475 391.223C474.461 392.941 474.434 393.807 474.434 393.807Z" fill="#E1E1E1"/>
<path d="M375.55 275.816C375.55 276.053 367.108 276.245 356.697 276.245C346.282 276.245 337.842 276.053 337.842 275.816C337.842 275.58 346.282 275.388 356.697 275.388C367.108 275.388 375.55 275.58 375.55 275.816Z" fill="#E1E1E1"/>
<path d="M443.505 286.59C443.505 286.826 420.313 287.018 391.712 287.018C363.101 287.018 339.914 286.826 339.914 286.59C339.914 286.353 363.101 286.161 391.712 286.161C420.313 286.161 443.505 286.353 443.505 286.59Z" fill="#E1E1E1"/>
<path d="M344.876 311.595H338.119V304.839H344.876V311.595Z" fill="#E1E1E1"/>
<path d="M361.508 311.595H354.751V304.839H361.508V311.595Z" fill="#E1E1E1"/>
<path d="M378.446 311.289H371.69V304.532H378.446V311.289Z" fill="#E1E1E1"/>
<path d="M394.772 311.595H388.015V304.839H394.772V311.595Z" fill="#E1E1E1"/>
<path d="M411.404 311.595H404.647V304.839H411.404V311.595Z" fill="#E1E1E1"/>
<path d="M428.036 311.595H421.279V304.839H428.036V311.595Z" fill="#E1E1E1"/>
<path d="M444.668 311.595H437.911V304.839H444.668V311.595Z" fill="#ECECEC"/>
<path d="M344.876 325.96H338.119V319.204H344.876V325.96Z" fill="#ECECEC"/>
<path d="M361.508 325.96H354.751V319.204H361.508V325.96Z" fill="#E1E1E1"/>
<path d="M378.14 325.96H371.383V319.204H378.14V325.96Z" fill="#ECECEC"/>
<path d="M394.772 325.96H388.015V319.204H394.772V325.96Z" fill="#E1E1E1"/>
<path d="M411.404 325.96H404.647V319.204H411.404V325.96Z" fill="#E1E1E1"/>
<path d="M428.342 325.654H421.586V318.897H428.342V325.654Z" fill="#E1E1E1"/>
<path d="M444.668 325.96H437.911V319.204H444.668V325.96Z" fill="#E1E1E1"/>
<path d="M344.876 340.325H338.119V333.568H344.876V340.325Z" fill="#E1E1E1"/>
<path d="M361.814 340.018H355.058V333.262H361.814V340.018Z" fill="#E1E1E1"/>
<path d="M378.14 340.325H371.383V333.568H378.14V340.325Z" fill="#E1E1E1"/>
<path d="M394.772 340.325H388.015V333.568H394.772V340.325Z" fill="#ECECEC"/>
<path d="M411.404 340.325H404.647V333.568H411.404V340.325Z" fill="#E1E1E1"/>
<path d="M428.036 340.325H421.279V333.568H428.036V340.325Z" fill="#E1E1E1"/>
<path d="M444.668 340.325H437.911V333.568H444.668V340.325Z" fill="#E1E1E1"/>
<path d="M344.876 354.69H338.119V347.933H344.876V354.69Z" fill="#E1E1E1"/>
<path d="M361.508 354.69H354.751V347.933H361.508V354.69Z" fill="#E1E1E1"/>
<path d="M378.14 354.69H371.383V347.933H378.14V354.69Z" fill="#E1E1E1"/>
<path d="M395.078 354.382H388.322V347.626H395.078V354.382Z" fill="#E1E1E1"/>
<path d="M411.404 354.69H404.647V347.933H411.404V354.69Z" fill="#E1E1E1"/>
<path d="M428.036 354.69H421.279V347.933H428.036V354.69Z" fill="#ECECEC"/>
<path d="M444.668 354.69H437.911V347.933H444.668V354.69Z" fill="#E1E1E1"/>
<path d="M344.876 369.054H338.119V362.297H344.876V369.054Z" fill="#E1E1E1"/>
<path d="M361.508 369.054H354.751V362.297H361.508V369.054Z" fill="#ECECEC"/>
<path d="M378.14 369.054H371.383V362.297H378.14V369.054Z" fill="#E1E1E1"/>
<path d="M394.772 369.054H388.015V362.297H394.772V369.054Z" fill="#E1E1E1"/>
<path d="M411.404 369.054H404.647V362.297H411.404V369.054Z" fill="#E1E1E1"/>
<path d="M428.342 368.747H421.586V361.991H428.342V368.747Z" fill="#E1E1E1"/>
<path d="M444.668 369.054H437.911V362.297H444.668V369.054Z" fill="#E1E1E1"/>
<path d="M562.61 255.408L552.303 255.464L552.029 204.179L562.335 204.124L562.61 255.408Z" fill="#E1E1E1"/>
<path d="M582.784 244.626L556.094 244.769L555.942 216.457L582.632 216.313L582.784 244.626Z" fill="#ECECEC"/>
<path d="M609.348 244.484L582.657 244.627L582.505 216.314L609.196 216.171L609.348 244.484Z" fill="#F5F5F5"/>
<path d="M555.984 224.276C573.721 224.422 591.502 224.318 609.238 224.031C609.603 224.025 609.6 223.465 609.235 223.464C591.497 223.366 573.716 223.453 555.981 223.79C555.668 223.795 555.671 224.273 555.984 224.276Z" fill="#E1E1E1"/>
<path d="M587.917 267.226L539.426 267.486L539.302 244.413L587.793 244.153L587.917 267.226Z" fill="#ECECEC"/>
<path d="M636.179 266.968L587.688 267.227L587.564 244.155L636.055 243.895L636.179 266.968Z" fill="#F5F5F5"/>
<path d="M539.336 250.831C571.55 251.196 603.877 250.868 636.09 250.353C636.454 250.346 636.452 249.788 636.087 249.786C603.87 249.616 571.541 249.634 539.333 250.345C539.021 250.351 539.023 250.827 539.336 250.831Z" fill="#E1E1E1"/>
<path d="M615.871 263.696H428V255.43H615.871V263.696Z" fill="#E1E1E1"/>
<path d="M559.587 299.665H551.96V271.46H559.587V299.665Z" fill="#E1E1E1"/>
<path d="M673.436 299.665H665.809V271.46H673.436V299.665Z" fill="#E1E1E1"/>
<path d="M572.771 255.534L562.465 255.59L562.087 185.055L572.393 185L572.771 255.534Z" fill="#ECECEC"/>
<path d="M588.804 255.29L572.789 255.375L572.482 198.216L588.497 198.13L588.804 255.29Z" fill="#F5F5F5"/>
<path d="M588.39 209.142C588.39 209.295 584.804 209.42 580.382 209.42C575.959 209.42 572.375 209.295 572.375 209.142C572.375 208.988 575.959 208.865 580.382 208.865C584.804 208.865 588.39 208.988 588.39 209.142Z" fill="#E1E1E1"/>
<path d="M588.39 206.741C588.39 206.895 584.804 207.018 580.382 207.018C575.959 207.018 572.375 206.895 572.375 206.741C572.375 206.588 575.959 206.464 580.382 206.464C584.804 206.464 588.39 206.588 588.39 206.741Z" fill="#E1E1E1"/>
<path d="M588.39 246.69C588.39 246.843 584.804 246.967 580.382 246.967C575.959 246.967 572.375 246.843 572.375 246.69C572.375 246.536 575.959 246.412 580.382 246.412C584.804 246.412 588.39 246.536 588.39 246.69Z" fill="#E1E1E1"/>
<path d="M588.39 244.289C588.39 244.442 584.804 244.566 580.382 244.566C575.959 244.566 572.375 244.442 572.375 244.289C572.375 244.135 575.959 244.011 580.382 244.011C584.804 244.011 588.39 244.135 588.39 244.289Z" fill="#E1E1E1"/>
<path d="M580.64 239.05C580.487 239.05 580.362 233.283 580.362 226.171C580.362 219.056 580.487 213.291 580.64 213.291C580.793 213.291 580.917 219.056 580.917 226.171C580.917 233.283 580.793 239.05 580.64 239.05Z" fill="#E1E1E1"/>
<path d="M605.995 255.311H588.563V212.167H605.995V255.311Z" fill="#ECECEC"/>
<path d="M570.051 197.042C570.051 198.679 568.724 200.004 567.088 200.004C565.451 200.004 564.126 198.679 564.126 197.042C564.126 195.406 565.451 194.079 567.088 194.079C568.724 194.079 570.051 195.406 570.051 197.042Z" fill="#E1E1E1"/>
<path d="M568.003 247.149H566.173V205.189H568.003V247.149Z" fill="#E1E1E1"/>
<path d="M686.443 274.493L684.087 270.66C664.229 238.347 628.328 218.869 590.474 221.233C585.608 221.537 580.764 222.186 575.984 223.197C541.568 230.472 511.622 256.171 499.21 289.084C491.91 308.442 489.87 330.729 476.017 346.093C457.988 366.089 427.379 366.717 400.468 365.889C373.557 365.06 342.927 365.767 324.986 385.842C313.75 398.415 310.179 416.293 311.085 433.131C313.484 477.709 330.043 516.98 370.048 536.792C410.053 556.604 472.053 558.966 515.836 550.252C577.171 538.043 635.5 504.514 670.561 452.727C705.621 400.941 714.494 330.387 686.443 274.493Z" fill="#012ABA"/>
<path d="M344.646 484.986C349.481 482.491 355.175 482.166 360.542 483.054C363.426 483.531 366.432 484.393 368.395 486.559C370.357 488.726 370.728 492.538 368.475 494.399C367.134 495.507 365.264 495.674 363.525 495.655C359.322 495.606 354.66 494.866 351.303 497.395C349.387 498.837 348.112 501.235 345.822 501.944C343.582 502.638 341.054 501.317 339.866 499.294C338.678 497.273 338.639 494.745 339.192 492.467C339.192 492.467 339.776 487.499 344.646 484.986Z" fill="#34C759"/>
<path d="M333.569 463.602C336.525 467.824 342.271 466.426 344.936 463.849C347.6 461.272 348.726 457.536 349.751 453.974C352.093 445.834 354.455 437.296 352.713 429.007C352.193 426.529 351.266 424.058 349.525 422.219C347.783 420.382 345.106 419.287 342.657 419.934C339.761 420.7 337.959 423.538 336.658 426.238C332.833 434.172 330.807 442.968 330.778 451.777C330.763 455.891 331.248 460.205 333.569 463.602Z" fill="#34C759"/>
<path d="M325.45 469.66C328.66 465.851 329.269 460.294 327.841 455.521C326.412 450.748 323.185 446.689 319.465 443.374C315.106 439.487 309.98 436.462 304.47 434.525C302.301 433.763 300.014 433.161 297.726 433.379C295.438 433.598 293.132 434.767 292.065 436.804C290.487 439.814 292.001 443.464 293.637 446.443C296.52 451.691 299.817 456.71 303.488 461.441C306.439 465.249 309.821 469.003 314.32 470.723C318.82 472.443 323.494 472.241 325.878 469.12" fill="#34C759"/>
<path d="M333.369 527.3C333.424 527.303 333.514 526.62 333.637 525.382C333.772 523.985 333.942 522.231 334.146 520.145C334.39 517.941 334.712 515.318 335.324 512.464C335.933 509.615 336.889 506.529 338.116 503.398C339.385 500.287 340.934 497.458 342.744 495.196C344.541 492.924 346.631 491.279 348.596 490.331C350.555 489.362 352.311 488.971 353.525 488.795C354.75 488.669 355.435 488.573 355.436 488.519C355.436 488.464 354.75 488.456 353.491 488.489C352.246 488.572 350.416 488.888 348.352 489.826C346.282 490.745 344.065 492.415 342.179 494.734C340.278 497.044 338.673 499.935 337.38 503.103C336.133 506.287 335.192 509.406 334.609 512.315C334.027 515.22 333.761 517.872 333.588 520.093C333.421 522.317 333.358 524.118 333.328 525.362C333.3 526.607 333.314 527.297 333.369 527.3Z" fill="#863202"/>
<path d="M333.729 523.27C333.756 523.269 333.774 522.962 333.781 522.379C333.779 521.711 333.777 520.868 333.774 519.833C333.768 517.625 333.769 514.427 333.887 510.479C334.082 502.581 334.762 494.083 336.076 482.101C337.32 470.834 338.989 457.723 340.75 449.198C341.128 447.259 341.509 445.514 341.867 443.987C342.208 442.455 342.5 441.135 342.781 440.066C343.023 439.061 343.22 438.243 343.376 437.592C343.503 437.023 343.558 436.721 343.532 436.714C343.505 436.707 343.4 436.993 343.223 437.549C343.028 438.189 342.784 438.996 342.483 439.988C342.155 441.047 341.819 442.359 341.436 443.883C341.037 445.405 340.616 447.144 340.202 449.081C338.46 456.806 336.615 467.601 335.288 479.612C333.972 491.619 333.38 502.552 333.328 510.468C333.28 514.426 333.364 517.631 333.465 519.841C333.529 520.875 333.58 521.717 333.621 522.386C333.666 522.967 333.702 523.272 333.729 523.27Z" fill="#863202"/>
<path d="M333.782 502.185C333.837 502.183 333.827 501.238 333.763 499.525C333.665 497.815 333.431 495.346 332.949 492.319C332.439 489.301 331.725 485.716 330.605 481.821C330.12 480.041 328.979 475.774 326.216 469.399C322.574 460.761 317.627 453.699 313.323 449.324C312.314 448.163 311.19 447.325 310.291 446.505C309.825 446.112 309.414 445.719 308.995 445.408C308.573 445.117 308.182 444.847 307.817 444.597C306.401 443.629 305.608 443.117 305.579 443.163C305.451 443.337 308.752 445.278 312.918 449.711C317.068 454.134 321.877 461.148 325.489 469.713C327.503 474.359 328.907 478.503 329.903 482.021C331.055 485.88 331.819 489.426 332.397 492.415C332.947 495.411 333.264 497.856 333.456 499.55C333.614 501.246 333.727 502.186 333.782 502.185Z" fill="#863202"/>
<path d="M313.401 539.38L315.514 568.326H352.701L354.814 539.38H313.401Z" fill="#863202"/>
<path d="M309.81 539.379H359.251V527.97H309.81V539.379Z" fill="#863202"/>
<path d="M309.81 567.218V570.381H312.133H358.433V567.218H309.81Z" fill="#FF7A00"/>
<path d="M314.41 575.948L312.133 570.381H356.663L354.006 575.948H314.41Z" fill="#FF7A00"/>
<path d="M354.123 548.841C354.132 548.847 354.073 548.937 353.95 549.106C353.802 549.302 353.62 549.545 353.394 549.843C352.866 550.518 352.141 551.447 351.228 552.616L351.132 552.739L351.038 552.61C349.677 550.726 347.857 548.211 345.716 545.249H346.023C344.44 547.491 342.676 549.987 340.783 552.668L340.619 552.901L340.435 552.682C338.501 550.382 336.401 547.883 334.221 545.288L334.578 545.284C334.471 545.419 334.354 545.566 334.237 545.713C332.309 548.129 330.445 550.469 328.68 552.679L328.495 552.911L328.324 552.67C326.438 550.001 324.675 547.507 323.081 545.252L323.386 545.267C320.803 548.211 318.611 550.708 316.93 552.623L316.815 552.753L316.728 552.606C315.878 551.176 315.198 550.037 314.706 549.21C314.495 548.842 314.324 548.544 314.188 548.306C314.074 548.099 314.02 547.99 314.03 547.983C314.039 547.977 314.113 548.075 314.246 548.271C314.397 548.499 314.586 548.785 314.82 549.14C315.336 549.951 316.048 551.071 316.942 552.475L316.74 552.459C318.395 550.518 320.551 547.993 323.093 545.013L323.253 544.824L323.398 545.028C325.006 547.272 326.784 549.754 328.687 552.412L328.331 552.401C330.091 550.187 331.952 547.846 333.874 545.426C333.992 545.278 334.109 545.131 334.217 544.996L334.393 544.775L334.575 544.992C336.749 547.59 338.844 550.093 340.772 552.4L340.424 552.412C342.336 549.745 344.117 547.262 345.716 545.031L345.871 544.815L346.023 545.031C348.119 548.025 349.899 550.568 351.232 552.472L351.043 552.466C351.993 551.328 352.747 550.423 353.296 549.765C353.541 549.481 353.74 549.251 353.9 549.066C354.039 548.91 354.115 548.833 354.123 548.841Z" fill="#E1E1E1"/>
<path d="M355.332 539.188C355.332 539.317 346.014 539.42 334.523 539.42C323.027 539.42 313.712 539.317 313.712 539.188C313.712 539.061 323.027 538.957 334.523 538.957C346.014 538.957 355.332 539.061 355.332 539.188Z" fill="#FF7A00"/>
<path d="M357.21 570.693C357.21 570.822 347.084 570.924 334.595 570.924C322.102 570.924 311.977 570.822 311.977 570.693C311.977 570.565 322.102 570.461 334.595 570.461C347.084 570.461 357.21 570.565 357.21 570.693Z" fill="#863202"/>
<path d="M711.884 576.473H597.527V467.805C597.527 460.086 603.782 453.831 611.501 453.831H697.909C705.628 453.831 711.884 460.086 711.884 467.805V576.473Z" fill="#863202"/>
<path d="M702.27 454.456C702.403 454.456 702.51 481.759 702.51 515.43C702.51 549.114 702.403 576.41 702.27 576.41C702.136 576.41 702.029 549.114 702.029 515.43C702.029 481.759 702.136 454.456 702.27 454.456Z" fill="#1A2E35"/>
<path d="M645.931 320.687C656.409 335.623 662.515 353.586 663.312 371.812C663.851 384.101 662.196 397.196 668.029 408.026C676.395 423.562 694.498 423.034 700.04 439.787C702.451 447.072 698.007 463.108 696.808 470.689C695.447 479.304 700.717 486.539 699.355 495.156C698.107 503.053 692.197 508.691 685.097 512.368C678.781 515.639 672.941 515.726 666.369 513.006C653.848 507.822 643.426 502.35 634.505 492.149C621.98 477.828 618.195 457.999 616.056 439.093C611.338 397.413 612.295 355.095 618.891 313.671" fill="#1A2E35"/>
<path d="M672.709 514.768C672.709 514.768 672.845 514.726 673.112 514.666C673.38 514.603 673.784 514.542 674.297 514.386C675.326 514.112 676.839 513.622 678.623 512.656C680.397 511.696 682.497 510.283 684.338 508.074C685.247 506.972 686.079 505.654 686.572 504.112C687.042 502.569 687.254 500.835 687.353 499.035C687.531 495.413 686.978 491.451 686.156 487.263C685.35 483.07 684.257 478.596 683.994 473.752C683.868 471.338 683.973 468.83 684.516 466.345C685.032 463.853 685.932 461.418 686.866 458.972C687.806 456.527 688.796 454.056 689.512 451.466C690.19 448.882 690.607 446.139 690.153 443.43C689.758 440.717 688.647 438.18 687.155 435.961C685.665 433.731 683.815 431.807 681.915 430.025C678.099 426.464 673.967 423.521 670.438 420.217C663.316 413.658 658.521 406.195 655.49 399.58C653.98 396.26 652.821 393.16 652.049 390.367C651.605 388.986 651.353 387.658 651.035 386.46C650.798 385.244 650.58 384.132 650.385 383.13C650.091 381.112 649.876 379.545 649.818 378.472C649.778 377.955 649.746 377.551 649.724 377.257C649.705 376.982 649.707 376.841 649.707 376.841C649.707 376.841 649.738 376.979 649.773 377.252C649.807 377.547 649.854 377.948 649.914 378.462C650.004 379.53 650.247 381.091 650.569 383.098C650.777 384.094 651.007 385.199 651.259 386.408C651.589 387.6 651.853 388.92 652.307 390.29C653.099 393.065 654.276 396.143 655.799 399.437C658.853 406 663.65 413.397 670.738 419.891C674.247 423.162 678.386 426.096 682.237 429.681C684.154 431.475 686.03 433.42 687.551 435.694C689.076 437.955 690.223 440.566 690.629 443.36C691.095 446.153 690.665 448.971 689.974 451.592C689.245 454.218 688.246 456.703 687.305 459.142C686.37 461.582 685.475 463.992 684.967 466.439C684.428 468.879 684.318 471.344 684.437 473.73C684.683 478.518 685.756 482.982 686.548 487.187C687.356 491.389 687.895 495.387 687.693 499.052C687.581 500.88 687.359 502.613 686.863 504.206C686.343 505.791 685.48 507.132 684.545 508.245C682.652 510.477 680.514 511.878 678.71 512.822C676.896 513.769 675.364 514.235 674.32 514.48C673.274 514.728 672.709 514.768 672.709 514.768Z" fill="#FF7A00"/>
<path d="M500.694 547.781L545.03 526.724C545.03 526.724 562.297 442.885 565.562 436.587C568.827 430.292 582.475 424.851 582.475 424.851L580.188 538.381L576.139 564.569L513.61 570.493L500.694 547.781Z" fill="#0197F6"/>
<path d="M462.852 567.643C462.607 567.633 461.374 568.406 462.408 570.352C463.442 572.298 470.947 578.737 473.157 576.494C475.366 574.251 471.992 571.515 471.992 571.515L462.852 567.643Z" fill="white"/>
<path d="M472.311 571.602C472.311 571.602 481.377 572.745 484.868 574.073C488.66 575.513 493.276 574.531 496.384 572.425C499.491 570.32 501.302 568.418 501.302 568.418L512.869 568.235C512.869 568.235 518.421 562.48 515.125 553.904C514.549 552.408 513.929 551.224 512.474 549.389C511.101 547.904 508.931 546.699 505.183 546.052L491.442 549.019C491.442 549.019 470.152 547.498 466.369 549.287C466.369 549.287 461.612 552.108 460.14 553.291C459.586 553.737 457.899 559.154 461.361 561.97C461.361 561.97 458.348 564.368 459.98 566.517L460.763 567.471C460.763 567.471 458.736 570.095 459.776 571.237C460.816 572.379 469.925 577.718 473.184 576.445C476.442 575.173 473.745 572.155 472.311 571.602Z" fill="white"/>
<path d="M463.64 557.289C463.651 557.264 464.049 557.419 464.767 557.692C465.485 557.965 466.527 558.353 467.834 558.769C468.487 558.977 469.208 559.19 469.988 559.395C470.763 559.607 471.612 559.774 472.492 560.059C473.361 560.349 474.3 560.758 474.989 561.565C475.641 562.343 476.084 563.505 475.656 564.606C475.447 565.146 475.009 565.557 474.53 565.814C474.044 566.064 473.523 566.184 473.017 566.236C471.995 566.332 471.036 566.203 470.128 566.084C468.313 565.806 466.73 565.319 465.43 564.859C464.128 564.399 463.102 563.963 462.393 563.661C461.686 563.356 461.302 563.173 461.311 563.15C461.321 563.124 461.725 563.262 462.448 563.525C463.172 563.784 464.212 564.181 465.516 564.606C466.818 565.031 468.392 565.484 470.178 565.738C471.069 565.848 472.023 565.965 472.977 565.867C473.453 565.816 473.93 565.701 474.355 565.481C474.77 565.256 475.134 564.91 475.305 564.463C475.667 563.561 475.296 562.508 474.705 561.803C474.102 561.083 473.219 560.675 472.382 560.39C471.534 560.104 470.685 559.925 469.904 559.697C469.124 559.477 468.402 559.249 467.75 559.023C466.445 558.573 465.413 558.144 464.71 557.828C464.007 557.511 463.63 557.311 463.64 557.289Z" fill="#E1E1E1"/>
<path d="M464.456 550.735C464.467 550.71 464.862 550.865 465.575 551.141C466.29 551.416 467.323 551.814 468.62 552.246C469.917 552.679 471.476 553.147 473.233 553.568C474.098 553.79 475.098 553.966 475.921 554.656C476.323 554.996 476.629 555.496 476.709 556.047C476.796 556.594 476.698 557.157 476.475 557.664C476.019 558.698 475.06 559.361 474.102 559.683C473.133 560.016 472.124 560.038 471.212 559.912C469.377 559.637 467.868 558.979 466.566 558.567C465.319 558.13 464.287 557.769 463.502 557.494C462.781 557.233 462.386 557.076 462.394 557.052C462.403 557.028 462.813 557.136 463.548 557.354C464.343 557.6 465.387 557.922 466.649 558.312C467.962 558.694 469.494 559.324 471.256 559.567C472.136 559.679 473.08 559.647 473.982 559.333C474.871 559.03 475.733 558.417 476.129 557.51C476.547 556.617 476.409 555.519 475.677 554.935C474.972 554.331 474.014 554.132 473.149 553.907C471.386 553.464 469.824 552.966 468.533 552.498C467.24 552.031 466.217 551.595 465.518 551.278C464.82 550.957 464.445 550.758 464.456 550.735Z" fill="#E1E1E1"/>
<path d="M468.825 552.607C468.715 552.606 468.655 551.773 468.414 550.785C468.18 549.796 467.855 549.026 467.952 548.976C468.037 548.926 468.534 549.654 468.782 550.698C469.036 551.74 468.924 552.614 468.825 552.607Z" fill="#E1E1E1"/>
<path d="M500.818 552.88L492.736 549.765C492.736 549.765 470.293 539.291 469.914 539.857C469.535 540.426 468.319 540.364 468.584 543.099C468.85 545.836 481.929 551.353 482.342 552.3C482.756 553.248 482.066 558.042 486.896 561.475C491.727 564.907 495.213 564.982 495.213 564.982" fill="white"/>
<path d="M495.212 564.982C495.212 564.988 495.147 564.993 495.02 564.988C494.893 564.982 494.706 564.968 494.461 564.933C493.972 564.865 493.255 564.72 492.363 564.429C491.468 564.142 490.402 563.702 489.23 563.066C488.069 562.416 486.75 561.643 485.508 560.485C484.265 559.341 483.248 557.691 482.753 555.761C482.494 554.801 482.402 553.759 482.277 552.743C482.26 552.614 482.231 552.498 482.197 552.396C482.169 552.325 482.087 552.261 481.986 552.18C481.785 552.029 481.557 551.891 481.329 551.755C480.87 551.485 480.391 551.226 479.906 550.965C477.959 549.928 475.887 548.879 473.797 547.678C472.752 547.079 471.702 546.441 470.682 545.714C470.175 545.343 469.675 544.955 469.218 544.493C468.989 544.265 468.779 544.007 468.602 543.713C468.524 543.557 468.445 543.401 468.416 543.21C468.377 543.027 468.386 542.879 468.368 542.712C468.342 542.067 468.364 541.374 468.715 540.76C468.887 540.453 469.174 540.223 469.427 540.046C469.555 539.954 469.669 539.87 469.737 539.778C469.761 539.755 469.718 539.786 469.815 539.7C469.919 539.636 469.938 539.658 469.973 539.65C470.052 539.645 470.077 539.659 470.132 539.662C470.218 539.679 470.299 539.698 470.377 539.72C471.593 540.095 472.705 540.584 473.821 541.043C476.039 541.978 478.158 542.922 480.174 543.828C484.203 545.643 487.813 547.319 490.838 548.737C491.596 549.084 492.312 549.447 492.998 549.738C493.696 550.012 494.356 550.272 494.974 550.515C496.2 551 497.259 551.42 498.138 551.767C498.983 552.109 499.649 552.379 500.132 552.574C500.342 552.664 500.511 552.735 500.647 552.794C500.762 552.845 500.82 552.874 500.817 552.88C500.816 552.886 500.754 552.869 500.634 552.83C500.493 552.781 500.319 552.721 500.104 552.645C499.615 552.466 498.939 552.219 498.083 551.905C497.198 551.573 496.129 551.173 494.893 550.71C494.271 550.475 493.606 550.224 492.902 549.958C492.199 549.67 491.491 549.321 490.727 548.98C487.673 547.601 484.051 545.962 480.032 544.146C478.013 543.251 475.892 542.312 473.678 541.385C472.571 540.932 471.436 540.438 470.278 540.084C470.206 540.062 470.135 540.047 470.069 540.034C470.046 540.032 469.994 540.021 469.995 540.026C469.991 540.014 469.997 540.054 469.983 539.996C469.959 539.927 469.989 539.937 469.969 539.904C469.964 539.893 469.955 539.884 469.943 539.877C470.198 540.05 470.007 539.933 470.061 539.976L470.039 540.004C469.919 540.162 469.773 540.26 469.648 540.352C469.394 540.532 469.178 540.707 469.039 540.954C468.755 541.443 468.717 542.081 468.746 542.695C468.765 543.025 468.78 543.28 468.933 543.529C469.083 543.777 469.271 544.015 469.489 544.229C469.919 544.664 470.406 545.046 470.902 545.408C471.903 546.124 472.945 546.758 473.982 547.358C476.059 548.557 478.123 549.61 480.07 550.658C480.557 550.922 481.037 551.183 481.503 551.462C481.737 551.604 481.967 551.742 482.19 551.912C482.291 551.995 482.434 552.096 482.508 552.271C482.558 552.418 482.589 552.558 482.605 552.689C482.73 553.75 482.81 554.74 483.057 555.684C483.526 557.564 484.493 559.164 485.695 560.293C486.888 561.43 488.194 562.221 489.332 562.881C490.484 563.529 491.531 563.983 492.409 564.29C493.288 564.598 493.993 564.766 494.473 564.858C494.714 564.905 494.899 564.931 495.024 564.95C495.148 564.967 495.212 564.975 495.212 564.982Z" fill="#E1E1E1"/>
<path d="M470.461 566.036C470.467 566.016 470.782 566.076 471.32 566.287C471.856 566.497 472.616 566.869 473.436 567.51C473.841 567.836 474.27 568.209 474.659 568.696C475.031 569.174 475.409 569.82 475.311 570.586C475.214 571.357 474.555 571.965 473.816 572.203C473.052 572.459 472.224 572.337 471.463 572.129C468.456 571.213 465.839 570.107 464.023 569.141C463.116 568.659 462.406 568.224 461.931 567.904C461.453 567.584 461.204 567.386 461.218 567.366C461.234 567.342 461.509 567.498 462.007 567.778C462.504 568.058 463.229 568.454 464.144 568.902C465.971 569.799 468.596 570.86 471.564 571.763C472.294 571.967 473.05 572.067 473.698 571.851C474.348 571.645 474.885 571.138 474.966 570.536C475.059 569.93 474.752 569.344 474.41 568.888C474.059 568.426 473.647 568.045 473.268 567.717C471.702 566.426 470.424 566.109 470.461 566.036Z" fill="#E1E1E1"/>
<g opacity="0.300003">
<g opacity="0.300003">
<path opacity="0.300003" d="M575.82 564.595C568.558 540.103 562.154 508.557 554.892 484.065C552.238 506.677 555.56 536.528 559.722 558.912C560.21 561.534 560.434 564.106 562.469 565.831L575.82 564.595Z" fill="black"/>
</g>
</g>
<path d="M563.928 547.781C563.831 547.804 563.524 546.183 562.539 543.737C562.057 542.511 561.351 541.107 560.456 539.617C559.531 538.145 558.4 536.598 557.043 535.12C555.668 533.657 554.209 532.413 552.809 531.382C551.39 530.378 550.041 529.57 548.855 528.999C546.489 527.835 544.894 527.41 544.926 527.315C544.934 527.283 545.333 527.379 546.049 527.581C546.41 527.675 546.847 527.807 547.338 528.007C547.83 528.2 548.405 528.39 549.001 528.692C550.222 529.232 551.61 530.02 553.066 531.02C554.504 532.048 555.997 533.304 557.396 534.792C558.776 536.296 559.917 537.879 560.834 539.388C561.724 540.914 562.408 542.356 562.856 543.614C563.113 544.23 563.26 544.818 563.416 545.324C563.578 545.828 563.677 546.273 563.746 546.64C563.894 547.37 563.96 547.775 563.928 547.781Z" fill="#1A2E35"/>
<path d="M577.775 423.708C577.775 423.708 554.549 475.586 554.549 485.111C554.549 494.636 571.952 560.811 571.952 560.811C571.788 563.438 571.109 576.628 571.109 576.628L668.664 576.962L670.149 555.992L662.535 536.008L670.143 479.516C670.143 479.516 675.263 446.716 675.718 437.544C676.287 426.065 637.408 412.761 638.467 411.173L631.754 402.186L593.289 433.417L585.689 411.466L576.584 420.074L577.775 423.708Z" fill="#0197F6"/>
<path d="M641.66 437.509C631.102 455.374 611.777 487.932 611.777 487.932L577.149 527.414C577.149 527.414 574.885 547.478 579.415 553.627C583.946 559.776 591.712 563.983 591.712 563.983C591.712 563.983 600.855 563.983 612.465 554.274C624.075 544.566 656.114 504.436 656.114 504.436L667.117 491.168C667.117 491.168 680.232 458.939 677.784 442.537C676.839 436.214 674.148 433.582 670.554 430.682C661.527 423.398 647.561 427.522 641.66 437.509Z" fill="#0197F6"/>
<path d="M671.183 479.968C671.19 479.971 671.136 480.095 671.023 480.334C670.898 480.59 670.728 480.939 670.51 481.385C670.05 482.305 669.347 483.65 668.384 485.351C666.473 488.761 663.504 493.579 659.617 499.385C657.672 502.286 655.496 505.434 653.11 508.779C650.747 512.142 647.998 515.569 645.76 519.598C643.465 523.589 641.493 528.025 639.041 532.427C636.59 536.825 633.698 541.194 630.241 545.277C626.778 549.35 622.859 552.9 618.576 555.589C614.308 558.298 609.652 560.05 605.071 560.819C600.489 561.611 595.974 561.353 591.985 560.265C589.983 559.739 588.135 558.932 586.453 558.02C584.763 557.116 583.226 556.081 581.893 554.934C580.546 553.806 579.387 552.579 578.455 551.297C577.485 550.042 576.774 548.717 576.18 547.457C575.043 544.9 574.565 542.519 574.319 540.58C574.122 538.631 574.112 537.108 574.161 536.08C574.19 535.584 574.212 535.197 574.229 534.912C574.246 534.649 574.26 534.514 574.269 534.515C574.276 534.515 574.28 534.651 574.278 534.915C574.272 535.199 574.267 535.586 574.258 536.083C574.239 537.108 574.281 538.624 574.504 540.558C574.777 542.48 575.278 544.832 576.425 547.345C577.024 548.584 577.734 549.884 578.699 551.114C579.626 552.369 580.777 553.569 582.113 554.673C583.432 555.796 584.954 556.808 586.629 557.693C588.297 558.586 590.115 559.369 592.092 559.879C596.023 560.935 600.476 561.175 604.998 560.381C609.52 559.61 614.108 557.874 618.325 555.19C622.557 552.526 626.436 549.008 629.875 544.967C633.305 540.914 636.187 536.569 638.629 532.198C641.074 527.824 643.056 523.388 645.376 519.377C647.643 515.324 650.418 511.887 652.786 508.547C655.184 505.215 657.374 502.082 659.335 499.195C663.254 493.419 666.264 488.635 668.222 485.258C669.208 483.574 669.938 482.245 670.424 481.34C670.66 480.904 670.844 480.563 670.979 480.31C671.106 480.08 671.176 479.964 671.183 479.968Z" fill="#1A2E35"/>
<path d="M575.416 525.631C575.457 525.701 574.923 526.002 574.287 526.711C573.654 527.404 572.948 528.577 572.813 530.007C572.684 531.437 573.163 532.719 573.659 533.518C574.154 534.331 574.624 534.725 574.57 534.785C574.543 534.829 573.979 534.522 573.376 533.706C572.776 532.912 572.192 531.535 572.334 529.962C572.482 528.391 573.308 527.146 574.044 526.473C574.788 525.783 575.396 525.584 575.416 525.631Z" fill="#1A2E35"/>
<path d="M581.784 536.114C581.79 536.098 581.978 536.141 582.326 536.238C582.502 536.284 582.714 536.357 582.971 536.415C583.239 536.465 583.538 536.518 583.866 536.579C585.214 536.799 587.239 536.774 589.578 536.049C591.902 535.304 594.505 533.872 596.929 531.727C599.357 529.583 601.54 526.722 603.82 523.731C606.092 520.732 608.386 517.91 610.918 515.795C612.175 514.74 613.408 513.805 614.435 512.801C615.461 511.805 616.285 510.726 616.745 509.617C617.613 507.341 617.03 505.205 616.213 504.166C615.359 503.09 614.499 502.984 614.543 502.919C614.547 502.905 614.732 502.95 615.081 503.073C615.41 503.231 615.906 503.499 616.359 504.049C617.263 505.11 617.935 507.319 617.063 509.741C616.593 510.927 615.756 512.05 614.715 513.084C613.677 514.125 612.441 515.079 611.206 516.132C608.729 518.232 606.474 521.024 604.201 524.023C601.922 527.012 599.714 529.89 597.221 532.06C594.738 534.225 592.066 535.655 589.677 536.373C587.273 537.073 585.197 537.045 583.836 536.764C583.505 536.686 583.205 536.617 582.935 536.554C582.679 536.479 582.469 536.391 582.297 536.331C581.955 536.203 581.778 536.129 581.784 536.114Z" fill="#1A2E35"/>
<path d="M646.358 432.022C646.371 432.033 646.237 432.225 645.97 432.58C645.671 432.968 645.278 433.48 644.787 434.119C643.734 435.432 642.283 437.392 640.517 439.83C637.017 444.729 632.524 451.744 628.195 459.851C623.84 467.947 620.232 475.457 617.472 480.817C616.1 483.503 614.972 485.667 614.159 487.143C613.769 487.848 613.457 488.413 613.218 488.842C612.999 489.228 612.877 489.427 612.862 489.419C612.847 489.411 612.94 489.197 613.132 488.797C613.35 488.357 613.636 487.779 613.994 487.056C614.767 485.5 615.846 483.328 617.168 480.665C619.848 475.268 623.407 467.734 627.772 459.623C632.109 451.5 636.663 444.489 640.241 439.631C642.047 437.213 643.542 435.281 644.641 434.001C645.161 433.386 645.578 432.893 645.895 432.518C646.186 432.183 646.345 432.011 646.358 432.022Z" fill="#1A2E35"/>
<g opacity="0.300003">
<g opacity="0.300003">
<path opacity="0.300003" d="M574.268 534.515C578.772 536.957 583.717 536.697 588.745 535.71C593.772 534.723 598.427 531.937 601.675 527.973C600.801 532.363 598.921 536.653 595.718 539.78C592.515 542.907 587.879 544.727 583.478 543.92C579.074 543.114 574.632 538.975 574.268 534.515Z" fill="black"/>
</g>
</g>
<g opacity="0.300003">
<g opacity="0.300003">
<path opacity="0.300003" d="M616.863 507.854C619.695 512.193 620.707 517.682 619.607 522.746C623.422 516.905 624.317 509.51 623.291 502.609C622.264 495.708 619.462 489.201 616.339 482.962C616.339 482.962 612.893 488.777 612.862 489.419C612.695 492.777 613.931 499.1 614.58 502.4C616.315 504.034 617.135 506.582 616.68 508.922" fill="black"/>
</g>
</g>
<g opacity="0.300003">
<g opacity="0.300003">
<path opacity="0.300003" d="M589.535 558.685C598.717 565.842 612.342 566.179 622.387 560.298C632.062 554.635 638.018 544.439 643.547 534.686C652.106 519.589 662.549 500.921 668.663 484.679C668.663 484.679 651.523 508.065 646.358 518.144C642.46 525.75 639.469 530.761 634.67 537.832C625.023 552.037 607.557 560.545 590.426 559.383" fill="black"/>
</g>
</g>
<path d="M571.109 576.628C571.099 576.627 571.094 576.529 571.095 576.339C571.098 576.112 571.104 575.836 571.11 575.495C571.138 574.711 571.177 573.639 571.226 572.295C571.355 569.484 571.535 565.543 571.752 560.802L571.761 560.868C570.101 555.326 568.16 548.604 566.153 541.342C563.49 531.717 561.243 522.958 559.733 516.591C558.978 513.406 558.389 510.824 558.021 509.033C557.846 508.171 557.706 507.483 557.6 506.968C557.509 506.495 557.469 506.244 557.486 506.241C557.501 506.238 557.574 506.48 557.694 506.946C557.822 507.457 557.991 508.137 558.203 508.991C558.654 510.815 559.286 513.371 560.062 516.51C561.658 522.852 563.955 531.592 566.617 541.214C568.623 548.473 570.534 555.203 572.142 560.754L572.153 560.79L572.151 560.821C571.863 565.56 571.625 569.497 571.454 572.307C571.36 573.648 571.284 574.719 571.23 575.503C571.2 575.841 571.175 576.117 571.156 576.342C571.135 576.532 571.121 576.628 571.109 576.628Z" fill="#1A2E35"/>
<path d="M668.705 430.127C668.678 430.201 667.708 429.857 666.106 429.46C664.504 429.06 662.252 428.658 659.738 428.579C657.222 428.507 654.95 428.774 653.328 429.077C651.705 429.377 650.715 429.663 650.692 429.588C650.682 429.557 650.919 429.453 651.359 429.295C651.796 429.131 652.445 428.939 653.258 428.744C654.882 428.352 657.192 428.026 659.753 428.099C662.311 428.178 664.597 428.643 666.194 429.132C666.993 429.375 667.631 429.605 668.058 429.795C668.487 429.98 668.718 430.096 668.705 430.127Z" fill="#1A2E35"/>
<path d="M637.804 413.093C637.819 413.103 637.734 413.267 637.558 413.573C637.352 413.921 637.092 414.359 636.772 414.897C636.079 416.041 635.049 417.68 633.747 419.687C631.132 423.692 627.394 429.148 622.971 434.957C619.413 439.639 615.966 443.84 613.143 447.132L612.945 447.364L612.819 447.089C611.479 444.147 610.368 441.711 609.563 439.944C609.203 439.128 608.913 438.467 608.689 437.958C608.495 437.499 608.4 437.251 608.418 437.244C608.436 437.236 608.566 437.466 608.794 437.908C609.042 438.406 609.364 439.052 609.761 439.85C610.605 441.599 611.766 444.012 613.171 446.925L612.847 446.881C615.622 443.556 619.036 439.34 622.588 434.666C627.004 428.866 630.779 423.451 633.464 419.499C634.767 417.554 635.834 415.961 636.614 414.797C636.965 414.279 637.249 413.856 637.476 413.521C637.678 413.232 637.791 413.084 637.804 413.093Z" fill="#1A2E35"/>
<path d="M660.262 562.069C660.129 562.054 660.553 557.259 661.207 551.359C661.861 545.458 662.499 540.686 662.631 540.701C662.763 540.715 662.34 545.51 661.686 551.412C661.032 557.312 660.394 562.084 660.262 562.069Z" fill="#1A2E35"/>
<path d="M593.393 560.812C593.525 560.798 594.019 564.402 594.494 568.861C594.969 573.321 595.248 576.948 595.116 576.961C594.984 576.976 594.491 573.373 594.016 568.912C593.539 564.453 593.261 560.826 593.393 560.812Z" fill="#1A2E35"/>
<path d="M642.739 455.289C642.618 454.525 641.561 454.105 640.948 454.576L640.885 454.628C640.309 455.144 640.527 456.261 641.257 456.52C641.985 456.779 642.861 456.052 642.739 455.289Z" fill="white"/>
<path d="M633.106 431.808C632.984 431.044 631.927 430.624 631.314 431.096L631.252 431.148C630.675 431.663 630.894 432.78 631.623 433.039C632.352 433.299 633.227 432.572 633.106 431.808Z" fill="white"/>
<path d="M610.997 450.715C610.876 449.951 609.819 449.532 609.206 450.003L609.144 450.055C608.567 450.57 608.786 451.687 609.515 451.947C610.244 452.205 611.119 451.478 610.997 450.715Z" fill="white"/>
<path d="M587.097 441.221C586.976 440.457 585.919 440.037 585.307 440.509L585.244 440.56C584.667 441.076 584.886 442.193 585.615 442.451C586.344 442.711 587.219 441.984 587.097 441.221Z" fill="white"/>
<path d="M582.869 431.862C582.748 431.098 581.691 430.677 581.079 431.149L581.016 431.201C580.439 431.717 580.658 432.834 581.387 433.092C582.115 433.352 582.991 432.625 582.869 431.862Z" fill="white"/>
<path d="M584.706 421.047C584.584 420.283 583.527 419.863 582.915 420.335L582.852 420.387C582.276 420.902 582.494 422.019 583.224 422.278C583.952 422.538 584.827 421.811 584.706 421.047Z" fill="white"/>
<path d="M571.47 435.922C571.349 435.158 570.292 434.738 569.679 435.209L569.616 435.261C569.04 435.777 569.259 436.894 569.988 437.153C570.717 437.412 571.591 436.685 571.47 435.922Z" fill="white"/>
<path d="M602.13 440.211C602.008 439.448 600.951 439.028 600.339 439.5L600.276 439.551C599.7 440.067 599.918 441.184 600.647 441.443C601.376 441.702 602.251 440.975 602.13 440.211Z" fill="white"/>
<path d="M576.172 459.489C576.051 458.725 574.994 458.306 574.382 458.777L574.319 458.829C573.742 459.344 573.96 460.461 574.69 460.721C575.418 460.98 576.294 460.252 576.172 459.489Z" fill="white"/>
<path d="M552.411 514.942C552.289 514.179 551.232 513.759 550.621 514.231L550.558 514.283C549.981 514.798 550.2 515.915 550.929 516.174C551.657 516.434 552.532 515.706 552.411 514.942Z" fill="white"/>
<path d="M560.889 482.961C560.768 482.197 559.711 481.778 559.098 482.249L559.036 482.301C558.459 482.816 558.677 483.933 559.407 484.192C560.135 484.452 561.011 483.724 560.889 482.961Z" fill="white"/>
<path d="M623.38 426.801C623.258 426.038 622.201 425.617 621.589 426.09L621.527 426.141C620.95 426.657 621.168 427.774 621.897 428.033C622.626 428.292 623.501 427.565 623.38 426.801Z" fill="white"/>
<path d="M653.204 490.484C653.082 489.721 652.025 489.301 651.413 489.773L651.351 489.825C650.773 490.34 650.992 491.457 651.721 491.716C652.45 491.976 653.325 491.248 653.204 490.484Z" fill="white"/>
<path d="M664.825 435.681C664.703 434.917 663.646 434.497 663.033 434.969L662.972 435.021C662.394 435.537 662.613 436.653 663.342 436.913C664.071 437.171 664.946 436.444 664.825 435.681Z" fill="white"/>
<path d="M660.262 471.57C660.14 470.806 659.083 470.387 658.471 470.858L658.409 470.911C657.831 471.426 658.05 472.542 658.779 472.802C659.508 473.061 660.383 472.334 660.262 471.57Z" fill="white"/>
<path d="M634.202 497.485C634.081 496.721 633.024 496.301 632.411 496.773L632.349 496.825C631.772 497.341 631.99 498.457 632.72 498.716C633.448 498.975 634.324 498.249 634.202 497.485Z" fill="white"/>
<path d="M635.299 475.913C635.177 475.149 634.12 474.729 633.508 475.201L633.446 475.252C632.868 475.768 633.087 476.885 633.816 477.144C634.545 477.403 635.42 476.676 635.299 475.913Z" fill="white"/>
<path d="M651.021 435.868C650.9 435.105 649.843 434.684 649.231 435.156L649.168 435.208C648.592 435.724 648.811 436.841 649.539 437.099C650.268 437.359 651.143 436.632 651.021 435.868Z" fill="white"/>
<path d="M629.856 414.967C629.735 414.203 628.678 413.783 628.065 414.255L628.002 414.306C627.426 414.822 627.645 415.939 628.374 416.198C629.103 416.457 629.978 415.73 629.856 414.967Z" fill="white"/>
<path d="M629.088 448.66C628.967 447.897 627.91 447.476 627.297 447.948L627.234 448C626.658 448.516 626.877 449.632 627.606 449.891C628.334 450.151 629.21 449.424 629.088 448.66Z" fill="white"/>
<path d="M602.067 551.444C601.946 550.68 600.888 550.26 600.277 550.732L600.214 550.784C599.637 551.299 599.856 552.416 600.585 552.675C601.313 552.935 602.188 552.208 602.067 551.444Z" fill="white"/>
<path d="M571.073 534.542C570.952 533.779 569.894 533.358 569.282 533.83L569.219 533.882C568.643 534.398 568.861 535.514 569.591 535.773C570.319 536.032 571.194 535.306 571.073 534.542Z" fill="white"/>
<path d="M546.011 542.826C545.889 542.062 544.832 541.643 544.219 542.114L544.158 542.166C543.58 542.681 543.799 543.798 544.528 544.057C545.257 544.317 546.132 543.589 546.011 542.826Z" fill="white"/>
<path d="M543.329 557.1C543.207 556.337 542.15 555.916 541.538 556.388L541.475 556.44C540.899 556.956 541.117 558.072 541.847 558.331C542.575 558.59 543.45 557.864 543.329 557.1Z" fill="white"/>
<path d="M566.826 561.882C566.704 561.118 565.647 560.698 565.034 561.169L564.972 561.222C564.395 561.737 564.614 562.854 565.343 563.113C566.072 563.372 566.947 562.646 566.826 561.882Z" fill="white"/>
<path d="M558.968 529.916C558.847 529.152 557.79 528.733 557.177 529.204L557.115 529.256C556.538 529.772 556.757 530.888 557.486 531.148C558.215 531.406 559.09 530.68 558.968 529.916Z" fill="white"/>
<path d="M587.797 538.039C587.675 537.275 586.619 536.855 586.006 537.327L585.944 537.378C585.367 537.894 585.586 539.011 586.315 539.27C587.044 539.529 587.918 538.802 587.797 538.039Z" fill="white"/>
<path d="M656.326 529.863C656.204 529.099 655.147 528.679 654.535 529.151L654.473 529.202C653.896 529.718 654.114 530.835 654.844 531.094C655.572 531.353 656.447 530.626 656.326 529.863Z" fill="white"/>
<path d="M613.924 570.493C613.803 569.729 612.746 569.309 612.133 569.78L612.07 569.832C611.494 570.348 611.713 571.465 612.442 571.723C613.171 571.983 614.046 571.256 613.924 570.493Z" fill="white"/>
<path d="M632.008 547.875C631.887 547.112 630.831 546.692 630.218 547.164L630.155 547.216C629.579 547.731 629.797 548.847 630.527 549.107C631.255 549.366 632.13 548.639 632.008 547.875Z" fill="white"/>
<path d="M642.751 566.269C642.629 565.506 641.572 565.086 640.959 565.558L640.897 565.61C640.32 566.125 640.539 567.242 641.268 567.501C641.997 567.76 642.872 567.033 642.751 566.269Z" fill="white"/>
<path d="M612.862 469.942C612.74 469.179 611.683 468.758 611.071 469.231L611.008 469.282C610.432 469.798 610.65 470.914 611.38 471.173C612.108 471.432 612.983 470.706 612.862 469.942Z" fill="white"/>
<path d="M637.183 516.9C637.062 516.136 636.005 515.717 635.392 516.188L635.329 516.24C634.753 516.755 634.971 517.872 635.701 518.132C636.429 518.39 637.304 517.663 637.183 516.9Z" fill="white"/>
<path d="M629.295 534.687C629.174 533.924 628.117 533.503 627.505 533.976L627.442 534.027C626.865 534.543 627.084 535.66 627.813 535.919C628.542 536.178 629.417 535.451 629.295 534.687Z" fill="white"/>
<path d="M655.229 548.973C655.108 548.209 654.051 547.79 653.438 548.261L653.375 548.313C652.799 548.829 653.018 549.945 653.747 550.205C654.476 550.463 655.351 549.737 655.229 548.973Z" fill="white"/>
<path d="M584.266 569.598C584.145 568.834 583.088 568.415 582.476 568.886L582.413 568.938C581.836 569.453 582.055 570.57 582.784 570.83C583.512 571.089 584.388 570.362 584.266 569.598Z" fill="white"/>
<path d="M525.134 564.202C525.013 563.439 523.956 563.019 523.343 563.491L523.28 563.542C522.704 564.058 522.923 565.175 523.652 565.434C524.381 565.693 525.256 564.966 525.134 564.202Z" fill="white"/>
<path d="M577.207 554.49C577.086 553.727 576.029 553.307 575.416 553.779L575.354 553.831C574.777 554.346 574.996 555.462 575.725 555.722C576.453 555.981 577.329 555.255 577.207 554.49Z" fill="white"/>
<path d="M527.327 543.924C527.206 543.16 526.149 542.74 525.537 543.212L525.474 543.264C524.897 543.779 525.116 544.896 525.845 545.155C526.574 545.415 527.449 544.688 527.327 543.924Z" fill="white"/>
<path d="M610.669 510.39C610.547 509.626 609.49 509.206 608.878 509.677L608.815 509.729C608.239 510.245 608.457 511.362 609.187 511.621C609.915 511.88 610.79 511.153 610.669 510.39Z" fill="white"/>
<path d="M593.227 459.489C593.105 458.725 592.048 458.306 591.436 458.777L591.374 458.829C590.796 459.344 591.015 460.461 591.744 460.721C592.473 460.98 593.348 460.252 593.227 459.489Z" fill="white"/>
<path d="M588.869 503.63C588.748 502.867 587.691 502.447 587.079 502.919L587.016 502.97C586.439 503.486 586.658 504.602 587.387 504.862C588.115 505.12 588.991 504.394 588.869 503.63Z" fill="white"/>
<path d="M581.773 489.232C581.651 488.468 580.594 488.048 579.983 488.52L579.92 488.572C579.343 489.088 579.561 490.204 580.291 490.464C581.019 490.722 581.894 489.996 581.773 489.232Z" fill="white"/>
<path d="M613.154 534.488C613.033 533.724 611.976 533.305 611.364 533.776L611.301 533.828C610.724 534.343 610.943 535.46 611.672 535.719C612.401 535.979 613.276 535.252 613.154 534.488Z" fill="white"/>
<path d="M591.034 525.608C590.912 524.845 589.855 524.424 589.243 524.896L589.18 524.948C588.604 525.464 588.822 526.581 589.552 526.839C590.28 527.099 591.155 526.372 591.034 525.608Z" fill="white"/>
<path d="M600.503 476.868C600.382 476.105 599.325 475.684 598.712 476.156L598.65 476.208C598.073 476.724 598.291 477.841 599.021 478.099C599.749 478.359 600.625 477.632 600.503 476.868Z" fill="white"/>
<path d="M566.826 511.38C566.704 510.616 565.647 510.197 565.034 510.668L564.972 510.72C564.395 511.235 564.614 512.352 565.343 512.611C566.072 512.871 566.947 512.143 566.826 511.38Z" fill="white"/>
<path d="M618.807 495.539C618.686 494.775 617.628 494.356 617.016 494.827L616.953 494.879C616.377 495.394 616.595 496.511 617.325 496.771C618.053 497.03 618.928 496.303 618.807 495.539Z" fill="white"/>
<path d="M667.018 454.19C666.896 453.427 665.839 453.007 665.227 453.479L665.165 453.531C664.587 454.046 664.806 455.162 665.535 455.422C666.264 455.682 667.139 454.954 667.018 454.19Z" fill="white"/>
<path d="M647.443 422.88C647.321 422.117 646.264 421.696 645.653 422.168L645.59 422.22C645.013 422.736 645.231 423.853 645.961 424.111C646.689 424.371 647.564 423.644 647.443 422.88Z" fill="white"/>
<path d="M609.504 426.801C609.382 426.038 608.325 425.617 607.712 426.09L607.65 426.141C607.073 426.657 607.292 427.774 608.021 428.033C608.75 428.292 609.625 427.565 609.504 426.801Z" fill="white"/>
<path d="M570.806 314.412C563.53 319.042 560.625 328.745 562.013 334.479C562.712 337.37 564.024 340.277 563.451 343.195C562.957 345.716 561.144 347.733 559.787 349.915C555.263 357.194 556.064 367.378 561.671 373.859C567.279 380.339 577.242 382.596 585.095 379.165" fill="#1A2E35"/>
<path d="M566.501 352.28C548.799 313.346 590.905 293.787 613.88 300.276C635.473 306.374 644.682 317.12 648.235 331.562C651.79 346.01 651.62 361.657 645.958 375.417C643.165 382.202 638.137 389.096 630.849 389.943" fill="#1A2E35"/>
<path d="M587.24 447.361C586.935 428.759 586.719 403.206 586.712 403.312C586.712 403.312 570.722 400.657 567.409 379.796C565.762 369.421 566.283 352.41 567.16 338.506C567.948 325.991 576.241 310.634 588.711 311.954L627.65 321.796C631.439 322.196 634.291 325.429 634.216 329.238L631.679 409.782" fill="white"/>
<path d="M574.121 351.245C574.056 352.65 575.189 353.863 576.655 353.959C578.116 354.055 579.358 352.997 579.424 351.593C579.49 350.189 578.355 348.974 576.894 348.878C575.429 348.782 574.188 349.842 574.121 351.245Z" fill="#1A2E35"/>
<path d="M601.764 351.245C601.699 352.65 602.832 353.863 604.298 353.959C605.759 354.055 607.001 352.997 607.066 351.593C607.133 350.189 605.999 348.974 604.537 348.878C603.072 348.782 601.831 349.842 601.764 351.245Z" fill="#1A2E35"/>
<path d="M571.242 346.385C571.562 346.745 573.638 345.312 576.515 345.417C579.39 345.479 581.453 347.029 581.777 346.687C581.935 346.537 581.618 345.895 580.721 345.195C579.839 344.498 578.316 343.799 576.523 343.746C574.73 343.696 573.201 344.306 572.312 344.953C571.405 345.602 571.083 346.223 571.242 346.385Z" fill="#1A2E35"/>
<path d="M598.565 347.073C598.899 347.42 600.922 345.911 603.799 345.907C606.674 345.859 608.793 347.331 609.105 346.977C609.257 346.82 608.92 346.192 607.993 345.527C607.085 344.864 605.538 344.222 603.744 344.237C601.951 344.255 600.445 344.922 599.581 345.602C598.701 346.284 598.402 346.917 598.565 347.073Z" fill="#1A2E35"/>
<path d="M588.701 369.243C588.715 369.079 586.924 368.77 584.024 368.399C583.289 368.323 582.594 368.178 582.47 367.676C582.296 367.144 582.604 366.352 582.96 365.497C583.652 363.718 584.375 361.853 585.135 359.899C588.154 351.928 590.339 345.374 590.017 345.256C589.696 345.137 586.987 351.5 583.968 359.471C583.241 361.437 582.546 363.311 581.885 365.103C581.606 365.938 581.128 366.886 581.503 367.988C581.701 368.537 582.242 368.936 582.713 369.063C583.183 369.207 583.598 369.214 583.961 369.237C586.879 369.394 588.69 369.407 588.701 369.243Z" fill="#1A2E35"/>
<path d="M586.712 403.312C586.712 403.312 600.746 404.216 614.651 395.86C614.651 395.86 607.592 410.373 586.712 408.421V403.312Z" fill="#E1E1E1"/>
<path d="M597.854 342.979C598.138 343.761 601.013 343.39 604.39 343.797C607.777 344.137 610.5 345.126 610.948 344.424C611.149 344.087 610.673 343.351 609.573 342.594C608.481 341.837 606.738 341.118 604.711 340.892C602.684 340.67 600.826 340.992 599.596 341.492C598.356 341.992 597.732 342.607 597.854 342.979Z" fill="#1A2E35"/>
<path d="M571.907 339.15C572.414 339.804 574.398 339.126 576.783 339.093C579.166 338.978 581.187 339.533 581.652 338.848C581.857 338.516 581.538 337.862 580.656 337.243C579.785 336.625 578.331 336.122 576.692 336.171C575.053 336.223 573.634 336.816 572.804 337.486C571.962 338.157 571.685 338.831 571.907 339.15Z" fill="#1A2E35"/>
<path d="M630.638 356.702C630.943 356.554 641.804 351.751 641.933 364.241C642.059 376.73 629.493 374.282 629.467 373.924C629.442 373.566 630.638 356.702 630.638 356.702Z" fill="white"/>
<path d="M633.236 369.153C633.29 369.113 633.455 369.304 633.824 369.468C634.183 369.628 634.802 369.735 635.45 369.485C636.765 368.987 637.855 366.881 637.892 364.63C637.912 363.493 637.664 362.412 637.252 361.52C636.861 360.61 636.263 359.978 635.598 359.867C634.936 359.721 634.469 360.123 634.32 360.476C634.156 360.827 634.238 361.076 634.172 361.098C634.138 361.129 633.903 360.892 633.997 360.374C634.046 360.126 634.189 359.83 634.481 359.587C634.778 359.34 635.217 359.211 635.68 359.256C636.644 359.314 637.521 360.191 637.973 361.17C638.48 362.153 638.785 363.367 638.762 364.644C638.709 367.161 637.445 369.529 635.643 370.07C634.767 370.307 634.032 370.05 633.65 369.759C633.26 369.455 633.192 369.176 633.236 369.153Z" fill="#E1E1E1"/>
<path d="M584.552 305.793C577.603 309.383 574.743 323.6 577.618 330.874C580.493 338.148 588.241 341.701 595.882 343.374C603.522 345.049 611.013 345.246 618.548 343.151C619.072 348.218 622.11 353.42 627.027 354.757C633.535 356.527 640.096 350.566 641.545 343.979C642.993 337.39 640.822 330.605 638.678 324.21" fill="#1A2E35"/>
<path d="M639.66 351.114C639.69 351.153 639.348 351.477 638.698 352.024C638.045 352.568 637.087 353.345 635.817 354.197C634.546 355.039 632.941 355.975 630.96 356.547C629.007 357.113 626.613 357.318 624.332 356.45C622.056 355.585 620.377 353.861 619.315 352.113C618.24 350.344 617.758 348.527 617.518 347.014C617.284 345.492 617.286 344.248 617.321 343.396C617.362 342.544 617.438 342.077 617.485 342.08C617.622 342.077 617.473 343.978 618.02 346.925C618.316 348.384 618.834 350.112 619.881 351.762C620.914 353.4 622.505 354.986 624.589 355.775C626.671 356.571 628.907 356.412 630.783 355.906C632.675 355.398 634.258 354.54 635.543 353.767C638.094 352.171 639.587 351.011 639.66 351.114Z" fill="#1A2E35"/>
<path d="M589.552 377.265C589.971 378.327 590.401 379.406 591.104 380.306C591.806 381.207 592.835 381.92 593.975 381.974C595.191 382.032 596.363 381.312 597.042 380.301C597.721 379.291 597.952 378.031 597.896 376.815C597.847 375.715 597.345 374.402 596.251 374.273C595.796 374.219 595.348 374.395 594.924 374.568C593.01 375.344 591.095 376.12 589.181 376.897" fill="#E1E1E1"/>
<path d="M591.846 381.99C591.875 381.81 593.136 382.322 594.909 381.612C595.767 381.266 596.707 380.582 597.224 379.507C597.742 378.445 597.845 377.007 597.3 375.75C597.174 375.435 596.985 375.148 596.799 374.891C596.572 374.653 596.613 374.664 596.367 374.7C596.132 374.764 595.753 374.941 595.445 375.061C595.126 375.192 594.811 375.32 594.502 375.446C593.272 375.943 592.16 376.378 591.22 376.729C589.338 377.432 588.148 377.801 588.093 377.671C588.037 377.541 589.127 376.935 590.935 376.062C591.839 375.626 592.922 375.121 594.132 374.577C594.436 374.441 594.745 374.302 595.06 374.16C595.396 374.023 595.651 373.872 596.11 373.729C596.334 373.665 596.652 373.63 596.962 373.753C597.266 373.876 597.454 374.082 597.595 374.254C597.852 374.596 598.079 374.947 598.241 375.343C598.917 376.913 598.754 378.651 598.066 379.938C597.363 381.254 596.167 381.993 595.151 382.295C594.117 382.614 593.227 382.537 592.662 382.392C592.091 382.242 591.824 382.048 591.846 381.99Z" fill="#1A2E35"/>
<path d="M644.643 348.153C643.364 348.063 633.048 349.398 633.862 368.574C634.62 386.483 647.185 382.539 651.195 375.797C654.992 369.409 657.186 349.033 644.643 348.153Z" fill="#FF7A00"/>
<path d="M651.021 350.418C651.008 350.418 650.992 350.245 650.973 349.913C650.959 349.54 650.937 349.056 650.912 348.453C650.876 347.129 650.824 345.284 650.76 342.991C650.666 338.281 650.535 331.74 650.383 324.184L650.615 324.413C648.913 324.415 647.125 324.417 645.296 324.42L645.535 324.175C645.574 325.603 645.614 327.109 645.655 328.637C645.835 335.832 646 342.534 646.14 348.143L646.144 348.308L645.984 348.345C643.591 348.906 641.699 350.298 640.507 351.872C639.292 353.449 638.687 355.123 638.318 356.499C637.95 357.884 637.825 359.01 637.755 359.773C637.721 360.156 637.703 360.449 637.692 360.648C637.68 360.847 637.674 360.948 637.663 360.949C637.653 360.949 637.638 360.848 637.63 360.648C637.619 360.448 637.618 360.152 637.632 359.766C637.665 358.994 637.752 357.854 638.092 356.442C638.433 355.038 639.014 353.32 640.244 351.674C641.449 350.031 643.413 348.552 645.89 347.953L645.735 348.154C645.574 342.545 645.382 335.845 645.175 328.65C645.135 327.122 645.096 325.615 645.058 324.187L645.051 323.942H645.296C647.125 323.945 648.913 323.948 650.615 323.95H650.843L650.846 324.178C650.928 331.734 651.001 338.276 651.053 342.987C651.06 345.281 651.066 347.126 651.07 348.451C651.064 349.054 651.058 349.538 651.054 349.912C651.046 350.245 651.036 350.418 651.021 350.418Z" fill="#FF7A00"/>
<path d="M644.642 324.181C644.642 324.181 639.248 311.555 626.393 305.326C620.166 302.308 615.507 300.751 610.992 299.616C610.992 299.616 618.493 297.835 630.629 303.235C636.143 305.688 641.698 308.883 645.373 313.671C647.705 316.713 650.619 322.657 650.615 324.181H644.642Z" fill="#FF7A00"/>
<path d="M611.363 477.055C611.359 477.05 611.436 476.964 611.593 476.803C611.747 476.638 611.993 476.408 612.291 476.084C612.898 475.445 613.767 474.47 614.785 473.125C615.806 471.782 616.951 470.052 618.155 467.953C619.36 465.856 620.611 463.385 621.972 460.624C624.697 455.101 627.851 448.406 631.114 440.736C632.748 436.902 634.411 432.827 636.067 428.536C636.477 427.462 636.891 426.376 637.309 425.28C637.724 424.182 638.15 423.053 638.793 422.005C639.427 420.955 640.345 420.027 641.477 419.455C642.038 419.166 642.668 418.946 643.356 418.977C643.699 419.005 644.049 419.118 644.336 419.333C644.634 419.546 644.811 419.858 644.96 420.163L644.991 420.225L644.975 420.297C644.882 420.719 644.75 421.151 644.479 421.529C644.213 421.909 643.78 422.188 643.326 422.285C642.404 422.472 641.525 422.179 640.748 421.812C639.079 421.116 638.089 419.138 638.466 417.335C638.639 416.428 639.205 415.601 639.965 415.079C640.724 414.553 641.656 414.277 642.591 414.331C643.505 414.389 644.506 414.762 645.015 415.668C645.277 416.11 645.248 416.763 644.919 417.174C644.612 417.593 644.19 417.843 643.749 418.029C642.187 418.649 640.31 418.103 639.321 416.774C638.826 416.11 638.619 415.247 638.721 414.444C638.807 413.636 639.155 412.873 639.681 412.268C640.208 411.661 640.941 411.219 641.761 411.117C642.566 411.037 643.425 411.261 644.008 411.889C644.3 412.198 644.463 412.636 644.451 413.069C644.447 413.51 644.224 413.929 643.917 414.208C643.3 414.77 642.451 414.971 641.658 414.817C640.833 414.642 640.243 414.023 639.86 413.37C639.478 412.702 639.289 411.965 639.183 411.239C638.999 409.797 639.018 408.278 639.674 406.93C640.025 406.278 640.512 405.67 641.249 405.373C641.968 405.087 642.761 405.162 643.443 405.443C644.104 405.732 644.762 406.331 644.797 407.154C644.855 407.954 644.293 408.668 643.624 408.958C642.963 409.274 642.15 409.288 641.498 408.928C640.851 408.579 640.411 407.959 640.185 407.305C639.941 406.658 639.957 405.908 640.06 405.284C640.143 404.636 640.262 403.989 640.487 403.366C640.702 402.75 641.077 402.137 641.606 401.734C642.123 401.323 642.709 401.023 643.347 400.869C643.656 400.804 644.013 400.74 644.365 400.857C644.699 400.968 644.977 401.166 645.21 401.396C645.441 401.63 645.63 401.903 645.754 402.215C645.879 402.518 645.926 402.901 645.785 403.236C645.513 403.937 644.732 404.165 644.133 404.151C643.499 404.159 642.891 403.906 642.398 403.568C641.407 402.866 640.768 401.78 640.543 400.66C640.294 399.543 640.422 398.356 640.931 397.37C641.197 396.886 641.521 396.431 641.968 396.099C642.408 395.767 642.918 395.559 643.446 395.463C643.97 395.38 644.536 395.413 645.017 395.685C645.489 395.952 645.838 396.451 645.865 396.995C645.902 398.092 645.052 398.954 644.124 399.211C643.131 399.473 642.178 398.936 641.612 398.268C641.024 397.585 640.72 396.732 640.664 395.904C640.585 394.221 641.248 392.807 641.568 391.48C641.945 390.151 642.289 388.937 642.599 387.842C643.218 385.676 643.704 383.986 644.038 382.816C644.203 382.258 644.332 381.825 644.424 381.512C644.514 381.219 644.571 381.072 644.571 381.072C644.571 381.072 644.545 381.228 644.471 381.526C644.39 381.842 644.277 382.279 644.131 382.842C643.816 384.018 643.362 385.717 642.779 387.893C642.481 388.991 642.15 390.209 641.79 391.54C641.475 392.88 640.839 394.303 640.933 395.884C640.99 396.657 641.284 397.456 641.83 398.078C642.348 398.692 643.223 399.148 644.044 398.915C644.845 398.7 645.593 397.894 645.542 397.019C645.522 396.592 645.237 396.188 644.855 395.974C644.464 395.754 643.972 395.721 643.502 395.799C643.032 395.887 642.567 396.078 642.179 396.377C641.789 396.667 641.486 397.093 641.248 397.533C640.786 398.437 640.669 399.542 640.906 400.582C641.119 401.625 641.719 402.621 642.616 403.25C643.073 403.557 643.582 403.765 644.135 403.758C644.667 403.768 645.246 403.561 645.414 403.091C645.602 402.644 645.302 402.067 644.923 401.683C644.725 401.488 644.49 401.329 644.242 401.247C644.007 401.164 643.727 401.209 643.441 401.27C642.313 401.561 641.24 402.329 640.884 403.51C640.678 404.086 640.564 404.707 640.485 405.337C640.385 405.982 640.38 406.573 640.595 407.163C640.794 407.737 641.177 408.26 641.708 408.542C642.222 408.828 642.89 408.821 643.436 408.557C643.988 408.311 644.394 407.768 644.349 407.177C644.333 406.59 643.832 406.108 643.263 405.858C642.684 405.619 641.994 405.56 641.417 405.797C640.847 406.017 640.382 406.565 640.084 407.137C639.496 408.339 639.462 409.796 639.644 411.172C639.746 411.861 639.926 412.546 640.266 413.136C640.601 413.714 641.127 414.231 641.755 414.356C642.387 414.484 643.121 414.302 643.591 413.864C644.09 413.444 644.094 412.673 643.654 412.207C643.222 411.73 642.48 411.516 641.813 411.592C641.142 411.674 640.499 412.05 640.041 412.583C639.11 413.629 638.84 415.344 639.709 416.49C640.543 417.634 642.239 418.125 643.567 417.585C643.942 417.429 644.311 417.198 644.528 416.894C644.754 416.593 644.769 416.222 644.59 415.892C644.219 415.21 643.367 414.855 642.563 414.811C640.925 414.697 639.219 415.824 638.934 417.43C638.607 419.016 639.464 420.771 640.953 421.385C641.677 421.735 642.493 421.98 643.219 421.825C643.968 421.69 644.375 420.964 644.515 420.211L644.529 420.344C644.314 419.821 643.874 419.472 643.325 419.442C642.776 419.416 642.204 419.6 641.688 419.868C640.638 420.4 639.787 421.25 639.182 422.246C638.568 423.241 638.146 424.344 637.731 425.44C637.309 426.535 636.893 427.622 636.48 428.696C634.813 432.988 633.135 437.064 631.486 440.896C628.195 448.563 625.006 455.248 622.24 460.757C620.86 463.512 619.587 465.978 618.357 468.071C617.129 470.166 615.96 471.891 614.914 473.224C612.821 475.897 611.363 477.055 611.363 477.055Z" fill="white"/>
<path d="M655.839 339.16C655.756 339.178 655.878 337.852 654.999 335.744C654.145 333.675 652.047 330.866 648.366 329.101C646.54 328.239 644.352 327.694 641.975 327.538C639.595 327.382 637.034 327.61 634.392 328.117C629.096 329.091 623.535 331.378 617.307 332.315C614.187 332.725 611.096 332.705 608.159 332.306C605.219 331.893 602.468 331.06 599.935 330.076C594.899 327.997 590.839 325.097 587.961 322.167C585.069 319.246 583.2 316.449 582.16 314.407C581.866 313.915 581.649 313.454 581.48 313.046C581.307 312.651 581.158 312.311 581.031 312.024C580.923 311.768 580.835 311.56 580.764 311.392C580.708 311.249 580.681 311.174 580.689 311.171C580.697 311.167 580.738 311.237 580.811 311.373C580.893 311.536 580.994 311.736 581.12 311.984C581.257 312.266 581.419 312.597 581.608 312.984C581.791 313.383 582.019 313.835 582.325 314.318C583.408 316.32 585.305 319.063 588.201 321.925C591.08 324.797 595.117 327.634 600.101 329.665C602.607 330.625 605.325 331.439 608.224 331.839C611.123 332.226 614.166 332.241 617.239 331.839C623.383 330.917 628.953 328.645 634.31 327.681C636.979 327.181 639.579 326.964 642.001 327.14C644.422 327.317 646.65 327.891 648.515 328.795C652.258 330.64 654.357 333.544 655.172 335.673C655.614 336.744 655.729 337.643 655.815 338.238C655.827 338.517 655.837 338.743 655.846 338.927C655.85 339.081 655.848 339.16 655.839 339.16Z" fill="#FF7A00"/>
<path d="M641.896 319.25C641.898 319.267 641.67 319.307 641.234 319.368C640.799 319.427 640.156 319.522 639.334 319.665C637.686 319.94 635.328 320.463 632.426 321.186C629.528 321.905 626.052 322.776 622.095 323.187C618.147 323.606 613.747 323.57 609.211 322.907C604.672 322.25 600.446 321.04 596.764 319.56C593.081 318.076 589.925 316.361 587.421 314.709C586.18 313.868 585.066 313.09 584.132 312.353C583.214 311.592 582.391 310.979 581.784 310.4C581.202 309.853 580.734 309.414 580.378 309.079C580.06 308.773 579.9 308.607 579.911 308.595C579.923 308.583 580.106 308.725 580.444 309.008C580.814 309.325 581.299 309.741 581.906 310.259C582.529 310.813 583.366 311.403 584.294 312.139C585.24 312.851 586.361 313.605 587.605 314.423C592.608 317.623 600.248 321.149 609.28 322.431C613.775 323.088 618.134 323.137 622.051 322.746C625.972 322.363 629.436 321.532 632.348 320.855C635.261 320.174 637.643 319.697 639.305 319.48C640.135 319.365 640.783 319.299 641.223 319.272C641.663 319.241 641.895 319.234 641.896 319.25Z" fill="#FF7A00"/>
<path d="M643.271 381.153C643.265 381.168 643.141 381.131 642.909 381.047C642.681 380.955 642.347 380.806 641.951 380.551C641.158 380.056 640.102 379.129 639.248 377.668C638.381 376.213 637.807 374.245 637.589 372.044C637.376 369.841 637.375 367.414 637.58 364.878C637.794 362.342 638.222 359.947 638.767 357.812C639.304 355.683 639.947 353.769 640.829 352.327C641.699 350.877 642.75 349.946 643.549 349.459C643.948 349.211 644.282 349.06 644.513 348.972C644.744 348.888 644.87 348.858 644.875 348.873C644.894 348.913 644.403 349.086 643.653 349.614C642.905 350.136 641.928 351.073 641.123 352.499C640.305 353.918 639.707 355.798 639.198 357.919C638.681 360.039 638.271 362.409 638.059 364.918C637.857 367.424 637.844 369.836 638.03 372.001C638.22 374.162 638.746 376.075 639.543 377.499C640.332 378.934 641.315 379.867 642.056 380.396C642.799 380.936 643.291 381.108 643.271 381.153Z" fill="#1A2E35"/>
<path d="M602.805 383.807L593.33 385.667C591.902 385.947 590.517 385.016 590.237 383.588L590.167 383.24C589.888 381.811 590.818 380.426 592.246 380.147L601.722 378.287C603.15 378.007 604.535 378.937 604.816 380.365L604.884 380.714C605.164 382.142 604.234 383.527 602.805 383.807Z" fill="#FF7A00"/>
<path d="M603.531 379.709L647.366 365.957C648.451 365.617 649.607 366.217 649.953 367.299C650.313 368.421 649.663 369.618 648.524 369.925L603.699 382.036L603.531 379.709Z" fill="#FF7A00"/>
<path d="M635.931 373.664C635.922 373.632 636.44 373.452 637.383 373.153C638.409 372.841 639.76 372.43 641.391 371.932C643.072 371.413 645.138 370.866 647.322 370.149C647.849 369.946 648.362 369.67 648.758 369.266C649.139 368.872 649.385 368.303 649.375 367.741C649.374 367.178 649.016 366.671 648.469 366.486C647.921 366.303 647.265 366.384 646.637 366.542C641.541 368.181 636.932 369.664 633.494 370.77C631.864 371.274 630.515 371.69 629.491 372.007C628.543 372.289 628.014 372.43 628.002 372.398C627.992 372.366 628.502 372.165 629.433 371.828C630.444 371.476 631.778 371.009 633.388 370.447C636.744 369.307 641.345 367.731 646.518 366.075C647.188 365.912 647.914 365.8 648.628 366.035C649.348 366.265 649.86 367.007 649.846 367.73C649.851 368.446 649.553 369.105 649.085 369.588C648.617 370.058 648.041 370.353 647.481 370.564C645.215 371.281 643.194 371.777 641.485 372.26C639.836 372.697 638.47 373.059 637.435 373.333C636.476 373.576 635.941 373.696 635.931 373.664Z" fill="#1A2E35"/>
<path d="M564.253 340.088C565.754 345.356 560.399 349.873 558.514 355.017C556.691 359.99 558.243 365.562 560.488 370.36C562.732 375.158 565.685 379.71 566.834 384.88C569.666 397.63 558.14 411.365 560.335 424.239C561.135 428.928 563.023 433.823 564.66 438.289C566.299 442.755 566.183 446.84 564.66 451.345C562.169 458.72 557.938 462.197 554.96 469.387C553.436 473.064 553.556 477.182 553.633 481.162C553.71 485.141 553.681 489.291 551.911 492.854C550.141 496.419 546.087 499.175 542.243 498.142C546.265 502.871 553.692 504.285 559.172 501.364C564.227 498.669 567.055 493.195 569.473 488.003C581.191 462.862 587.388 460.74 587.066 433.004C587.046 431.218 586.712 403.44 586.712 403.44C586.712 403.44 582.325 402.27 579.795 400.525C566.708 391.493 566.232 375.395 566.336 362.92" fill="#1A2E35"/>
<path d="M590.44 424.239V434.705C590.44 434.705 582.388 475.769 579.973 498.582C577.558 521.394 577.149 527.413 577.149 527.413C577.149 527.413 582.925 536.424 595.002 521.126C607.081 505.829 609.228 503.412 614.058 503.144C614.058 503.144 608.154 439.001 608.422 436.585C608.691 434.17 610.569 432.022 610.569 432.022L590.44 424.239Z" fill="white"/>
<path d="M606.275 400.621C606.275 400.621 593.125 418.067 592.051 420.482C590.977 422.897 590.44 424.238 590.44 424.238L610.569 432.022L630.162 410.552L637.408 391.496L635.261 368.951C635.261 368.951 630.967 368.683 630.162 372.441C629.356 376.197 629.624 379.687 629.624 379.687L623.612 374.856L613.924 371.904C613.924 371.904 611.643 375.662 615.4 377.54C619.157 379.419 620.231 379.419 620.231 379.419L623.612 385.323L622.134 391.939L615.283 385.514C613.909 384.225 611.812 384.095 610.289 385.203L605.862 388.421L601.713 386.568L593.661 393.643L590.44 396.595C590.44 396.595 592.588 400.621 596.881 398.742L601.176 396.864L606.275 400.621Z" fill="white"/>
<path d="M590.44 427.772C590.44 427.772 590.424 427.582 590.436 427.213C590.449 426.843 590.48 426.293 590.568 425.575C590.658 424.858 590.799 423.971 591.072 422.943C591.37 421.932 591.708 420.729 592.484 419.564C595.491 414.941 600.233 408.51 606.14 400.52L606.175 400.757C604.582 399.587 602.857 398.322 601.069 397.01L601.248 397.03C600.38 397.412 599.495 397.8 598.595 398.197C597.689 398.574 596.804 399.056 595.767 399.299C594.746 399.532 593.597 399.457 592.624 398.942C591.639 398.456 590.844 397.654 590.263 396.69L590.184 396.56L590.304 396.447C593.767 393.198 597.614 389.91 601.568 386.403L601.687 386.298L601.825 386.379C602.931 387.032 604.158 387.757 605.398 388.489L605.163 388.496C606.536 387.591 607.932 386.674 609.345 385.743C610.068 385.279 610.73 384.806 611.516 384.341C612.358 383.911 613.44 384.003 614.207 384.577C616.864 386.822 619.585 389.12 622.354 391.459L621.97 391.588C622.413 389.599 622.894 387.445 623.378 385.271L623.405 385.441C622.335 383.575 621.184 381.565 620.024 379.538L620.231 379.659C619.595 379.589 619.11 379.397 618.563 379.209C618.033 379.014 617.508 378.792 616.983 378.557C616.458 378.325 615.938 378.072 615.416 377.816C615.155 377.686 614.893 377.516 614.632 377.367C614.401 377.163 614.129 377.008 613.936 376.758C613.318 376.105 612.959 375.182 613.005 374.291C613.024 373.395 613.291 372.556 613.719 371.779L613.808 371.617L613.994 371.673C617.267 372.671 620.497 373.657 623.681 374.628L623.725 374.641L623.761 374.67C625.791 376.302 627.794 377.914 629.772 379.503L629.39 379.705C629.263 377.271 629.433 374.879 629.902 372.56C630.104 371.375 630.808 370.207 631.86 369.587C632.898 368.946 634.089 368.703 635.274 368.724L635.467 368.728L635.487 368.93C636.241 376.944 636.952 384.494 637.61 391.476L637.615 391.524L637.597 391.568C634.912 398.592 632.477 404.963 630.317 410.61L630.305 410.64L630.284 410.663C623.842 417.675 618.658 423.32 615.071 427.223C613.286 429.152 611.899 430.651 610.944 431.68C610.479 432.177 610.121 432.558 609.866 432.828C609.621 433.085 609.487 433.208 609.487 433.208C609.487 433.208 609.597 433.064 609.831 432.796C610.078 432.518 610.424 432.127 610.875 431.617C611.814 430.573 613.179 429.056 614.937 427.1C618.497 423.173 623.643 417.495 630.039 410.439L630.006 410.492C632.146 404.836 634.558 398.458 637.219 391.424L637.206 391.515C636.535 384.535 635.807 376.986 635.036 368.973L635.247 369.178C634.175 369.158 633.028 369.394 632.105 369.975C631.16 370.542 630.55 371.543 630.355 372.653C629.898 374.92 629.734 377.301 629.859 379.669L629.887 380.199L629.478 379.87C627.498 378.282 625.493 376.672 623.462 375.042L623.542 375.084C620.359 374.114 617.127 373.13 613.855 372.134L614.13 372.028C613.754 372.708 613.497 373.514 613.485 374.299C613.447 375.091 613.753 375.859 614.288 376.431C614.451 376.65 614.703 376.787 614.904 376.97C615.148 377.107 615.373 377.257 615.63 377.384C616.147 377.639 616.662 377.889 617.18 378.119C618.196 378.563 619.287 379.033 620.231 379.178L620.384 379.201L620.44 379.299C621.601 381.326 622.751 383.338 623.819 385.204L623.865 385.284L623.844 385.375C623.358 387.549 622.876 389.702 622.431 391.691L622.346 392.072L622.048 391.82C619.29 389.484 616.58 387.189 613.933 384.948C613.303 384.476 612.412 384.399 611.719 384.752C611.029 385.16 610.297 385.672 609.595 386.122C608.179 387.051 606.782 387.967 605.407 388.869L605.29 388.946L605.171 388.874C603.933 388.139 602.706 387.412 601.601 386.756L601.857 386.733C597.899 390.23 594.043 393.509 590.576 396.744L590.618 396.501C591.14 397.372 591.902 398.151 592.801 398.59C593.693 399.065 594.732 399.136 595.685 398.923C596.634 398.709 597.537 398.231 598.445 397.855C599.348 397.461 600.235 397.075 601.103 396.697L601.2 396.655L601.283 396.718C603.066 398.037 604.787 399.309 606.375 400.485L606.512 400.586L606.41 400.722C600.47 408.682 595.684 415.088 592.64 419.663C591.87 420.792 591.517 421.983 591.208 422.981C590.922 423.996 590.767 424.875 590.663 425.588C590.56 426.3 590.512 426.848 590.485 427.215C590.457 427.583 590.44 427.772 590.44 427.772Z" fill="#E1E1E1"/>
<path d="M615.349 404.661C615.253 404.645 615.609 403.237 615.756 400.95C615.803 399.817 615.738 398.424 615.121 397.072C614.508 395.717 613.297 394.538 611.915 393.471C609.13 391.322 606.442 389.59 604.466 388.398C603.541 387.854 602.754 387.39 602.106 387.01C601.548 386.684 601.241 386.494 601.257 386.464C601.272 386.435 601.606 386.567 602.194 386.843C602.781 387.119 603.62 387.543 604.635 388.104C606.668 389.226 609.4 390.922 612.212 393.093C613.612 394.174 614.887 395.42 615.525 396.889C616.164 398.354 616.186 399.814 616.096 400.972C615.998 402.14 615.788 403.062 615.641 403.693C615.487 404.324 615.381 404.667 615.349 404.661Z" fill="#E1E1E1"/>
<path d="M629.435 396.287C629.362 396.268 629.557 395.355 629.777 393.873C629.998 392.39 630.208 390.327 630.191 388.043C630.169 385.758 629.924 383.699 629.678 382.22C629.433 380.741 629.224 379.832 629.296 379.813C629.351 379.796 629.679 380.676 630.012 382.157C630.346 383.634 630.649 385.719 630.672 388.039C630.689 390.358 630.421 392.448 630.112 393.931C629.803 395.416 629.492 396.301 629.435 396.287Z" fill="#E1E1E1"/>
<path d="M539.718 327.831L530.087 310.858C534.348 303.943 536.811 295.801 536.811 287.083C536.811 262.01 516.485 241.684 491.412 241.684C466.339 241.684 446.013 262.01 446.013 287.083C446.013 312.155 466.339 332.481 491.412 332.481C501.881 332.481 511.516 328.928 519.195 322.974L519.181 322.995L539.718 327.831Z" fill="white"/>
<path d="M539.718 327.831C538.878 327.638 532.29 326.127 519.152 323.111L518.972 323.07L519.084 322.922L519.101 322.901L519.268 323.07C516.678 325.074 513.578 327.048 509.932 328.693C506.283 330.31 502.101 331.63 497.485 332.244C495.181 332.538 492.773 332.726 490.299 332.605C489.063 332.535 487.805 332.504 486.536 332.398C485.275 332.207 483.996 332.014 482.701 331.818C477.563 330.803 472.31 328.851 467.411 325.81C462.514 322.779 457.979 318.664 454.345 313.609C450.717 308.563 447.965 302.579 446.677 296.078C445.402 289.586 445.509 282.627 447.214 275.892C448.932 269.181 452.139 262.624 456.94 257.231L458.793 255.192C459.402 254.506 460.129 253.941 460.789 253.311C461.48 252.717 462.104 252.044 462.846 251.517C463.574 250.974 464.3 250.431 465.024 249.889C465.729 249.319 466.506 248.86 467.278 248.398C468.048 247.931 468.815 247.465 469.581 247C470.386 246.609 471.189 246.22 471.99 245.83C472.799 245.457 473.577 245.016 474.424 244.749C481.015 242.131 488.044 241.135 494.764 241.621C501.485 242.105 507.916 244.033 513.435 247.138C518.969 250.218 523.637 254.331 527.24 258.926C530.854 263.522 533.4 268.593 534.978 273.642C536.545 278.714 536.969 283.746 536.953 288.403C536.819 293.071 535.971 297.373 534.734 301.149C533.495 304.93 531.867 308.182 530.186 310.918L530.188 310.801C536.299 321.722 539.315 327.112 539.718 327.831C539.307 327.117 536.227 321.762 529.987 310.915L529.954 310.857L529.989 310.797C531.647 308.065 533.249 304.823 534.463 301.061C535.677 297.304 536.503 293.029 536.621 288.393C536.621 283.769 536.187 278.779 534.619 273.752C533.042 268.749 530.505 263.729 526.916 259.181C523.337 254.634 518.705 250.567 513.22 247.524C507.753 244.456 501.383 242.556 494.73 242.083C488.077 241.607 481.122 242.599 474.601 245.19C473.762 245.455 472.994 245.893 472.194 246.262C471.402 246.646 470.606 247.033 469.81 247.42C469.053 247.881 468.294 248.342 467.532 248.805C466.768 249.261 465.999 249.716 465.302 250.281C464.585 250.817 463.867 251.354 463.148 251.892C462.412 252.412 461.796 253.08 461.112 253.668C460.459 254.291 459.74 254.85 459.138 255.529L457.304 257.546C452.552 262.883 449.379 269.37 447.676 276.009C445.986 282.671 445.875 289.56 447.133 295.987C448.401 302.423 451.118 308.349 454.705 313.351C458.298 318.361 462.783 322.446 467.629 325.458C472.478 328.481 477.681 330.427 482.773 331.446C484.057 331.642 485.325 331.838 486.575 332.03C487.833 332.139 489.082 332.172 490.308 332.246C492.762 332.373 495.152 332.192 497.441 331.909C502.024 331.315 506.18 330.018 509.813 328.427C513.442 326.808 516.534 324.859 519.121 322.88L519.846 322.325L519.29 323.047L519.275 323.068L519.207 322.878C532.309 326.042 538.881 327.629 539.718 327.831Z" fill="#1A2E35"/>
<path d="M481.572 287.083C481.572 289.119 479.922 290.769 477.886 290.769C475.851 290.769 474.201 289.119 474.201 287.083C474.201 285.047 475.851 283.397 477.886 283.397C479.922 283.397 481.572 285.047 481.572 287.083Z" fill="#1A2E35"/>
<path d="M496.323 287.083C496.323 289.119 494.673 290.769 492.637 290.769C490.602 290.769 488.951 289.119 488.951 287.083C488.951 285.047 490.602 283.397 492.637 283.397C494.673 283.397 496.323 285.047 496.323 287.083Z" fill="#1A2E35"/>
<path d="M511.036 285.24C512.054 287.003 511.45 289.257 509.687 290.275C507.924 291.293 505.669 290.689 504.652 288.926C503.634 287.163 504.238 284.908 506.001 283.891C507.764 282.873 510.018 283.477 511.036 285.24Z" fill="#1A2E35"/>
<path d="M721.396 576.737C721.396 576.87 627.472 576.978 511.64 576.978C395.766 576.978 301.863 576.87 301.863 576.737C301.863 576.604 395.766 576.496 511.64 576.496C627.472 576.496 721.396 576.604 721.396 576.737Z" fill="#1A2E35"/>
<path d="M602.684 576.962C602.684 576.962 608.949 566.261 622.445 565.803C635.939 565.344 642.687 576.962 642.687 576.962H602.684Z" fill="#FF7A00"/>
<path d="M628.545 576.628C628.446 576.628 628.422 575.837 628.149 574.613C627.882 573.391 627.292 571.748 626.224 570.169C625.149 568.595 623.838 567.439 622.801 566.74C621.764 566.036 621.038 565.723 621.074 565.632C621.094 565.572 621.886 565.749 623.021 566.387C624.154 567.019 625.584 568.185 626.712 569.837C627.832 571.494 628.389 573.253 628.559 574.538C628.735 575.83 628.607 576.632 628.545 576.628Z" fill="#1A2E35"/>
<path d="M594.33 576.473L594.329 576.387C594.282 573.56 591.976 571.292 589.148 571.292H474.266C471.405 571.292 469.085 573.611 469.085 576.473H594.33Z" fill="#FF7A00"/>
<path d="M374.405 375.237C374.405 377.654 376.215 521.934 376.215 521.934L483.375 547.717H492.238L486.597 346.29H478.54L374.405 375.237Z" fill="#1A2E35"/>
<path d="M397.067 515.894L363.856 576.766H394.211C388.783 576.223 442.281 576.766 442.281 576.766L394.211 564.019L409.242 529.88L407.96 515.894H397.067Z" fill="#1A2E35"/>
<path d="M397.809 527.129L394.211 413.68L426.842 410.551L430.865 531.687L419.209 532.278L397.809 527.129Z" fill="#1A2E35"/>
<path d="M435.426 536.179C435.426 536.179 435.413 536.001 435.406 535.652C435.402 535.289 435.394 534.773 435.386 534.096C435.378 532.712 435.365 530.69 435.348 528.069C435.332 522.796 435.31 515.131 435.281 505.503C435.26 486.22 435.231 459.083 435.196 427.614L435.426 427.844C423.349 427.848 410.358 427.851 396.923 427.854L397.163 427.614V432.849C397.149 463.535 397.136 492.098 397.124 515.893V515.945L397.1 515.989C387.107 534.312 378.816 549.512 373.017 560.145C370.112 565.441 367.833 569.598 366.273 572.444C365.495 573.849 364.897 574.928 364.487 575.67C364.079 576.398 363.856 576.766 363.856 576.766C363.856 576.766 364.042 576.378 364.431 575.64C364.83 574.892 365.411 573.804 366.165 572.384C367.704 569.528 369.95 565.353 372.812 560.034C378.575 549.382 386.815 534.154 396.746 515.797L396.722 515.893C396.711 492.098 396.698 463.535 396.683 432.849V427.614V427.373H396.923C410.358 427.377 423.349 427.38 435.426 427.383H435.657V427.614C435.621 459.083 435.592 486.22 435.571 505.503C435.542 515.131 435.519 522.796 435.503 528.069C435.487 530.69 435.475 532.712 435.465 534.096C435.457 534.773 435.451 535.289 435.446 535.652C435.439 536.001 435.426 536.179 435.426 536.179Z" fill="#FF7A00"/>
<path d="M409.242 529.88C409.364 529.934 404.742 540.618 398.921 553.741C393.098 566.869 388.281 577.464 388.159 577.41C388.038 577.356 392.658 566.673 398.481 553.546C404.302 540.423 409.121 529.825 409.242 529.88Z" fill="#FF7A00"/>
<path d="M483.375 547.717C483.375 547.717 483.357 547.541 483.348 547.197C483.34 546.836 483.33 546.33 483.317 545.675C483.301 544.317 483.278 542.347 483.247 539.82C483.209 534.735 483.095 527.378 482.915 518.288C482.569 500.108 481.749 475.002 480.742 447.275C479.735 419.539 478.968 394.424 478.71 376.239C478.574 367.148 478.511 359.789 478.531 354.704C478.54 352.177 478.546 350.207 478.551 348.848C478.558 348.194 478.564 347.688 478.568 347.326C478.575 346.983 478.591 346.807 478.591 346.807C478.591 346.807 478.607 346.983 478.617 347.326C478.624 347.688 478.635 348.194 478.648 348.848C478.664 350.206 478.688 352.176 478.718 354.703C478.756 359.787 478.871 367.143 479.05 376.233C479.395 394.413 480.216 419.522 481.223 447.258C482.23 474.984 482.997 500.097 483.255 518.283C483.391 527.374 483.453 534.733 483.434 539.818C483.425 542.347 483.419 544.317 483.414 545.675C483.407 546.33 483.401 546.836 483.397 547.197C483.39 547.541 483.375 547.717 483.375 547.717Z" fill="#FF7A00"/>
<path d="M429.58 426.776C429.713 426.776 429.822 450.906 429.822 480.665C429.822 510.434 429.713 534.559 429.58 534.559C429.447 534.559 429.34 510.434 429.34 480.665C429.34 450.906 429.447 426.776 429.58 426.776Z" fill="#FF7A00"/>
<path d="M371.839 567.265C371.826 567.275 371.668 567.053 371.378 566.622C371.228 566.395 371.052 566.129 370.849 565.821C370.63 565.51 370.405 565.134 370.184 564.693C369.183 562.992 368.047 560.333 367.254 556.886C366.464 553.439 366.197 549.183 366.681 544.535C367.212 539.896 368.458 534.854 370.685 529.933C371.808 527.469 373.258 525.235 374.874 523.269C375.264 522.765 375.665 522.279 376.099 521.827C376.523 521.369 376.931 520.902 377.358 520.465C378.248 519.625 379.083 518.762 379.999 518.033C381.757 516.488 383.616 515.258 385.367 514.142C386.277 513.642 387.135 513.119 388.002 512.696C388.881 512.298 389.691 511.843 390.524 511.544C393.798 510.214 396.614 509.566 398.581 509.398C399.556 509.234 400.331 509.294 400.846 509.26C401.365 509.25 401.637 509.253 401.637 509.27C401.637 509.286 401.365 509.315 400.85 509.356C400.336 509.423 399.569 509.392 398.605 509.584C396.659 509.808 393.881 510.5 390.656 511.858C389.835 512.163 389.037 512.624 388.171 513.026C387.317 513.454 386.472 513.98 385.574 514.483C383.85 515.603 382.019 516.833 380.288 518.37C379.385 519.095 378.563 519.953 377.686 520.786C377.266 521.221 376.864 521.683 376.446 522.137C376.019 522.585 375.625 523.066 375.241 523.565C373.649 525.509 372.225 527.712 371.122 530.135C368.922 534.996 367.671 539.997 367.123 544.584C366.618 549.184 366.848 553.394 367.586 556.813C368.329 560.234 369.406 562.889 370.349 564.604C370.556 565.05 370.767 565.431 370.972 565.748C371.158 566.063 371.321 566.336 371.46 566.57C371.722 567.015 371.853 567.255 371.839 567.265Z" fill="#FF7A00"/>
</svg>
