<svg width="663" height="611" viewBox="0 0 663 611" fill="none" xmlns="http://www.w3.org/2000/svg">
<path fill-rule="evenodd" clip-rule="evenodd" d="M42.4458 118.904C80.8364 54.9288 188.022 118.688 259.842 98.4711C314.703 83.0277 348.849 8.63862 405.258 16.7723C461.475 24.8782 485.093 92.0789 520.958 136.121C554.472 177.277 592.723 214.135 607.491 265.114C624.463 323.703 631.041 386.346 610.031 443.611C586.568 507.562 550.946 581.735 485.027 598.906C418.913 616.129 362.635 550.465 299.432 524.519C251.116 504.684 191.917 505.213 158.672 464.931C125.915 425.239 144.866 366.162 128.48 317.378C104.944 247.31 4.41314 182.284 42.4458 118.904Z" fill="#F3F4F2"/>
<path fill-rule="evenodd" clip-rule="evenodd" d="M8.39332 223.856C23.6344 150.818 145.818 175.824 207.008 133.133C253.75 100.523 261.561 19.0451 317.512 8.19447C373.271 -2.61905 417.656 53.092 466 82.9065C511.175 110.767 559.412 133.012 590.109 176.31C625.387 226.07 652.181 283.075 651.151 344.064C650.001 412.173 640.725 493.932 584.107 531.807C527.32 569.795 452.593 526.266 384.375 522.525C332.224 519.665 276.485 539.613 231.851 512.489C187.873 485.763 186.362 423.739 154.858 383.046C109.609 324.6 -6.70561 296.212 8.39332 223.856Z" fill="#0A263E"/>
<path d="M393.434 274.807H233.054V131.322H393.434V274.807Z" fill="#FAFAFA"/>
<path d="M393.434 274.807C393.434 274.807 393.407 273.887 393.394 272.145C393.383 270.384 393.371 267.81 393.352 264.456C393.33 257.72 393.298 247.873 393.258 235.33C393.213 210.26 393.148 174.437 393.07 131.322L393.434 131.685C347.246 131.704 292.124 131.727 233.068 131.751H233.054L233.482 131.322C233.464 183.524 233.446 232.645 233.431 274.807L233.054 274.429C280.899 274.509 320.943 274.574 349.052 274.621C363.117 274.663 374.189 274.696 381.77 274.719C385.546 274.739 388.448 274.754 390.431 274.765C391.401 274.773 392.143 274.781 392.665 274.786C393.167 274.792 393.434 274.807 393.434 274.807C393.434 274.807 393.196 274.822 392.707 274.828C392.195 274.834 391.467 274.841 390.515 274.85C388.549 274.861 385.672 274.876 381.927 274.894C374.365 274.918 363.322 274.951 349.295 274.994C321.127 275.04 280.998 275.106 233.054 275.184L232.677 275.185V274.807C232.661 232.645 232.643 183.524 232.625 131.322V130.893H233.054H233.068C292.124 130.917 347.246 130.939 393.434 130.958H393.798V131.322C393.721 174.532 393.656 210.434 393.611 235.561C393.57 248.068 393.538 257.887 393.517 264.605C393.498 267.928 393.484 270.478 393.475 272.223C393.461 273.941 393.434 274.807 393.434 274.807Z" fill="#E1E1E1"/>
<path d="M294.55 156.816C294.55 157.053 286.108 157.245 275.697 157.245C265.282 157.245 256.842 157.053 256.842 156.816C256.842 156.58 265.282 156.388 275.697 156.388C286.108 156.388 294.55 156.58 294.55 156.816Z" fill="#E1E1E1"/>
<path d="M362.505 167.59C362.505 167.826 339.313 168.018 310.712 168.018C282.101 168.018 258.914 167.826 258.914 167.59C258.914 167.353 282.101 167.161 310.712 167.161C339.313 167.161 362.505 167.353 362.505 167.59Z" fill="#E1E1E1"/>
<path d="M263.876 192.595H257.119V185.839H263.876V192.595Z" fill="#E1E1E1"/>
<path d="M280.508 192.595H273.751V185.839H280.508V192.595Z" fill="#E1E1E1"/>
<path d="M297.446 192.289H290.69V185.532H297.446V192.289Z" fill="#E1E1E1"/>
<path d="M313.772 192.595H307.015V185.839H313.772V192.595Z" fill="#E1E1E1"/>
<path d="M330.404 192.595H323.647V185.839H330.404V192.595Z" fill="#E1E1E1"/>
<path d="M347.036 192.595H340.279V185.839H347.036V192.595Z" fill="#E1E1E1"/>
<path d="M363.668 192.595H356.911V185.839H363.668V192.595Z" fill="#ECECEC"/>
<path d="M263.876 206.96H257.119V200.204H263.876V206.96Z" fill="#ECECEC"/>
<path d="M280.508 206.96H273.751V200.204H280.508V206.96Z" fill="#E1E1E1"/>
<path d="M297.14 206.96H290.383V200.204H297.14V206.96Z" fill="#ECECEC"/>
<path d="M313.772 206.96H307.015V200.204H313.772V206.96Z" fill="#E1E1E1"/>
<path d="M330.404 206.96H323.647V200.204H330.404V206.96Z" fill="#E1E1E1"/>
<path d="M347.342 206.654H340.586V199.897H347.342V206.654Z" fill="#E1E1E1"/>
<path d="M363.668 206.96H356.911V200.204H363.668V206.96Z" fill="#E1E1E1"/>
<path d="M263.876 221.325H257.119V214.568H263.876V221.325Z" fill="#E1E1E1"/>
<path d="M280.814 221.018H274.058V214.262H280.814V221.018Z" fill="#E1E1E1"/>
<path d="M297.14 221.325H290.383V214.568H297.14V221.325Z" fill="#E1E1E1"/>
<path d="M313.772 221.325H307.015V214.568H313.772V221.325Z" fill="#ECECEC"/>
<path d="M330.404 221.325H323.647V214.568H330.404V221.325Z" fill="#E1E1E1"/>
<path d="M347.036 221.325H340.279V214.568H347.036V221.325Z" fill="#E1E1E1"/>
<path d="M363.668 221.325H356.911V214.568H363.668V221.325Z" fill="#E1E1E1"/>
<path d="M263.876 235.69H257.119V228.933H263.876V235.69Z" fill="#E1E1E1"/>
<path d="M280.508 235.69H273.751V228.933H280.508V235.69Z" fill="#E1E1E1"/>
<path d="M297.14 235.69H290.383V228.933H297.14V235.69Z" fill="#E1E1E1"/>
<path d="M314.078 235.382H307.322V228.626H314.078V235.382Z" fill="#E1E1E1"/>
<path d="M330.404 235.69H323.647V228.933H330.404V235.69Z" fill="#E1E1E1"/>
<path d="M347.036 235.69H340.279V228.933H347.036V235.69Z" fill="#ECECEC"/>
<path d="M363.668 235.69H356.911V228.933H363.668V235.69Z" fill="#E1E1E1"/>
<path d="M263.876 250.054H257.119V243.297H263.876V250.054Z" fill="#E1E1E1"/>
<path d="M280.508 250.054H273.751V243.297H280.508V250.054Z" fill="#ECECEC"/>
<path d="M297.14 250.054H290.383V243.297H297.14V250.054Z" fill="#E1E1E1"/>
<path d="M313.772 250.054H307.015V243.297H313.772V250.054Z" fill="#E1E1E1"/>
<path d="M330.404 250.054H323.647V243.297H330.404V250.054Z" fill="#E1E1E1"/>
<path d="M347.342 249.747H340.586V242.991H347.342V249.747Z" fill="#E1E1E1"/>
<path d="M363.668 250.054H356.911V243.297H363.668V250.054Z" fill="#E1E1E1"/>
<path d="M481.61 136.408L471.303 136.464L471.029 85.1789L481.335 85.1243L481.61 136.408Z" fill="#E1E1E1"/>
<path d="M501.784 125.626L475.094 125.769L474.942 97.4566L501.632 97.3134L501.784 125.626Z" fill="#ECECEC"/>
<path d="M528.348 125.484L501.657 125.627L501.505 97.314L528.196 97.1708L528.348 125.484Z" fill="#F5F5F5"/>
<path d="M474.984 105.276C492.721 105.422 510.502 105.318 528.238 105.031C528.603 105.025 528.6 104.465 528.235 104.464C510.497 104.366 492.716 104.453 474.981 104.79C474.668 104.795 474.671 105.273 474.984 105.276Z" fill="#E1E1E1"/>
<path d="M506.917 148.226L458.426 148.486L458.302 125.413L506.793 125.153L506.917 148.226Z" fill="#ECECEC"/>
<path d="M555.179 147.968L506.688 148.227L506.564 125.155L555.055 124.895L555.179 147.968Z" fill="#F5F5F5"/>
<path d="M458.336 131.831C490.55 132.196 522.877 131.868 555.09 131.353C555.454 131.346 555.452 130.788 555.087 130.786C522.87 130.616 490.541 130.634 458.333 131.345C458.021 131.351 458.023 131.827 458.336 131.831Z" fill="#E1E1E1"/>
<path d="M534.871 144.696H347V136.43H534.871V144.696Z" fill="#E1E1E1"/>
<path d="M478.587 180.665H470.96V152.46H478.587V180.665Z" fill="#E1E1E1"/>
<path d="M592.436 180.665H584.809V152.46H592.436V180.665Z" fill="#E1E1E1"/>
<path d="M491.771 136.534L481.465 136.59L481.087 66.0554L491.393 66L491.771 136.534Z" fill="#ECECEC"/>
<path d="M507.804 136.29L491.789 136.375L491.482 79.2156L507.497 79.1297L507.804 136.29Z" fill="#F5F5F5"/>
<path d="M507.39 90.1418C507.39 90.2952 503.804 90.4199 499.382 90.4199C494.959 90.4199 491.375 90.2952 491.375 90.1418C491.375 89.9885 494.959 89.8647 499.382 89.8647C503.804 89.8647 507.39 89.9885 507.39 90.1418Z" fill="#E1E1E1"/>
<path d="M507.39 87.7411C507.39 87.8945 503.804 88.0183 499.382 88.0183C494.959 88.0183 491.375 87.8945 491.375 87.7411C491.375 87.5878 494.959 87.464 499.382 87.464C503.804 87.464 507.39 87.5878 507.39 87.7411Z" fill="#E1E1E1"/>
<path d="M507.39 127.69C507.39 127.843 503.804 127.967 499.382 127.967C494.959 127.967 491.375 127.843 491.375 127.69C491.375 127.536 494.959 127.412 499.382 127.412C503.804 127.412 507.39 127.536 507.39 127.69Z" fill="#E1E1E1"/>
<path d="M507.39 125.289C507.39 125.442 503.804 125.566 499.382 125.566C494.959 125.566 491.375 125.442 491.375 125.289C491.375 125.135 494.959 125.011 499.382 125.011C503.804 125.011 507.39 125.135 507.39 125.289Z" fill="#E1E1E1"/>
<path d="M499.64 120.05C499.487 120.05 499.362 114.283 499.362 107.171C499.362 100.056 499.487 94.2905 499.64 94.2905C499.793 94.2905 499.917 100.056 499.917 107.171C499.917 114.283 499.793 120.05 499.64 120.05Z" fill="#E1E1E1"/>
<path d="M524.995 136.311H507.563V93.1668H524.995V136.311Z" fill="#ECECEC"/>
<path d="M489.051 78.0424C489.051 79.6786 487.724 81.0044 486.088 81.0044C484.451 81.0044 483.126 79.6786 483.126 78.0424C483.126 76.4061 484.451 75.0794 486.088 75.0794C487.724 75.0794 489.051 76.4061 489.051 78.0424Z" fill="#E1E1E1"/>
<path d="M487.003 128.149H485.173V86.1893H487.003V128.149Z" fill="#E1E1E1"/>
<path d="M605.443 155.493L603.087 151.66C583.229 119.347 547.328 99.8687 509.474 102.233C504.608 102.537 499.764 103.186 494.984 104.197C460.568 111.472 430.622 137.171 418.21 170.084C410.91 189.442 408.87 211.729 395.017 227.093C376.988 247.089 346.379 247.717 319.468 246.889C292.557 246.06 261.927 246.767 243.986 266.842C232.75 279.415 229.179 297.293 230.085 314.131C232.484 358.709 249.043 397.98 289.048 417.792C329.053 437.604 391.053 439.966 434.836 431.252C496.171 419.043 554.5 385.514 589.561 333.727C624.621 281.941 633.494 211.387 605.443 155.493Z" fill="#CFCFCF"/>
<path d="M263.646 365.986C268.481 363.491 274.175 363.166 279.542 364.054C282.426 364.531 285.432 365.393 287.395 367.559C289.357 369.726 289.728 373.538 287.475 375.399C286.134 376.507 284.264 376.674 282.525 376.655C278.322 376.606 273.66 375.866 270.303 378.395C268.387 379.837 267.112 382.235 264.822 382.944C262.582 383.638 260.054 382.317 258.866 380.294C257.678 378.273 257.639 375.745 258.192 373.467C258.192 373.467 258.776 368.499 263.646 365.986" fill="#34C759"/>
<path d="M252.569 344.602C255.525 348.824 261.271 347.426 263.936 344.849C266.6 342.272 267.726 338.536 268.751 334.974C271.093 326.834 273.455 318.296 271.713 310.007C271.193 307.529 270.266 305.058 268.525 303.219C266.783 301.382 264.106 300.287 261.657 300.934C258.761 301.7 256.959 304.538 255.658 307.238C251.833 315.172 249.807 323.968 249.778 332.777C249.763 336.891 250.248 341.205 252.569 344.602Z" fill="#34C759"/>
<path d="M244.45 350.66C247.66 346.851 248.269 341.294 246.841 336.521C245.412 331.748 242.185 327.689 238.465 324.374C234.106 320.487 228.98 317.462 223.47 315.525C221.301 314.763 219.014 314.161 216.726 314.379C214.438 314.598 212.132 315.767 211.065 317.804C209.487 320.814 211.001 324.464 212.637 327.443C215.52 332.691 218.817 337.71 222.488 342.441C225.439 346.249 228.821 350.003 233.32 351.723C237.82 353.443 242.494 353.241 244.878 350.12" fill="#34C759"/>
<path d="M252.369 408.3C252.424 408.303 252.514 407.62 252.637 406.382C252.772 404.985 252.942 403.231 253.146 401.145C253.39 398.941 253.712 396.318 254.324 393.464C254.933 390.615 255.889 387.529 257.116 384.398C258.385 381.287 259.934 378.458 261.744 376.196C263.541 373.924 265.631 372.279 267.596 371.331C269.555 370.362 271.311 369.971 272.525 369.795C273.75 369.669 274.435 369.573 274.436 369.519C274.436 369.464 273.75 369.456 272.491 369.489C271.246 369.572 269.416 369.888 267.352 370.826C265.282 371.745 263.065 373.415 261.179 375.734C259.278 378.044 257.673 380.935 256.38 384.103C255.133 387.287 254.192 390.406 253.609 393.315C253.027 396.22 252.761 398.872 252.588 401.093C252.421 403.317 252.358 405.118 252.328 406.362C252.3 407.607 252.314 408.297 252.369 408.3Z" fill="#863202"/>
<path d="M252.729 404.27C252.756 404.269 252.774 403.962 252.781 403.379C252.779 402.711 252.777 401.868 252.774 400.833C252.768 398.625 252.769 395.427 252.887 391.479C253.082 383.581 253.762 375.083 255.076 363.101C256.32 351.834 257.989 338.723 259.75 330.198C260.128 328.259 260.509 326.514 260.867 324.987C261.208 323.455 261.5 322.135 261.781 321.066C262.023 320.061 262.22 319.243 262.376 318.592C262.503 318.023 262.558 317.721 262.532 317.714C262.505 317.707 262.4 317.993 262.223 318.549C262.028 319.189 261.784 319.996 261.483 320.988C261.155 322.047 260.819 323.359 260.436 324.883C260.037 326.405 259.616 328.144 259.202 330.081C257.46 337.806 255.615 348.601 254.288 360.612C252.972 372.619 252.38 383.552 252.328 391.468C252.28 395.426 252.364 398.631 252.465 400.841C252.529 401.875 252.58 402.717 252.621 403.386C252.666 403.967 252.702 404.272 252.729 404.27Z" fill="#863202"/>
<path d="M252.782 383.185C252.837 383.183 252.827 382.238 252.763 380.525C252.665 378.815 252.431 376.346 251.949 373.319C251.439 370.301 250.725 366.716 249.605 362.821C249.12 361.041 247.979 356.774 245.216 350.399C241.574 341.761 236.627 334.699 232.323 330.324C231.314 329.163 230.19 328.325 229.291 327.505C228.825 327.112 228.414 326.719 227.995 326.408C227.573 326.117 227.182 325.847 226.817 325.597C225.401 324.629 224.608 324.117 224.579 324.163C224.451 324.337 227.752 326.278 231.918 330.711C236.068 335.134 240.877 342.148 244.489 350.713C246.503 355.359 247.907 359.503 248.903 363.021C250.055 366.88 250.819 370.426 251.397 373.415C251.947 376.411 252.264 378.856 252.456 380.55C252.614 382.246 252.727 383.186 252.782 383.185Z" fill="#863202"/>
<path d="M232.401 420.38L234.514 449.326H271.701L273.814 420.38H232.401Z" fill="#863202"/>
<path d="M228.81 420.379H278.251V408.97H228.81V420.379Z" fill="#863202"/>
<path d="M228.81 448.218V451.381H231.133H277.433V448.218H228.81Z" fill="#EE2B47"/>
<path d="M233.41 456.948L231.133 451.381H275.663L273.006 456.948H233.41Z" fill="#EE2B47"/>
<path d="M273.123 429.841C273.132 429.847 273.073 429.937 272.95 430.106C272.802 430.302 272.62 430.545 272.394 430.843C271.866 431.518 271.141 432.447 270.228 433.616L270.132 433.739L270.038 433.61C268.677 431.726 266.857 429.211 264.716 426.249H265.023C263.44 428.491 261.676 430.987 259.783 433.668L259.619 433.901L259.435 433.682C257.501 431.382 255.401 428.883 253.221 426.288L253.578 426.284C253.471 426.419 253.354 426.566 253.237 426.713C251.309 429.129 249.445 431.469 247.68 433.679L247.495 433.911L247.324 433.67C245.438 431.001 243.675 428.507 242.081 426.252L242.386 426.267C239.803 429.211 237.611 431.708 235.93 433.623L235.815 433.753L235.728 433.606C234.878 432.176 234.198 431.037 233.706 430.21C233.495 429.842 233.324 429.544 233.188 429.306C233.074 429.099 233.02 428.99 233.03 428.983C233.039 428.977 233.113 429.075 233.246 429.271C233.397 429.499 233.586 429.785 233.82 430.14C234.336 430.951 235.048 432.071 235.942 433.475L235.74 433.459C237.395 431.518 239.551 428.993 242.093 426.013L242.253 425.824L242.398 426.028C244.006 428.272 245.784 430.754 247.687 433.412L247.331 433.401C249.091 431.187 250.952 428.846 252.874 426.426C252.992 426.278 253.109 426.131 253.217 425.996L253.393 425.775L253.575 425.992C255.749 428.59 257.844 431.093 259.772 433.4L259.424 433.412C261.336 430.745 263.117 428.262 264.716 426.031L264.871 425.815L265.023 426.031C267.119 429.025 268.899 431.568 270.232 433.472L270.043 433.466C270.993 432.328 271.747 431.423 272.296 430.765C272.541 430.481 272.74 430.251 272.9 430.066C273.039 429.91 273.115 429.833 273.123 429.841Z" fill="#E1E1E1"/>
<path d="M274.332 420.188C274.332 420.317 265.014 420.42 253.523 420.42C242.027 420.42 232.712 420.317 232.712 420.188C232.712 420.061 242.027 419.957 253.523 419.957C265.014 419.957 274.332 420.061 274.332 420.188Z" fill="#EE2B47"/>
<path d="M276.21 451.693C276.21 451.822 266.084 451.924 253.595 451.924C241.102 451.924 230.977 451.822 230.977 451.693C230.977 451.565 241.102 451.461 253.595 451.461C266.084 451.461 276.21 451.565 276.21 451.693Z" fill="#863202"/>
<path d="M630.884 457.473H516.527V348.805C516.527 341.086 522.782 334.831 530.501 334.831H616.909C624.628 334.831 630.884 341.086 630.884 348.805V457.473Z" fill="#863202"/>
<path d="M621.27 335.456C621.403 335.456 621.51 362.759 621.51 396.43C621.51 430.114 621.403 457.41 621.27 457.41C621.136 457.41 621.029 430.114 621.029 396.43C621.029 362.759 621.136 335.456 621.27 335.456Z" fill="#1A2E35"/>
<path d="M564.931 201.687C575.409 216.623 581.515 234.586 582.312 252.812C582.851 265.101 581.196 278.196 587.029 289.026C595.395 304.562 613.498 304.034 619.04 320.787C621.451 328.072 617.007 344.108 615.808 351.689C614.447 360.304 619.717 367.539 618.355 376.156C617.107 384.053 611.197 389.691 604.097 393.368C597.781 396.639 591.941 396.726 585.369 394.006C572.848 388.822 562.426 383.35 553.505 373.149C540.98 358.828 537.195 338.999 535.056 320.093C530.338 278.413 531.295 236.095 537.891 194.671" fill="#1A2E35"/>
<path d="M591.709 395.768C591.709 395.768 591.845 395.726 592.112 395.666C592.38 395.603 592.784 395.542 593.297 395.386C594.326 395.112 595.839 394.622 597.623 393.656C599.397 392.696 601.497 391.283 603.338 389.074C604.247 387.972 605.079 386.654 605.572 385.112C606.042 383.569 606.254 381.835 606.353 380.035C606.531 376.413 605.978 372.451 605.156 368.263C604.35 364.07 603.257 359.596 602.994 354.752C602.868 352.338 602.973 349.83 603.516 347.345C604.032 344.853 604.932 342.418 605.866 339.972C606.806 337.527 607.796 335.056 608.512 332.466C609.19 329.882 609.607 327.139 609.153 324.43C608.758 321.717 607.647 319.18 606.155 316.961C604.665 314.731 602.815 312.807 600.915 311.025C597.099 307.464 592.967 304.521 589.438 301.217C582.316 294.658 577.521 287.195 574.49 280.58C572.98 277.26 571.821 274.16 571.049 271.367C570.605 269.986 570.353 268.658 570.035 267.46C569.798 266.244 569.58 265.132 569.385 264.13C569.091 262.112 568.876 260.545 568.818 259.472C568.778 258.955 568.746 258.551 568.724 258.257C568.705 257.982 568.707 257.841 568.707 257.841C568.707 257.841 568.738 257.979 568.773 258.252C568.807 258.547 568.854 258.948 568.914 259.462C569.004 260.53 569.247 262.091 569.569 264.098C569.777 265.094 570.007 266.199 570.259 267.408C570.589 268.6 570.853 269.92 571.307 271.29C572.099 274.065 573.276 277.143 574.799 280.437C577.853 287 582.65 294.397 589.738 300.891C593.247 304.162 597.386 307.096 601.237 310.681C603.154 312.475 605.03 314.42 606.551 316.694C608.076 318.955 609.223 321.566 609.629 324.36C610.095 327.153 609.665 329.971 608.974 332.592C608.245 335.218 607.246 337.703 606.305 340.142C605.37 342.582 604.475 344.992 603.967 347.439C603.428 349.879 603.318 352.344 603.437 354.73C603.683 359.518 604.756 363.982 605.548 368.187C606.356 372.389 606.895 376.387 606.693 380.052C606.581 381.88 606.359 383.613 605.863 385.206C605.343 386.791 604.48 388.132 603.545 389.245C601.652 391.477 599.514 392.878 597.71 393.822C595.896 394.769 594.364 395.235 593.32 395.48C592.274 395.728 591.709 395.768 591.709 395.768Z" fill="#EE2B47"/>
<path d="M419.694 428.781L464.03 407.724C464.03 407.724 481.297 323.885 484.562 317.587C487.827 311.292 501.475 305.851 501.475 305.851L499.188 419.381L495.139 445.569L432.61 451.493L419.694 428.781Z" fill="#0197F6"/>
<path d="M381.852 448.643C381.607 448.633 380.374 449.406 381.408 451.352C382.442 453.298 389.947 459.737 392.157 457.494C394.366 455.251 390.992 452.515 390.992 452.515L381.852 448.643Z" fill="white"/>
<path d="M391.311 452.602C391.311 452.602 400.377 453.745 403.868 455.073C407.66 456.513 412.276 455.531 415.384 453.425C418.491 451.32 420.302 449.418 420.302 449.418L431.869 449.235C431.869 449.235 437.421 443.48 434.125 434.904C433.549 433.408 432.929 432.224 431.474 430.389C430.101 428.904 427.931 427.699 424.183 427.052L410.442 430.019C410.442 430.019 389.152 428.498 385.369 430.287C385.369 430.287 380.612 433.108 379.14 434.291C378.586 434.737 376.899 440.154 380.361 442.97C380.361 442.97 377.348 445.368 378.98 447.517L379.763 448.471C379.763 448.471 377.736 451.095 378.776 452.237C379.816 453.379 388.925 458.718 392.184 457.445C395.442 456.173 392.745 453.155 391.311 452.602Z" fill="white"/>
<path d="M382.64 438.289C382.651 438.264 383.049 438.419 383.767 438.692C384.485 438.965 385.527 439.353 386.834 439.769C387.487 439.977 388.208 440.19 388.988 440.395C389.763 440.607 390.612 440.774 391.492 441.059C392.361 441.349 393.3 441.758 393.989 442.565C394.641 443.343 395.084 444.505 394.656 445.606C394.447 446.146 394.009 446.557 393.53 446.814C393.044 447.064 392.523 447.184 392.017 447.236C390.995 447.332 390.036 447.203 389.128 447.084C387.313 446.806 385.73 446.319 384.43 445.859C383.128 445.399 382.102 444.963 381.393 444.661C380.686 444.356 380.302 444.173 380.311 444.15C380.321 444.124 380.725 444.262 381.448 444.525C382.172 444.784 383.212 445.181 384.516 445.606C385.818 446.031 387.392 446.484 389.178 446.738C390.069 446.848 391.023 446.965 391.977 446.867C392.453 446.816 392.93 446.701 393.355 446.481C393.77 446.256 394.134 445.91 394.305 445.463C394.667 444.561 394.296 443.508 393.705 442.803C393.102 442.083 392.219 441.675 391.382 441.39C390.534 441.104 389.685 440.925 388.904 440.697C388.124 440.477 387.402 440.249 386.75 440.023C385.445 439.573 384.413 439.144 383.71 438.828C383.007 438.511 382.63 438.311 382.64 438.289Z" fill="#E1E1E1"/>
<path d="M383.456 431.735C383.467 431.71 383.862 431.865 384.575 432.141C385.29 432.416 386.323 432.814 387.62 433.246C388.917 433.679 390.476 434.147 392.233 434.568C393.098 434.79 394.098 434.966 394.921 435.656C395.323 435.996 395.629 436.496 395.709 437.047C395.796 437.594 395.698 438.157 395.475 438.664C395.019 439.698 394.06 440.361 393.102 440.683C392.133 441.016 391.124 441.038 390.212 440.912C388.377 440.637 386.868 439.979 385.566 439.567C384.319 439.13 383.287 438.769 382.502 438.494C381.781 438.233 381.386 438.076 381.394 438.052C381.403 438.028 381.813 438.136 382.548 438.354C383.343 438.6 384.387 438.922 385.649 439.312C386.962 439.694 388.494 440.324 390.256 440.567C391.136 440.679 392.08 440.647 392.982 440.333C393.871 440.03 394.733 439.417 395.129 438.51C395.547 437.617 395.409 436.519 394.677 435.935C393.972 435.331 393.014 435.132 392.149 434.907C390.386 434.464 388.824 433.966 387.533 433.498C386.24 433.031 385.217 432.595 384.518 432.278C383.82 431.957 383.445 431.758 383.456 431.735Z" fill="#E1E1E1"/>
<path d="M387.825 433.607C387.715 433.606 387.655 432.773 387.414 431.785C387.18 430.796 386.855 430.026 386.952 429.976C387.037 429.926 387.534 430.654 387.782 431.698C388.036 432.74 387.924 433.614 387.825 433.607Z" fill="#E1E1E1"/>
<path d="M419.818 433.88L411.736 430.765C411.736 430.765 389.293 420.291 388.914 420.857C388.535 421.426 387.319 421.364 387.584 424.099C387.85 426.836 400.929 432.353 401.342 433.3C401.756 434.248 401.066 439.042 405.896 442.475C410.727 445.907 414.213 445.982 414.213 445.982" fill="white"/>
<path d="M414.212 445.982C414.212 445.988 414.147 445.993 414.02 445.988C413.893 445.982 413.706 445.968 413.461 445.933C412.972 445.865 412.255 445.72 411.363 445.429C410.468 445.142 409.402 444.702 408.23 444.066C407.069 443.416 405.75 442.643 404.508 441.485C403.265 440.341 402.248 438.691 401.753 436.761C401.494 435.801 401.402 434.759 401.277 433.743C401.26 433.614 401.231 433.498 401.197 433.396C401.169 433.325 401.087 433.261 400.986 433.18C400.785 433.029 400.557 432.891 400.329 432.755C399.87 432.485 399.391 432.226 398.906 431.965C396.959 430.928 394.887 429.879 392.797 428.678C391.752 428.079 390.702 427.441 389.682 426.714C389.175 426.343 388.675 425.955 388.218 425.493C387.989 425.265 387.779 425.007 387.602 424.713C387.524 424.557 387.445 424.401 387.416 424.21C387.377 424.027 387.386 423.879 387.368 423.712C387.342 423.067 387.364 422.374 387.715 421.76C387.887 421.453 388.174 421.223 388.427 421.046C388.555 420.954 388.669 420.87 388.737 420.778C388.761 420.755 388.718 420.786 388.815 420.7C388.919 420.636 388.938 420.658 388.973 420.65C389.052 420.645 389.077 420.659 389.132 420.662C389.218 420.679 389.299 420.698 389.377 420.72C390.593 421.095 391.705 421.584 392.821 422.043C395.039 422.978 397.158 423.922 399.174 424.828C403.203 426.643 406.813 428.319 409.838 429.737C410.596 430.084 411.312 430.447 411.998 430.738C412.696 431.012 413.356 431.272 413.974 431.515C415.2 432 416.259 432.42 417.138 432.767C417.983 433.109 418.649 433.379 419.132 433.574C419.342 433.664 419.511 433.735 419.647 433.794C419.762 433.845 419.82 433.874 419.817 433.88C419.816 433.886 419.754 433.869 419.634 433.83C419.493 433.781 419.319 433.721 419.104 433.645C418.615 433.466 417.939 433.219 417.083 432.905C416.198 432.573 415.129 432.173 413.893 431.71C413.271 431.475 412.606 431.224 411.902 430.958C411.199 430.67 410.491 430.321 409.727 429.98C406.673 428.601 403.051 426.962 399.032 425.146C397.013 424.251 394.892 423.312 392.678 422.385C391.571 421.932 390.436 421.438 389.278 421.084C389.206 421.062 389.135 421.047 389.069 421.034C389.046 421.032 388.994 421.021 388.995 421.026C388.991 421.014 388.997 421.054 388.983 420.996C388.959 420.927 388.989 420.937 388.969 420.904C388.964 420.893 388.955 420.884 388.943 420.877C389.198 421.05 389.007 420.933 389.061 420.976L389.039 421.004C388.919 421.162 388.773 421.26 388.648 421.352C388.394 421.532 388.178 421.707 388.039 421.954C387.755 422.443 387.717 423.081 387.746 423.695C387.765 424.025 387.78 424.28 387.933 424.529C388.083 424.777 388.271 425.015 388.489 425.229C388.919 425.664 389.406 426.046 389.902 426.408C390.903 427.124 391.945 427.758 392.982 428.358C395.059 429.557 397.123 430.61 399.07 431.658C399.557 431.922 400.037 432.183 400.503 432.462C400.737 432.604 400.967 432.742 401.19 432.912C401.291 432.995 401.434 433.096 401.508 433.271C401.558 433.418 401.589 433.558 401.605 433.689C401.73 434.75 401.81 435.74 402.057 436.684C402.526 438.564 403.493 440.164 404.695 441.293C405.888 442.43 407.194 443.221 408.332 443.881C409.484 444.529 410.531 444.983 411.409 445.29C412.288 445.598 412.993 445.766 413.473 445.858C413.714 445.905 413.899 445.931 414.024 445.95C414.148 445.967 414.212 445.975 414.212 445.982Z" fill="#E1E1E1"/>
<path d="M389.461 447.036C389.467 447.016 389.782 447.076 390.32 447.287C390.856 447.497 391.616 447.869 392.436 448.51C392.841 448.836 393.27 449.209 393.659 449.696C394.031 450.174 394.409 450.82 394.311 451.586C394.214 452.357 393.555 452.965 392.816 453.203C392.052 453.459 391.224 453.337 390.463 453.129C387.456 452.213 384.839 451.107 383.023 450.141C382.116 449.659 381.406 449.224 380.931 448.904C380.453 448.584 380.204 448.386 380.218 448.366C380.234 448.342 380.509 448.498 381.007 448.778C381.504 449.058 382.229 449.454 383.144 449.902C384.971 450.799 387.596 451.86 390.564 452.763C391.294 452.967 392.05 453.067 392.698 452.851C393.348 452.645 393.885 452.138 393.966 451.536C394.059 450.93 393.752 450.344 393.41 449.888C393.059 449.426 392.647 449.045 392.268 448.717C390.702 447.426 389.424 447.109 389.461 447.036Z" fill="#E1E1E1"/>
<g opacity="0.300003">
<g opacity="0.300003">
<path opacity="0.300003" d="M494.82 445.595C487.558 421.103 481.154 389.557 473.892 365.065C471.238 387.677 474.56 417.528 478.722 439.912C479.21 442.534 479.434 445.106 481.469 446.831L494.82 445.595Z" fill="black"/>
</g>
</g>
<path d="M482.928 428.781C482.831 428.804 482.524 427.183 481.539 424.737C481.057 423.511 480.351 422.107 479.456 420.617C478.531 419.145 477.4 417.598 476.043 416.12C474.668 414.657 473.209 413.413 471.809 412.382C470.39 411.378 469.041 410.57 467.855 409.999C465.489 408.835 463.894 408.41 463.926 408.315C463.934 408.283 464.333 408.379 465.049 408.581C465.41 408.675 465.847 408.807 466.338 409.007C466.83 409.2 467.405 409.39 468.001 409.692C469.222 410.232 470.61 411.02 472.066 412.02C473.504 413.048 474.997 414.304 476.396 415.792C477.776 417.296 478.917 418.879 479.834 420.388C480.724 421.914 481.408 423.356 481.856 424.614C482.113 425.23 482.26 425.818 482.416 426.324C482.578 426.828 482.677 427.273 482.746 427.64C482.894 428.37 482.96 428.775 482.928 428.781Z" fill="#1A2E35"/>
<path d="M496.775 304.708C496.775 304.708 473.549 356.586 473.549 366.111C473.549 375.636 490.952 441.811 490.952 441.811C490.788 444.438 490.109 457.628 490.109 457.628L587.664 457.962L589.149 436.992L581.535 417.008L589.143 360.516C589.143 360.516 594.263 327.716 594.718 318.544C595.287 307.065 556.408 293.761 557.467 292.173L550.754 283.186L512.289 314.417L504.689 292.466L495.584 301.074L496.775 304.708Z" fill="#0197F6"/>
<path d="M560.66 318.509C550.102 336.374 530.777 368.932 530.777 368.932L496.149 408.414C496.149 408.414 493.885 428.478 498.415 434.627C502.946 440.776 510.712 444.983 510.712 444.983C510.712 444.983 519.855 444.983 531.465 435.274C543.075 425.566 575.114 385.436 575.114 385.436L586.117 372.168C586.117 372.168 599.232 339.939 596.784 323.537C595.839 317.214 593.148 314.582 589.554 311.682C580.527 304.398 566.561 308.522 560.66 318.509Z" fill="#0197F6"/>
<path d="M590.183 360.968C590.19 360.971 590.136 361.095 590.023 361.334C589.898 361.59 589.728 361.939 589.51 362.385C589.05 363.305 588.347 364.65 587.384 366.351C585.473 369.761 582.504 374.579 578.617 380.385C576.672 383.286 574.496 386.434 572.11 389.779C569.747 393.142 566.998 396.569 564.76 400.598C562.465 404.589 560.493 409.025 558.041 413.427C555.59 417.825 552.698 422.194 549.241 426.277C545.778 430.35 541.859 433.9 537.576 436.589C533.308 439.298 528.652 441.05 524.071 441.819C519.489 442.611 514.974 442.353 510.985 441.265C508.983 440.739 507.135 439.932 505.453 439.02C503.763 438.116 502.226 437.081 500.893 435.934C499.546 434.806 498.387 433.579 497.455 432.297C496.485 431.042 495.774 429.717 495.18 428.457C494.043 425.9 493.565 423.519 493.319 421.58C493.122 419.631 493.112 418.108 493.161 417.08C493.19 416.584 493.212 416.197 493.229 415.912C493.246 415.649 493.26 415.514 493.269 415.515C493.276 415.515 493.28 415.651 493.278 415.915C493.272 416.199 493.267 416.586 493.258 417.083C493.239 418.108 493.281 419.624 493.504 421.558C493.777 423.48 494.278 425.832 495.425 428.345C496.024 429.584 496.734 430.884 497.699 432.114C498.626 433.369 499.777 434.569 501.113 435.673C502.432 436.796 503.954 437.808 505.629 438.693C507.297 439.586 509.115 440.369 511.092 440.879C515.023 441.935 519.476 442.175 523.998 441.381C528.52 440.61 533.108 438.874 537.325 436.19C541.557 433.526 545.436 430.008 548.874 425.967C552.305 421.914 555.187 417.569 557.629 413.198C560.074 408.824 562.056 404.388 564.376 400.377C566.643 396.324 569.418 392.887 571.786 389.547C574.184 386.215 576.374 383.082 578.335 380.195C582.254 374.419 585.264 369.635 587.222 366.258C588.208 364.574 588.938 363.245 589.424 362.34C589.66 361.904 589.844 361.563 589.979 361.31C590.106 361.08 590.176 360.964 590.183 360.968Z" fill="#1A2E35"/>
<path d="M494.416 406.631C494.457 406.701 493.923 407.002 493.287 407.711C492.654 408.404 491.948 409.577 491.813 411.007C491.684 412.437 492.163 413.719 492.659 414.518C493.154 415.331 493.624 415.725 493.57 415.785C493.543 415.829 492.979 415.522 492.376 414.706C491.776 413.912 491.192 412.535 491.334 410.962C491.482 409.391 492.308 408.146 493.044 407.473C493.788 406.783 494.396 406.584 494.416 406.631Z" fill="#1A2E35"/>
<path d="M500.784 417.114C500.79 417.098 500.978 417.141 501.326 417.238C501.502 417.284 501.714 417.357 501.971 417.415C502.239 417.465 502.538 417.518 502.866 417.579C504.214 417.799 506.239 417.774 508.578 417.049C510.902 416.304 513.505 414.872 515.929 412.727C518.357 410.583 520.54 407.722 522.82 404.731C525.092 401.732 527.386 398.91 529.918 396.795C531.175 395.74 532.408 394.805 533.435 393.801C534.461 392.805 535.285 391.726 535.745 390.617C536.613 388.341 536.03 386.205 535.213 385.166C534.359 384.09 533.499 383.984 533.543 383.919C533.547 383.905 533.732 383.95 534.081 384.073C534.41 384.231 534.906 384.499 535.359 385.049C536.263 386.11 536.935 388.319 536.063 390.741C535.593 391.927 534.756 393.05 533.715 394.084C532.677 395.125 531.441 396.079 530.206 397.132C527.729 399.232 525.474 402.024 523.201 405.023C520.922 408.012 518.714 410.89 516.221 413.06C513.738 415.225 511.066 416.655 508.677 417.373C506.273 418.073 504.197 418.045 502.836 417.764C502.505 417.686 502.205 417.617 501.935 417.554C501.679 417.479 501.469 417.391 501.297 417.331C500.955 417.203 500.778 417.129 500.784 417.114Z" fill="#1A2E35"/>
<path d="M565.358 313.022C565.371 313.033 565.237 313.225 564.97 313.58C564.671 313.968 564.278 314.48 563.787 315.119C562.734 316.432 561.283 318.392 559.517 320.83C556.017 325.729 551.524 332.744 547.195 340.851C542.84 348.947 539.232 356.457 536.472 361.817C535.1 364.503 533.972 366.667 533.159 368.143C532.769 368.848 532.457 369.413 532.218 369.842C531.999 370.228 531.877 370.427 531.862 370.419C531.847 370.411 531.94 370.197 532.132 369.797C532.35 369.357 532.636 368.779 532.994 368.056C533.767 366.5 534.846 364.328 536.168 361.665C538.848 356.268 542.407 348.734 546.772 340.623C551.109 332.5 555.663 325.489 559.241 320.631C561.047 318.213 562.542 316.281 563.641 315.001C564.161 314.386 564.578 313.893 564.895 313.518C565.186 313.183 565.345 313.011 565.358 313.022Z" fill="#1A2E35"/>
<g opacity="0.300003">
<g opacity="0.300003">
<path opacity="0.300003" d="M493.268 415.515C497.772 417.957 502.717 417.697 507.745 416.71C512.772 415.723 517.427 412.937 520.675 408.973C519.801 413.363 517.921 417.653 514.718 420.78C511.515 423.907 506.879 425.727 502.478 424.92C498.074 424.114 493.632 419.975 493.268 415.515Z" fill="black"/>
</g>
</g>
<g opacity="0.300003">
<g opacity="0.300003">
<path opacity="0.300003" d="M535.863 388.854C538.695 393.193 539.707 398.682 538.607 403.746C542.422 397.905 543.317 390.51 542.291 383.609C541.264 376.708 538.462 370.201 535.339 363.962C535.339 363.962 531.893 369.777 531.862 370.419C531.695 373.777 532.931 380.1 533.58 383.4C535.315 385.034 536.135 387.582 535.68 389.922" fill="black"/>
</g>
</g>
<g opacity="0.300003">
<g opacity="0.300003">
<path opacity="0.300003" d="M508.535 439.685C517.717 446.842 531.342 447.179 541.387 441.298C551.062 435.635 557.018 425.439 562.547 415.686C571.106 400.589 581.549 381.921 587.663 365.679C587.663 365.679 570.523 389.065 565.358 399.144C561.46 406.75 558.469 411.761 553.67 418.832C544.023 433.037 526.557 441.545 509.426 440.383" fill="black"/>
</g>
</g>
<path d="M490.109 457.628C490.099 457.627 490.094 457.529 490.095 457.339C490.098 457.112 490.104 456.836 490.11 456.495C490.138 455.711 490.177 454.639 490.226 453.295C490.355 450.484 490.535 446.543 490.752 441.802L490.761 441.868C489.101 436.326 487.16 429.604 485.153 422.342C482.49 412.717 480.243 403.958 478.733 397.591C477.978 394.406 477.389 391.824 477.021 390.033C476.846 389.171 476.706 388.483 476.6 387.968C476.509 387.495 476.469 387.244 476.486 387.241C476.501 387.238 476.574 387.48 476.694 387.946C476.822 388.457 476.991 389.137 477.203 389.991C477.654 391.815 478.286 394.371 479.062 397.51C480.658 403.852 482.955 412.592 485.617 422.214C487.623 429.473 489.534 436.203 491.142 441.754L491.153 441.79L491.151 441.821C490.863 446.56 490.625 450.497 490.454 453.307C490.36 454.648 490.284 455.719 490.23 456.503C490.2 456.841 490.175 457.117 490.156 457.342C490.135 457.532 490.121 457.628 490.109 457.628Z" fill="#1A2E35"/>
<path d="M587.705 311.127C587.678 311.201 586.708 310.857 585.106 310.46C583.504 310.06 581.252 309.658 578.738 309.579C576.222 309.507 573.95 309.774 572.328 310.077C570.705 310.377 569.715 310.663 569.692 310.588C569.682 310.557 569.919 310.453 570.359 310.295C570.796 310.131 571.445 309.939 572.258 309.744C573.882 309.352 576.192 309.026 578.753 309.099C581.311 309.178 583.597 309.643 585.194 310.132C585.993 310.375 586.631 310.605 587.058 310.795C587.487 310.98 587.718 311.096 587.705 311.127Z" fill="#1A2E35"/>
<path d="M556.804 294.093C556.819 294.103 556.734 294.267 556.558 294.573C556.352 294.921 556.092 295.359 555.772 295.897C555.079 297.041 554.049 298.68 552.747 300.687C550.132 304.692 546.394 310.148 541.971 315.957C538.413 320.639 534.966 324.84 532.143 328.132L531.945 328.364L531.819 328.089C530.479 325.147 529.368 322.711 528.563 320.944C528.203 320.128 527.913 319.467 527.689 318.958C527.495 318.499 527.4 318.251 527.418 318.244C527.436 318.236 527.566 318.466 527.794 318.908C528.042 319.406 528.364 320.052 528.761 320.85C529.605 322.599 530.766 325.012 532.171 327.925L531.847 327.881C534.622 324.556 538.036 320.34 541.588 315.666C546.004 309.866 549.779 304.451 552.464 300.499C553.767 298.554 554.834 296.961 555.614 295.797C555.965 295.279 556.249 294.856 556.476 294.521C556.678 294.232 556.791 294.084 556.804 294.093Z" fill="#1A2E35"/>
<path d="M579.262 443.069C579.129 443.054 579.553 438.259 580.207 432.359C580.861 426.458 581.499 421.686 581.631 421.701C581.763 421.715 581.34 426.51 580.686 432.412C580.032 438.312 579.394 443.084 579.262 443.069Z" fill="#1A2E35"/>
<path d="M512.393 441.812C512.525 441.798 513.019 445.402 513.494 449.861C513.969 454.321 514.248 457.948 514.116 457.961C513.984 457.976 513.491 454.373 513.016 449.912C512.539 445.453 512.261 441.826 512.393 441.812Z" fill="#1A2E35"/>
<path d="M561.739 336.289C561.618 335.525 560.561 335.105 559.948 335.576L559.885 335.628C559.309 336.144 559.527 337.261 560.257 337.52C560.985 337.779 561.861 337.052 561.739 336.289Z" fill="white"/>
<path d="M552.106 312.808C551.984 312.044 550.927 311.624 550.314 312.096L550.252 312.148C549.675 312.663 549.894 313.78 550.623 314.039C551.352 314.299 552.227 313.572 552.106 312.808Z" fill="white"/>
<path d="M529.997 331.715C529.876 330.951 528.819 330.532 528.206 331.003L528.144 331.055C527.567 331.57 527.786 332.687 528.515 332.947C529.244 333.205 530.119 332.478 529.997 331.715Z" fill="white"/>
<path d="M506.097 322.221C505.976 321.457 504.919 321.037 504.307 321.509L504.244 321.56C503.667 322.076 503.886 323.193 504.615 323.451C505.344 323.711 506.219 322.984 506.097 322.221Z" fill="white"/>
<path d="M501.869 312.862C501.748 312.098 500.691 311.677 500.079 312.149L500.016 312.201C499.439 312.717 499.658 313.834 500.387 314.092C501.115 314.352 501.991 313.625 501.869 312.862Z" fill="white"/>
<path d="M503.706 302.047C503.584 301.283 502.527 300.863 501.915 301.335L501.852 301.387C501.276 301.902 501.494 303.019 502.224 303.278C502.952 303.538 503.827 302.811 503.706 302.047Z" fill="white"/>
<path d="M490.47 316.922C490.349 316.158 489.292 315.738 488.679 316.209L488.616 316.261C488.04 316.777 488.259 317.894 488.988 318.153C489.717 318.412 490.591 317.685 490.47 316.922Z" fill="white"/>
<path d="M521.13 321.211C521.008 320.448 519.951 320.028 519.339 320.5L519.276 320.551C518.7 321.067 518.918 322.184 519.647 322.443C520.376 322.702 521.251 321.975 521.13 321.211Z" fill="white"/>
<path d="M495.172 340.489C495.051 339.725 493.994 339.306 493.382 339.777L493.319 339.829C492.742 340.344 492.96 341.461 493.69 341.721C494.418 341.98 495.294 341.252 495.172 340.489Z" fill="white"/>
<path d="M471.411 395.942C471.289 395.179 470.232 394.759 469.621 395.231L469.558 395.283C468.981 395.798 469.2 396.915 469.929 397.174C470.657 397.434 471.532 396.706 471.411 395.942Z" fill="white"/>
<path d="M479.889 363.961C479.768 363.197 478.711 362.778 478.098 363.249L478.036 363.301C477.459 363.816 477.677 364.933 478.407 365.192C479.135 365.452 480.011 364.724 479.889 363.961Z" fill="white"/>
<path d="M542.38 307.801C542.258 307.038 541.201 306.617 540.589 307.09L540.527 307.141C539.95 307.657 540.168 308.774 540.897 309.033C541.626 309.292 542.501 308.565 542.38 307.801Z" fill="white"/>
<path d="M572.204 371.484C572.082 370.721 571.025 370.301 570.413 370.773L570.351 370.825C569.773 371.34 569.992 372.457 570.721 372.716C571.45 372.976 572.325 372.248 572.204 371.484Z" fill="white"/>
<path d="M583.825 316.681C583.703 315.917 582.646 315.497 582.033 315.969L581.972 316.021C581.394 316.537 581.613 317.653 582.342 317.913C583.071 318.171 583.946 317.444 583.825 316.681Z" fill="white"/>
<path d="M579.262 352.57C579.14 351.806 578.083 351.387 577.471 351.858L577.409 351.911C576.831 352.426 577.05 353.542 577.779 353.802C578.508 354.061 579.383 353.334 579.262 352.57Z" fill="white"/>
<path d="M553.202 378.485C553.081 377.721 552.024 377.301 551.411 377.773L551.349 377.825C550.772 378.341 550.99 379.457 551.72 379.716C552.448 379.975 553.324 379.249 553.202 378.485Z" fill="white"/>
<path d="M554.299 356.913C554.177 356.149 553.12 355.729 552.508 356.201L552.446 356.252C551.868 356.768 552.087 357.885 552.816 358.144C553.545 358.403 554.42 357.676 554.299 356.913Z" fill="white"/>
<path d="M570.021 316.868C569.9 316.105 568.843 315.684 568.231 316.156L568.168 316.208C567.592 316.724 567.811 317.841 568.539 318.099C569.268 318.359 570.143 317.632 570.021 316.868Z" fill="white"/>
<path d="M548.856 295.967C548.735 295.203 547.678 294.783 547.065 295.255L547.002 295.306C546.426 295.822 546.645 296.939 547.374 297.198C548.103 297.457 548.978 296.73 548.856 295.967Z" fill="white"/>
<path d="M548.088 329.66C547.967 328.897 546.91 328.476 546.297 328.948L546.234 329C545.658 329.516 545.877 330.632 546.606 330.891C547.334 331.151 548.21 330.424 548.088 329.66Z" fill="white"/>
<path d="M521.067 432.444C520.946 431.68 519.888 431.26 519.277 431.732L519.214 431.784C518.637 432.299 518.856 433.416 519.585 433.675C520.313 433.935 521.188 433.208 521.067 432.444Z" fill="white"/>
<path d="M490.073 415.542C489.952 414.779 488.894 414.358 488.282 414.83L488.219 414.882C487.643 415.398 487.861 416.514 488.591 416.773C489.319 417.032 490.194 416.306 490.073 415.542Z" fill="white"/>
<path d="M465.011 423.826C464.889 423.062 463.832 422.643 463.219 423.114L463.158 423.166C462.58 423.681 462.799 424.798 463.528 425.057C464.257 425.317 465.132 424.589 465.011 423.826Z" fill="white"/>
<path d="M462.329 438.1C462.207 437.337 461.15 436.916 460.538 437.388L460.475 437.44C459.899 437.956 460.117 439.072 460.847 439.331C461.575 439.59 462.45 438.864 462.329 438.1Z" fill="white"/>
<path d="M485.826 442.882C485.704 442.118 484.647 441.698 484.034 442.169L483.972 442.222C483.395 442.737 483.614 443.854 484.343 444.113C485.072 444.372 485.947 443.646 485.826 442.882Z" fill="white"/>
<path d="M477.968 410.916C477.847 410.152 476.79 409.733 476.177 410.204L476.115 410.256C475.538 410.772 475.757 411.888 476.486 412.148C477.215 412.406 478.09 411.68 477.968 410.916Z" fill="white"/>
<path d="M506.797 419.039C506.675 418.275 505.619 417.855 505.006 418.327L504.944 418.378C504.367 418.894 504.586 420.011 505.315 420.27C506.044 420.529 506.918 419.802 506.797 419.039Z" fill="white"/>
<path d="M575.326 410.863C575.204 410.099 574.147 409.679 573.535 410.151L573.473 410.202C572.896 410.718 573.114 411.835 573.844 412.094C574.572 412.353 575.447 411.626 575.326 410.863Z" fill="white"/>
<path d="M532.924 451.493C532.803 450.729 531.746 450.309 531.133 450.78L531.07 450.832C530.494 451.348 530.713 452.465 531.442 452.723C532.171 452.983 533.046 452.256 532.924 451.493Z" fill="white"/>
<path d="M551.008 428.875C550.887 428.112 549.831 427.692 549.218 428.164L549.155 428.216C548.579 428.731 548.797 429.847 549.527 430.107C550.255 430.366 551.13 429.639 551.008 428.875Z" fill="white"/>
<path d="M561.751 447.269C561.629 446.506 560.572 446.086 559.959 446.558L559.897 446.61C559.32 447.125 559.539 448.242 560.268 448.501C560.997 448.76 561.872 448.033 561.751 447.269Z" fill="white"/>
<path d="M531.862 350.942C531.74 350.179 530.683 349.758 530.071 350.231L530.008 350.282C529.432 350.798 529.65 351.914 530.38 352.173C531.108 352.432 531.983 351.706 531.862 350.942Z" fill="white"/>
<path d="M556.183 397.9C556.062 397.136 555.005 396.717 554.392 397.188L554.329 397.24C553.753 397.755 553.971 398.872 554.701 399.132C555.429 399.39 556.304 398.663 556.183 397.9Z" fill="white"/>
<path d="M548.295 415.687C548.174 414.924 547.117 414.503 546.505 414.976L546.442 415.027C545.865 415.543 546.084 416.66 546.813 416.919C547.542 417.178 548.417 416.451 548.295 415.687Z" fill="white"/>
<path d="M574.229 429.973C574.108 429.209 573.051 428.79 572.438 429.261L572.375 429.313C571.799 429.829 572.018 430.945 572.747 431.205C573.476 431.463 574.351 430.737 574.229 429.973Z" fill="white"/>
<path d="M503.266 450.598C503.145 449.834 502.088 449.415 501.476 449.886L501.413 449.938C500.836 450.453 501.055 451.57 501.784 451.83C502.512 452.089 503.388 451.362 503.266 450.598Z" fill="white"/>
<path d="M444.134 445.202C444.013 444.439 442.956 444.019 442.343 444.491L442.28 444.542C441.704 445.058 441.923 446.175 442.652 446.434C443.381 446.693 444.256 445.966 444.134 445.202Z" fill="white"/>
<path d="M496.207 435.49C496.086 434.727 495.029 434.307 494.416 434.779L494.354 434.831C493.777 435.346 493.996 436.462 494.725 436.722C495.453 436.981 496.329 436.255 496.207 435.49Z" fill="white"/>
<path d="M446.327 424.924C446.206 424.16 445.149 423.74 444.537 424.212L444.474 424.264C443.897 424.779 444.116 425.896 444.845 426.155C445.574 426.415 446.449 425.688 446.327 424.924Z" fill="white"/>
<path d="M529.669 391.39C529.547 390.626 528.49 390.206 527.878 390.677L527.815 390.729C527.239 391.245 527.457 392.362 528.187 392.621C528.915 392.88 529.79 392.153 529.669 391.39Z" fill="white"/>
<path d="M512.227 340.489C512.105 339.725 511.048 339.306 510.436 339.777L510.374 339.829C509.796 340.344 510.015 341.461 510.744 341.721C511.473 341.98 512.348 341.252 512.227 340.489Z" fill="white"/>
<path d="M507.869 384.63C507.748 383.867 506.691 383.447 506.079 383.919L506.016 383.97C505.439 384.486 505.658 385.602 506.387 385.862C507.115 386.12 507.991 385.394 507.869 384.63Z" fill="white"/>
<path d="M500.773 370.232C500.651 369.468 499.594 369.048 498.983 369.52L498.92 369.572C498.343 370.088 498.561 371.204 499.291 371.464C500.019 371.722 500.894 370.996 500.773 370.232Z" fill="white"/>
<path d="M532.154 415.488C532.033 414.724 530.976 414.305 530.364 414.776L530.301 414.828C529.724 415.343 529.943 416.46 530.672 416.719C531.401 416.979 532.276 416.252 532.154 415.488Z" fill="white"/>
<path d="M510.034 406.608C509.912 405.845 508.855 405.424 508.243 405.896L508.18 405.948C507.604 406.464 507.822 407.581 508.552 407.839C509.28 408.099 510.155 407.372 510.034 406.608Z" fill="white"/>
<path d="M519.503 357.868C519.382 357.105 518.325 356.684 517.712 357.156L517.65 357.208C517.073 357.724 517.291 358.841 518.021 359.099C518.749 359.359 519.625 358.632 519.503 357.868Z" fill="white"/>
<path d="M485.826 392.38C485.704 391.616 484.647 391.197 484.034 391.668L483.972 391.72C483.395 392.235 483.614 393.352 484.343 393.611C485.072 393.871 485.947 393.143 485.826 392.38Z" fill="white"/>
<path d="M537.807 376.539C537.686 375.775 536.628 375.356 536.016 375.827L535.953 375.879C535.377 376.394 535.595 377.511 536.325 377.771C537.053 378.03 537.928 377.303 537.807 376.539Z" fill="white"/>
<path d="M586.018 335.19C585.896 334.427 584.839 334.007 584.227 334.479L584.165 334.531C583.587 335.046 583.806 336.162 584.535 336.422C585.264 336.682 586.139 335.954 586.018 335.19Z" fill="white"/>
<path d="M566.443 303.88C566.321 303.117 565.264 302.696 564.653 303.168L564.59 303.22C564.013 303.736 564.231 304.853 564.961 305.111C565.689 305.371 566.564 304.644 566.443 303.88Z" fill="white"/>
<path d="M528.504 307.801C528.382 307.038 527.325 306.617 526.712 307.09L526.65 307.141C526.073 307.657 526.292 308.774 527.021 309.033C527.75 309.292 528.625 308.565 528.504 307.801Z" fill="white"/>
<path d="M489.806 195.412C482.53 200.042 479.625 209.745 481.013 215.479C481.712 218.37 483.024 221.277 482.451 224.195C481.957 226.716 480.144 228.733 478.787 230.915C474.263 238.194 475.064 248.378 480.671 254.859C486.279 261.339 496.242 263.596 504.095 260.165" fill="#1A2E35"/>
<path d="M485.501 233.28C467.799 194.346 509.905 174.787 532.88 181.276C554.473 187.374 563.682 198.12 567.235 212.562C570.79 227.01 570.62 242.657 564.958 256.417C562.165 263.202 557.137 270.096 549.849 270.943" fill="#1A2E35"/>
<path d="M506.24 328.361C505.935 309.759 505.719 284.206 505.712 284.312C505.712 284.312 489.722 281.657 486.409 260.796C484.762 250.421 485.283 233.41 486.16 219.506C486.948 206.991 495.241 191.634 507.711 192.954L546.65 202.796C550.439 203.196 553.291 206.429 553.216 210.238L550.679 290.782" fill="white"/>
<path d="M493.121 232.245C493.056 233.65 494.189 234.863 495.655 234.959C497.116 235.055 498.358 233.997 498.424 232.593C498.49 231.189 497.355 229.974 495.894 229.878C494.429 229.782 493.188 230.842 493.121 232.245Z" fill="#1A2E35"/>
<path d="M520.764 232.245C520.699 233.65 521.832 234.863 523.298 234.959C524.759 235.055 526.001 233.997 526.066 232.593C526.133 231.189 524.999 229.974 523.537 229.878C522.072 229.782 520.831 230.842 520.764 232.245Z" fill="#1A2E35"/>
<path d="M490.242 227.385C490.562 227.745 492.638 226.312 495.515 226.417C498.39 226.479 500.453 228.029 500.777 227.687C500.935 227.537 500.618 226.895 499.721 226.195C498.839 225.498 497.316 224.799 495.523 224.746C493.73 224.696 492.201 225.306 491.312 225.953C490.405 226.602 490.083 227.223 490.242 227.385Z" fill="#1A2E35"/>
<path d="M517.565 228.073C517.899 228.42 519.922 226.911 522.799 226.907C525.674 226.859 527.793 228.331 528.105 227.977C528.257 227.82 527.92 227.192 526.993 226.527C526.085 225.864 524.538 225.222 522.744 225.237C520.951 225.255 519.445 225.922 518.581 226.602C517.701 227.284 517.402 227.917 517.565 228.073Z" fill="#1A2E35"/>
<path d="M507.701 250.243C507.715 250.079 505.924 249.77 503.024 249.399C502.289 249.323 501.594 249.178 501.47 248.676C501.296 248.144 501.604 247.352 501.96 246.497C502.652 244.718 503.375 242.853 504.135 240.899C507.154 232.928 509.339 226.374 509.017 226.256C508.696 226.137 505.987 232.5 502.968 240.471C502.241 242.437 501.546 244.311 500.885 246.103C500.606 246.938 500.128 247.886 500.503 248.988C500.701 249.537 501.242 249.936 501.713 250.063C502.183 250.207 502.598 250.214 502.961 250.237C505.879 250.394 507.69 250.407 507.701 250.243Z" fill="#1A2E35"/>
<path d="M505.712 284.312C505.712 284.312 519.746 285.216 533.651 276.86C533.651 276.86 526.592 291.373 505.712 289.421V284.312Z" fill="#E1E1E1"/>
<path d="M516.854 223.979C517.138 224.761 520.013 224.39 523.39 224.797C526.777 225.137 529.5 226.126 529.948 225.424C530.149 225.087 529.673 224.351 528.573 223.594C527.481 222.837 525.738 222.118 523.711 221.892C521.684 221.67 519.826 221.992 518.596 222.492C517.356 222.992 516.732 223.607 516.854 223.979Z" fill="#1A2E35"/>
<path d="M490.907 220.15C491.414 220.804 493.398 220.126 495.783 220.093C498.166 219.978 500.187 220.533 500.652 219.848C500.857 219.516 500.538 218.862 499.656 218.243C498.785 217.625 497.331 217.122 495.692 217.171C494.053 217.223 492.634 217.816 491.804 218.486C490.962 219.157 490.685 219.831 490.907 220.15Z" fill="#1A2E35"/>
<path d="M549.638 237.702C549.943 237.554 560.804 232.751 560.933 245.241C561.059 257.73 548.493 255.282 548.467 254.924C548.442 254.566 549.638 237.702 549.638 237.702Z" fill="white"/>
<path d="M552.236 250.153C552.29 250.113 552.455 250.304 552.824 250.468C553.183 250.628 553.802 250.735 554.45 250.485C555.765 249.987 556.855 247.881 556.892 245.63C556.912 244.493 556.664 243.412 556.252 242.52C555.861 241.61 555.263 240.978 554.598 240.867C553.936 240.721 553.469 241.123 553.32 241.476C553.156 241.827 553.238 242.076 553.172 242.098C553.138 242.129 552.903 241.892 552.997 241.374C553.046 241.126 553.189 240.83 553.481 240.587C553.778 240.34 554.217 240.211 554.68 240.256C555.644 240.314 556.521 241.191 556.973 242.17C557.48 243.153 557.785 244.367 557.762 245.644C557.709 248.161 556.445 250.529 554.643 251.07C553.767 251.307 553.032 251.05 552.65 250.759C552.26 250.455 552.192 250.176 552.236 250.153Z" fill="#E1E1E1"/>
<path d="M503.552 186.793C496.603 190.383 493.743 204.6 496.618 211.874C499.493 219.148 507.241 222.701 514.882 224.374C522.522 226.049 530.013 226.246 537.548 224.151C538.072 229.218 541.11 234.42 546.027 235.757C552.535 237.527 559.096 231.566 560.545 224.979C561.993 218.39 559.822 211.605 557.678 205.21" fill="#1A2E35"/>
<path d="M558.66 232.114C558.69 232.153 558.348 232.477 557.698 233.024C557.045 233.568 556.087 234.345 554.817 235.197C553.546 236.039 551.941 236.975 549.96 237.547C548.007 238.113 545.613 238.318 543.332 237.45C541.056 236.585 539.377 234.861 538.315 233.113C537.24 231.344 536.758 229.527 536.518 228.014C536.284 226.492 536.286 225.248 536.321 224.396C536.362 223.544 536.438 223.077 536.485 223.08C536.622 223.077 536.473 224.978 537.02 227.925C537.316 229.384 537.834 231.112 538.881 232.762C539.914 234.4 541.505 235.986 543.589 236.775C545.671 237.571 547.907 237.412 549.783 236.906C551.675 236.398 553.258 235.54 554.543 234.767C557.094 233.171 558.587 232.011 558.66 232.114Z" fill="#1A2E35"/>
<path d="M508.552 258.265C508.971 259.327 509.401 260.406 510.104 261.306C510.806 262.207 511.835 262.92 512.975 262.974C514.191 263.032 515.363 262.312 516.042 261.301C516.721 260.291 516.952 259.031 516.896 257.815C516.847 256.715 516.345 255.402 515.251 255.273C514.796 255.219 514.348 255.395 513.924 255.568C512.01 256.344 510.095 257.12 508.181 257.897" fill="#E1E1E1"/>
<path d="M510.846 262.99C510.875 262.81 512.136 263.322 513.909 262.612C514.767 262.266 515.707 261.582 516.224 260.507C516.742 259.445 516.845 258.007 516.3 256.75C516.174 256.435 515.985 256.148 515.799 255.891C515.572 255.653 515.613 255.664 515.367 255.7C515.132 255.764 514.753 255.941 514.445 256.061C514.126 256.192 513.811 256.32 513.502 256.446C512.272 256.943 511.16 257.378 510.22 257.729C508.338 258.432 507.148 258.801 507.093 258.671C507.037 258.541 508.127 257.935 509.935 257.062C510.839 256.626 511.922 256.121 513.132 255.577C513.436 255.441 513.745 255.302 514.06 255.16C514.396 255.023 514.651 254.872 515.11 254.729C515.334 254.665 515.652 254.63 515.962 254.753C516.266 254.876 516.454 255.082 516.595 255.254C516.852 255.596 517.079 255.947 517.241 256.343C517.917 257.913 517.754 259.651 517.066 260.938C516.363 262.254 515.167 262.993 514.151 263.295C513.117 263.614 512.227 263.537 511.662 263.392C511.091 263.242 510.824 263.048 510.846 262.99Z" fill="#1A2E35"/>
<path d="M563.643 229.153C562.364 229.063 552.048 230.398 552.862 249.574C553.62 267.483 566.185 263.539 570.195 256.797C573.992 250.409 576.186 230.033 563.643 229.153Z" fill="#EE2B47"/>
<path d="M570.021 231.418C570.008 231.418 569.992 231.245 569.973 230.913C569.959 230.54 569.937 230.056 569.912 229.453C569.876 228.129 569.824 226.284 569.76 223.991C569.666 219.281 569.535 212.74 569.383 205.184L569.615 205.413C567.913 205.415 566.125 205.417 564.296 205.42L564.535 205.175C564.574 206.603 564.614 208.109 564.655 209.637C564.835 216.832 565 223.534 565.14 229.143L565.144 229.308L564.984 229.345C562.591 229.906 560.699 231.298 559.507 232.872C558.292 234.449 557.687 236.123 557.318 237.499C556.95 238.884 556.825 240.01 556.755 240.773C556.721 241.156 556.703 241.449 556.692 241.648C556.68 241.847 556.674 241.948 556.663 241.949C556.653 241.949 556.638 241.848 556.63 241.648C556.619 241.448 556.618 241.152 556.632 240.766C556.665 239.994 556.752 238.854 557.092 237.442C557.433 236.038 558.014 234.32 559.244 232.674C560.449 231.031 562.413 229.552 564.89 228.953L564.735 229.154C564.574 223.545 564.382 216.845 564.175 209.65C564.135 208.122 564.096 206.615 564.058 205.187L564.051 204.942H564.296C566.125 204.945 567.913 204.948 569.615 204.95H569.843L569.846 205.178C569.928 212.734 570.001 219.276 570.053 223.987C570.06 226.281 570.066 228.126 570.07 229.451C570.064 230.054 570.058 230.538 570.054 230.912C570.046 231.245 570.036 231.418 570.021 231.418Z" fill="#EE2B47"/>
<path d="M563.642 205.181C563.642 205.181 558.248 192.555 545.393 186.326C539.166 183.308 534.507 181.751 529.992 180.616C529.992 180.616 537.493 178.835 549.629 184.235C555.143 186.688 560.698 189.883 564.373 194.671C566.705 197.713 569.619 203.657 569.615 205.181H563.642Z" fill="#EE2B47"/>
<path d="M530.363 358.055C530.359 358.05 530.436 357.964 530.593 357.803C530.747 357.638 530.993 357.408 531.291 357.084C531.898 356.445 532.767 355.47 533.785 354.125C534.806 352.782 535.951 351.052 537.155 348.953C538.36 346.856 539.611 344.385 540.972 341.624C543.697 336.101 546.851 329.406 550.114 321.736C551.748 317.902 553.411 313.827 555.067 309.536C555.477 308.462 555.891 307.376 556.309 306.28C556.724 305.182 557.15 304.053 557.793 303.005C558.427 301.955 559.345 301.027 560.477 300.455C561.038 300.166 561.668 299.946 562.356 299.977C562.699 300.005 563.049 300.118 563.336 300.333C563.634 300.546 563.811 300.858 563.96 301.163L563.991 301.225L563.975 301.297C563.882 301.719 563.75 302.151 563.479 302.529C563.213 302.909 562.78 303.188 562.326 303.285C561.404 303.472 560.525 303.179 559.748 302.812C558.079 302.116 557.089 300.138 557.466 298.335C557.639 297.428 558.205 296.601 558.965 296.079C559.724 295.553 560.656 295.277 561.591 295.331C562.505 295.389 563.506 295.762 564.015 296.668C564.277 297.11 564.248 297.763 563.919 298.174C563.612 298.593 563.19 298.843 562.749 299.029C561.187 299.649 559.31 299.103 558.321 297.774C557.826 297.11 557.619 296.247 557.721 295.444C557.807 294.636 558.155 293.873 558.681 293.268C559.208 292.661 559.941 292.219 560.761 292.117C561.566 292.037 562.425 292.261 563.008 292.889C563.3 293.198 563.463 293.636 563.451 294.069C563.447 294.51 563.224 294.929 562.917 295.208C562.3 295.77 561.451 295.971 560.658 295.817C559.833 295.642 559.243 295.023 558.86 294.37C558.478 293.702 558.289 292.965 558.183 292.239C557.999 290.797 558.018 289.278 558.674 287.93C559.025 287.278 559.512 286.67 560.249 286.373C560.968 286.087 561.761 286.162 562.443 286.443C563.104 286.732 563.762 287.331 563.797 288.154C563.855 288.954 563.293 289.668 562.624 289.958C561.963 290.274 561.15 290.288 560.498 289.928C559.851 289.579 559.411 288.959 559.185 288.305C558.941 287.658 558.957 286.908 559.06 286.284C559.143 285.636 559.262 284.989 559.487 284.366C559.702 283.75 560.077 283.137 560.606 282.734C561.123 282.323 561.709 282.023 562.347 281.869C562.656 281.804 563.013 281.74 563.365 281.857C563.699 281.968 563.977 282.166 564.21 282.396C564.441 282.63 564.63 282.903 564.754 283.215C564.879 283.518 564.926 283.901 564.785 284.236C564.513 284.937 563.732 285.165 563.133 285.151C562.499 285.159 561.891 284.906 561.398 284.568C560.407 283.866 559.768 282.78 559.543 281.66C559.294 280.543 559.422 279.356 559.931 278.37C560.197 277.886 560.521 277.431 560.968 277.099C561.408 276.767 561.918 276.559 562.446 276.463C562.97 276.38 563.536 276.413 564.017 276.685C564.489 276.952 564.838 277.451 564.865 277.995C564.902 279.092 564.052 279.954 563.124 280.211C562.131 280.473 561.178 279.936 560.612 279.268C560.024 278.585 559.72 277.732 559.664 276.904C559.585 275.221 560.248 273.807 560.568 272.48C560.945 271.151 561.289 269.937 561.599 268.842C562.218 266.676 562.704 264.986 563.038 263.816C563.203 263.258 563.332 262.825 563.424 262.512C563.514 262.219 563.571 262.072 563.571 262.072C563.571 262.072 563.545 262.228 563.471 262.526C563.39 262.842 563.277 263.279 563.131 263.842C562.816 265.018 562.362 266.717 561.779 268.893C561.481 269.991 561.15 271.209 560.79 272.54C560.475 273.88 559.839 275.303 559.933 276.884C559.99 277.657 560.284 278.456 560.83 279.078C561.348 279.692 562.223 280.148 563.044 279.915C563.845 279.7 564.593 278.894 564.542 278.019C564.522 277.592 564.237 277.188 563.855 276.974C563.464 276.754 562.972 276.721 562.502 276.799C562.032 276.887 561.567 277.078 561.179 277.377C560.789 277.667 560.486 278.093 560.248 278.533C559.786 279.437 559.669 280.542 559.906 281.582C560.119 282.625 560.719 283.621 561.616 284.25C562.073 284.557 562.582 284.765 563.135 284.758C563.667 284.768 564.246 284.561 564.414 284.091C564.602 283.644 564.302 283.067 563.923 282.683C563.725 282.488 563.49 282.329 563.242 282.247C563.007 282.164 562.727 282.209 562.441 282.27C561.313 282.561 560.24 283.329 559.884 284.51C559.678 285.086 559.564 285.707 559.485 286.337C559.385 286.982 559.38 287.573 559.595 288.163C559.794 288.737 560.177 289.26 560.708 289.542C561.222 289.828 561.89 289.821 562.436 289.557C562.988 289.311 563.394 288.768 563.349 288.177C563.333 287.59 562.832 287.108 562.263 286.858C561.684 286.619 560.994 286.56 560.417 286.797C559.847 287.017 559.382 287.565 559.084 288.137C558.496 289.339 558.462 290.796 558.644 292.172C558.746 292.861 558.926 293.546 559.266 294.136C559.601 294.714 560.127 295.231 560.755 295.356C561.387 295.484 562.121 295.302 562.591 294.864C563.09 294.444 563.094 293.673 562.654 293.207C562.222 292.73 561.48 292.516 560.813 292.592C560.142 292.674 559.499 293.051 559.041 293.583C558.11 294.629 557.84 296.344 558.709 297.49C559.543 298.634 561.239 299.125 562.567 298.585C562.942 298.429 563.311 298.198 563.528 297.894C563.754 297.593 563.769 297.222 563.59 296.892C563.219 296.21 562.367 295.855 561.563 295.811C559.925 295.697 558.219 296.824 557.934 298.43C557.607 300.016 558.464 301.771 559.953 302.385C560.677 302.735 561.493 302.98 562.219 302.825C562.968 302.69 563.375 301.964 563.515 301.211L563.529 301.344C563.314 300.821 562.874 300.472 562.325 300.442C561.776 300.416 561.204 300.6 560.688 300.868C559.638 301.4 558.787 302.25 558.182 303.246C557.568 304.241 557.146 305.344 556.731 306.44C556.309 307.535 555.893 308.622 555.48 309.696C553.813 313.988 552.135 318.064 550.486 321.896C547.195 329.563 544.006 336.248 541.24 341.757C539.86 344.512 538.587 346.978 537.357 349.071C536.129 351.166 534.96 352.891 533.914 354.224C531.821 356.897 530.363 358.055 530.363 358.055Z" fill="white"/>
<path d="M574.839 220.16C574.756 220.178 574.878 218.852 573.999 216.744C573.145 214.675 571.047 211.866 567.366 210.101C565.54 209.239 563.352 208.694 560.975 208.538C558.595 208.382 556.034 208.61 553.392 209.117C548.096 210.091 542.535 212.378 536.307 213.315C533.187 213.725 530.096 213.705 527.159 213.306C524.219 212.893 521.468 212.06 518.935 211.076C513.899 208.997 509.839 206.097 506.961 203.167C504.069 200.246 502.2 197.449 501.16 195.407C500.866 194.915 500.649 194.454 500.48 194.046C500.307 193.651 500.158 193.311 500.031 193.024C499.923 192.768 499.835 192.56 499.764 192.392C499.708 192.249 499.681 192.174 499.689 192.171C499.697 192.167 499.738 192.237 499.811 192.373C499.893 192.536 499.994 192.736 500.12 192.984C500.257 193.266 500.419 193.597 500.608 193.984C500.791 194.383 501.019 194.835 501.325 195.318C502.408 197.32 504.305 200.063 507.201 202.925C510.08 205.797 514.117 208.634 519.101 210.665C521.607 211.625 524.325 212.439 527.224 212.839C530.123 213.226 533.166 213.241 536.239 212.839C542.383 211.917 547.953 209.645 553.31 208.681C555.979 208.181 558.579 207.964 561.001 208.14C563.422 208.317 565.65 208.891 567.515 209.795C571.258 211.64 573.357 214.544 574.172 216.673C574.614 217.744 574.729 218.643 574.815 219.238C574.827 219.517 574.837 219.743 574.846 219.927C574.85 220.081 574.848 220.16 574.839 220.16Z" fill="#EE2B47"/>
<path d="M560.896 200.25C560.898 200.267 560.67 200.307 560.234 200.368C559.799 200.427 559.156 200.522 558.334 200.665C556.686 200.94 554.328 201.463 551.426 202.186C548.528 202.905 545.052 203.776 541.095 204.187C537.147 204.606 532.747 204.57 528.211 203.907C523.672 203.25 519.446 202.04 515.764 200.56C512.081 199.076 508.925 197.361 506.421 195.709C505.18 194.868 504.066 194.09 503.132 193.353C502.214 192.592 501.391 191.979 500.784 191.4C500.202 190.853 499.734 190.414 499.378 190.079C499.06 189.773 498.9 189.607 498.911 189.595C498.923 189.583 499.106 189.725 499.444 190.008C499.814 190.325 500.299 190.741 500.906 191.259C501.529 191.813 502.366 192.403 503.294 193.139C504.24 193.851 505.361 194.605 506.605 195.423C511.608 198.623 519.248 202.149 528.28 203.431C532.775 204.088 537.134 204.137 541.051 203.746C544.972 203.363 548.436 202.532 551.348 201.855C554.261 201.174 556.643 200.697 558.305 200.48C559.135 200.365 559.783 200.299 560.223 200.272C560.663 200.241 560.895 200.234 560.896 200.25Z" fill="#EE2B47"/>
<path d="M562.271 262.153C562.265 262.168 562.141 262.131 561.909 262.047C561.681 261.955 561.347 261.806 560.951 261.551C560.158 261.056 559.102 260.129 558.248 258.668C557.381 257.213 556.807 255.245 556.589 253.044C556.376 250.841 556.375 248.414 556.58 245.878C556.794 243.342 557.222 240.947 557.767 238.812C558.304 236.683 558.947 234.769 559.829 233.327C560.699 231.877 561.75 230.946 562.549 230.459C562.948 230.211 563.282 230.06 563.513 229.972C563.744 229.888 563.87 229.858 563.875 229.873C563.894 229.913 563.403 230.086 562.653 230.614C561.905 231.136 560.928 232.073 560.123 233.499C559.305 234.918 558.707 236.798 558.198 238.919C557.681 241.039 557.271 243.409 557.059 245.918C556.857 248.424 556.844 250.836 557.03 253.001C557.22 255.162 557.746 257.075 558.543 258.499C559.332 259.934 560.315 260.867 561.056 261.396C561.799 261.936 562.291 262.108 562.271 262.153Z" fill="#1A2E35"/>
<path d="M521.805 264.807L512.33 266.667C510.902 266.947 509.517 266.016 509.237 264.588L509.167 264.24C508.888 262.811 509.818 261.426 511.246 261.147L520.722 259.287C522.15 259.007 523.535 259.937 523.816 261.365L523.884 261.714C524.164 263.142 523.234 264.527 521.805 264.807Z" fill="#EE2B47"/>
<path d="M522.531 260.709L566.366 246.957C567.451 246.617 568.607 247.217 568.953 248.299C569.313 249.421 568.663 250.618 567.524 250.925L522.699 263.036L522.531 260.709Z" fill="#EE2B47"/>
<path d="M554.931 254.664C554.922 254.632 555.44 254.452 556.383 254.153C557.409 253.841 558.76 253.43 560.391 252.932C562.072 252.413 564.138 251.866 566.322 251.149C566.849 250.946 567.362 250.67 567.758 250.266C568.139 249.872 568.385 249.303 568.375 248.741C568.374 248.178 568.016 247.671 567.469 247.486C566.921 247.303 566.265 247.384 565.637 247.542C560.541 249.181 555.932 250.664 552.494 251.77C550.864 252.274 549.515 252.69 548.491 253.007C547.543 253.289 547.014 253.43 547.002 253.398C546.992 253.366 547.502 253.165 548.433 252.828C549.444 252.476 550.778 252.009 552.388 251.447C555.744 250.307 560.345 248.731 565.518 247.075C566.188 246.912 566.914 246.8 567.628 247.035C568.348 247.265 568.86 248.007 568.846 248.73C568.851 249.446 568.553 250.105 568.085 250.588C567.617 251.058 567.041 251.353 566.481 251.564C564.215 252.281 562.194 252.777 560.485 253.26C558.836 253.697 557.47 254.059 556.435 254.333C555.476 254.576 554.941 254.696 554.931 254.664Z" fill="#1A2E35"/>
<path d="M483.253 221.088C484.754 226.356 479.399 230.873 477.514 236.017C475.691 240.99 477.243 246.562 479.488 251.36C481.732 256.158 484.685 260.71 485.834 265.88C488.666 278.63 477.14 292.365 479.335 305.239C480.135 309.928 482.023 314.823 483.66 319.289C485.299 323.755 485.183 327.84 483.66 332.345C481.169 339.72 476.938 343.197 473.96 350.387C472.436 354.064 472.556 358.182 472.633 362.162C472.71 366.141 472.681 370.291 470.911 373.854C469.141 377.419 465.087 380.175 461.243 379.142C465.265 383.871 472.692 385.285 478.172 382.364C483.227 379.669 486.055 374.195 488.473 369.003C500.191 343.862 506.388 341.74 506.066 314.004C506.046 312.218 505.712 284.44 505.712 284.44C505.712 284.44 501.325 283.27 498.795 281.525C485.708 272.493 485.232 256.395 485.336 243.92" fill="#1A2E35"/>
<path d="M509.44 305.239V315.705C509.44 315.705 501.388 356.769 498.973 379.582C496.558 402.394 496.149 408.413 496.149 408.413C496.149 408.413 501.925 417.424 514.002 402.126C526.081 386.829 528.228 384.412 533.058 384.144C533.058 384.144 527.154 320.001 527.422 317.585C527.691 315.17 529.569 313.022 529.569 313.022L509.44 305.239Z" fill="white"/>
<path d="M525.275 281.621C525.275 281.621 512.125 299.067 511.051 301.482C509.977 303.897 509.44 305.238 509.44 305.238L529.569 313.022L549.162 291.552L556.408 272.496L554.261 249.951C554.261 249.951 549.967 249.683 549.162 253.441C548.356 257.197 548.624 260.687 548.624 260.687L542.612 255.856L532.924 252.904C532.924 252.904 530.643 256.662 534.4 258.54C538.157 260.419 539.231 260.419 539.231 260.419L542.612 266.323L541.134 272.939L534.283 266.514C532.909 265.225 530.812 265.095 529.289 266.203L524.862 269.421L520.713 267.568L512.661 274.643L509.44 277.595C509.44 277.595 511.588 281.621 515.881 279.742L520.176 277.864L525.275 281.621Z" fill="white"/>
<path d="M509.44 308.772C509.44 308.772 509.424 308.582 509.436 308.213C509.449 307.843 509.48 307.293 509.568 306.575C509.658 305.858 509.799 304.971 510.072 303.943C510.37 302.932 510.708 301.729 511.484 300.564C514.491 295.941 519.233 289.51 525.14 281.52L525.175 281.757C523.582 280.587 521.857 279.322 520.069 278.01L520.248 278.03C519.38 278.412 518.495 278.8 517.595 279.197C516.689 279.574 515.804 280.056 514.767 280.299C513.746 280.532 512.597 280.457 511.624 279.942C510.639 279.456 509.844 278.654 509.263 277.69L509.184 277.56L509.304 277.447C512.767 274.198 516.614 270.91 520.568 267.403L520.687 267.298L520.825 267.379C521.931 268.032 523.158 268.757 524.398 269.489L524.163 269.496C525.536 268.591 526.932 267.674 528.345 266.743C529.068 266.279 529.73 265.806 530.516 265.341C531.358 264.911 532.44 265.003 533.207 265.577C535.864 267.822 538.585 270.12 541.354 272.459L540.97 272.588C541.413 270.599 541.894 268.445 542.378 266.271L542.405 266.441C541.335 264.575 540.184 262.565 539.024 260.538L539.231 260.659C538.595 260.589 538.11 260.397 537.563 260.209C537.033 260.014 536.508 259.792 535.983 259.557C535.458 259.325 534.938 259.072 534.416 258.816C534.155 258.686 533.893 258.516 533.632 258.367C533.401 258.163 533.129 258.008 532.936 257.758C532.318 257.105 531.959 256.182 532.005 255.291C532.024 254.395 532.291 253.556 532.719 252.779L532.808 252.617L532.994 252.673C536.267 253.671 539.497 254.657 542.681 255.628L542.725 255.641L542.761 255.67C544.791 257.302 546.794 258.914 548.772 260.503L548.39 260.705C548.263 258.271 548.433 255.879 548.902 253.56C549.104 252.375 549.808 251.207 550.86 250.587C551.898 249.946 553.089 249.703 554.274 249.724L554.467 249.728L554.487 249.93C555.241 257.944 555.952 265.494 556.61 272.476L556.615 272.524L556.597 272.568C553.912 279.592 551.477 285.963 549.317 291.61L549.305 291.64L549.284 291.663C542.842 298.675 537.658 304.32 534.071 308.223C532.286 310.152 530.899 311.651 529.944 312.68C529.479 313.177 529.121 313.558 528.866 313.828C528.621 314.085 528.487 314.208 528.487 314.208C528.487 314.208 528.597 314.064 528.831 313.796C529.078 313.518 529.424 313.127 529.875 312.617C530.814 311.573 532.179 310.056 533.937 308.1C537.497 304.173 542.643 298.495 549.039 291.439L549.006 291.492C551.146 285.836 553.558 279.458 556.219 272.424L556.206 272.515C555.535 265.535 554.807 257.986 554.036 249.973L554.247 250.178C553.175 250.158 552.028 250.394 551.105 250.975C550.16 251.542 549.55 252.543 549.355 253.653C548.898 255.92 548.734 258.301 548.859 260.669L548.887 261.199L548.478 260.87C546.498 259.282 544.493 257.672 542.462 256.042L542.542 256.084C539.359 255.114 536.127 254.13 532.855 253.134L533.13 253.028C532.754 253.708 532.497 254.514 532.485 255.299C532.447 256.091 532.753 256.859 533.288 257.431C533.451 257.65 533.703 257.787 533.904 257.97C534.148 258.107 534.373 258.257 534.63 258.384C535.147 258.639 535.662 258.889 536.18 259.119C537.196 259.563 538.287 260.033 539.231 260.178L539.384 260.201L539.44 260.299C540.601 262.326 541.751 264.338 542.819 266.204L542.865 266.284L542.844 266.375C542.358 268.549 541.876 270.702 541.431 272.691L541.346 273.072L541.048 272.82C538.29 270.484 535.58 268.189 532.933 265.948C532.303 265.476 531.412 265.399 530.719 265.752C530.029 266.16 529.297 266.672 528.595 267.122C527.179 268.051 525.782 268.967 524.407 269.869L524.29 269.946L524.171 269.874C522.933 269.139 521.706 268.412 520.601 267.756L520.857 267.733C516.899 271.23 513.043 274.509 509.576 277.744L509.618 277.501C510.14 278.372 510.902 279.151 511.801 279.59C512.693 280.065 513.732 280.136 514.685 279.923C515.634 279.709 516.537 279.231 517.445 278.855C518.348 278.461 519.235 278.075 520.103 277.697L520.2 277.655L520.283 277.718C522.066 279.037 523.787 280.309 525.375 281.485L525.512 281.586L525.41 281.722C519.47 289.682 514.684 296.088 511.64 300.663C510.87 301.792 510.517 302.983 510.208 303.981C509.922 304.996 509.767 305.875 509.663 306.588C509.56 307.3 509.512 307.848 509.485 308.215C509.457 308.583 509.44 308.772 509.44 308.772Z" fill="#E1E1E1"/>
<path d="M534.349 285.661C534.253 285.645 534.609 284.237 534.756 281.95C534.803 280.817 534.738 279.424 534.121 278.072C533.508 276.717 532.297 275.538 530.915 274.471C528.13 272.322 525.442 270.59 523.466 269.398C522.541 268.854 521.754 268.39 521.106 268.01C520.548 267.684 520.241 267.494 520.257 267.464C520.272 267.435 520.606 267.567 521.194 267.843C521.781 268.119 522.62 268.543 523.635 269.104C525.668 270.226 528.4 271.922 531.212 274.093C532.612 275.174 533.887 276.42 534.525 277.889C535.164 279.354 535.186 280.814 535.096 281.972C534.998 283.14 534.788 284.062 534.641 284.693C534.487 285.324 534.381 285.667 534.349 285.661Z" fill="#E1E1E1"/>
<path d="M548.435 277.287C548.362 277.268 548.557 276.355 548.777 274.873C548.998 273.39 549.208 271.327 549.191 269.043C549.169 266.758 548.924 264.699 548.678 263.22C548.433 261.741 548.224 260.832 548.296 260.813C548.351 260.796 548.679 261.676 549.012 263.157C549.346 264.634 549.649 266.719 549.672 269.039C549.689 271.358 549.421 273.448 549.112 274.931C548.803 276.416 548.492 277.301 548.435 277.287Z" fill="#E1E1E1"/>
<path d="M458.718 208.831L449.087 191.858C453.348 184.943 455.811 176.801 455.811 168.083C455.811 143.01 435.485 122.684 410.412 122.684C385.339 122.684 365.013 143.01 365.013 168.083C365.013 193.155 385.339 213.481 410.412 213.481C420.881 213.481 430.516 209.928 438.195 203.974L438.181 203.995L458.718 208.831Z" fill="white"/>
<path d="M458.718 208.831C457.878 208.638 451.29 207.127 438.152 204.111L437.972 204.07L438.084 203.922L438.101 203.901L438.268 204.07C435.678 206.074 432.578 208.048 428.932 209.693C425.283 211.31 421.101 212.63 416.485 213.244C414.181 213.538 411.773 213.726 409.299 213.605C408.063 213.535 406.805 213.504 405.536 213.398C404.275 213.207 402.996 213.014 401.701 212.818C396.563 211.803 391.31 209.851 386.411 206.81C381.514 203.779 376.979 199.664 373.345 194.609C369.717 189.563 366.965 183.579 365.677 177.078C364.402 170.586 364.509 163.627 366.214 156.892C367.932 150.181 371.139 143.624 375.94 138.231L377.793 136.192C378.402 135.506 379.129 134.941 379.789 134.311C380.48 133.717 381.104 133.044 381.846 132.517C382.574 131.974 383.3 131.431 384.024 130.889C384.729 130.319 385.506 129.86 386.278 129.398C387.048 128.931 387.815 128.465 388.581 128C389.386 127.609 390.189 127.22 390.99 126.83C391.799 126.457 392.577 126.016 393.424 125.749C400.015 123.131 407.044 122.135 413.763 122.621C420.485 123.105 426.916 125.033 432.435 128.138C437.969 131.218 442.637 135.331 446.24 139.926C449.854 144.522 452.4 149.593 453.978 154.642C455.545 159.714 455.969 164.746 455.953 169.403C455.819 174.071 454.971 178.373 453.734 182.149C452.495 185.93 450.867 189.182 449.186 191.918L449.188 191.801C455.299 202.722 458.315 208.112 458.718 208.831C458.307 208.117 455.227 202.762 448.987 191.915L448.954 191.857L448.989 191.797C450.647 189.065 452.249 185.823 453.463 182.061C454.677 178.304 455.503 174.029 455.621 169.393C455.621 164.769 455.187 159.779 453.619 154.752C452.042 149.749 449.505 144.729 445.916 140.181C442.337 135.634 437.705 131.567 432.22 128.524C426.753 125.456 420.383 123.556 413.73 123.083C407.077 122.607 400.122 123.599 393.601 126.19C392.762 126.455 391.994 126.893 391.194 127.262C390.402 127.646 389.606 128.033 388.81 128.42C388.053 128.881 387.294 129.342 386.532 129.805C385.768 130.261 384.999 130.716 384.302 131.281C383.585 131.817 382.867 132.354 382.148 132.892C381.412 133.412 380.796 134.08 380.112 134.668C379.459 135.291 378.74 135.85 378.138 136.529L376.304 138.546C371.552 143.883 368.379 150.37 366.676 157.009C364.986 163.671 364.875 170.56 366.133 176.987C367.401 183.423 370.118 189.349 373.705 194.351C377.298 199.361 381.783 203.446 386.629 206.458C391.478 209.481 396.681 211.427 401.773 212.446C403.057 212.642 404.325 212.838 405.575 213.03C406.833 213.139 408.082 213.172 409.308 213.246C411.762 213.373 414.152 213.192 416.441 212.909C421.024 212.315 425.18 211.018 428.813 209.427C432.442 207.808 435.534 205.859 438.121 203.88L438.846 203.325L438.29 204.047L438.275 204.068L438.207 203.878C451.309 207.042 457.881 208.629 458.718 208.831Z" fill="#1A2E35"/>
<path d="M400.572 168.083C400.572 170.119 398.922 171.769 396.886 171.769C394.851 171.769 393.201 170.119 393.201 168.083C393.201 166.047 394.851 164.397 396.886 164.397C398.922 164.397 400.572 166.047 400.572 168.083Z" fill="#1A2E35"/>
<path d="M415.323 168.083C415.323 170.119 413.673 171.769 411.637 171.769C409.602 171.769 407.951 170.119 407.951 168.083C407.951 166.047 409.602 164.397 411.637 164.397C413.673 164.397 415.323 166.047 415.323 168.083Z" fill="#1A2E35"/>
<path d="M430.036 166.24C431.054 168.003 430.45 170.257 428.687 171.275C426.924 172.293 424.669 171.689 423.652 169.926C422.634 168.163 423.238 165.908 425.001 164.891C426.764 163.873 429.018 164.477 430.036 166.24Z" fill="#1A2E35"/>
<path d="M640.396 457.737C640.396 457.87 546.472 457.978 430.64 457.978C314.766 457.978 220.863 457.87 220.863 457.737C220.863 457.604 314.766 457.496 430.64 457.496C546.472 457.496 640.396 457.604 640.396 457.737Z" fill="#1A2E35"/>
<path d="M521.684 457.962C521.684 457.962 527.949 447.261 541.445 446.803C554.939 446.344 561.687 457.962 561.687 457.962H521.684Z" fill="#EE2B47"/>
<path d="M547.545 457.628C547.446 457.628 547.422 456.837 547.149 455.613C546.882 454.391 546.292 452.748 545.224 451.169C544.149 449.595 542.838 448.439 541.801 447.74C540.764 447.036 540.038 446.723 540.074 446.632C540.094 446.572 540.886 446.749 542.021 447.387C543.154 448.019 544.584 449.185 545.712 450.837C546.832 452.494 547.389 454.253 547.559 455.538C547.735 456.83 547.607 457.632 547.545 457.628Z" fill="#1A2E35"/>
<path d="M513.33 457.473L513.329 457.387C513.282 454.56 510.976 452.292 508.148 452.292H393.266C390.405 452.292 388.085 454.611 388.085 457.473H513.33Z" fill="#EE2B47"/>
<path d="M293.405 256.237C293.405 258.654 295.215 402.934 295.215 402.934L402.375 428.717H411.238L405.597 227.29H397.54L293.405 256.237Z" fill="#1A2E35"/>
<path d="M316.067 396.894L282.856 457.766H313.211C307.783 457.223 361.281 457.766 361.281 457.766L313.211 445.019L328.242 410.88L326.96 396.894H316.067Z" fill="#1A2E35"/>
<path d="M316.809 408.129L313.211 294.68L345.842 291.551L349.865 412.687L338.209 413.278L316.809 408.129Z" fill="#1A2E35"/>
<path d="M354.426 417.179C354.426 417.179 354.413 417.001 354.406 416.652C354.402 416.289 354.394 415.773 354.386 415.096C354.378 413.712 354.365 411.69 354.348 409.069C354.332 403.796 354.31 396.131 354.281 386.503C354.26 367.22 354.231 340.083 354.196 308.614L354.426 308.844C342.349 308.848 329.358 308.851 315.923 308.854L316.163 308.614V313.849C316.149 344.535 316.136 373.098 316.124 396.893V396.945L316.1 396.989C306.107 415.312 297.816 430.512 292.017 441.145C289.112 446.441 286.833 450.598 285.273 453.444C284.495 454.849 283.897 455.928 283.487 456.67C283.079 457.398 282.856 457.766 282.856 457.766C282.856 457.766 283.042 457.378 283.431 456.64C283.83 455.892 284.411 454.804 285.165 453.384C286.704 450.528 288.95 446.353 291.812 441.034C297.575 430.382 305.815 415.154 315.746 396.797L315.722 396.893C315.711 373.098 315.698 344.535 315.683 313.849V308.614V308.373H315.923C329.358 308.377 342.349 308.38 354.426 308.383H354.657V308.614C354.621 340.083 354.592 367.22 354.571 386.503C354.542 396.131 354.519 403.796 354.503 409.069C354.487 411.69 354.475 413.712 354.465 415.096C354.457 415.773 354.451 416.289 354.446 416.652C354.439 417.001 354.426 417.179 354.426 417.179Z" fill="#EE2B47"/>
<path d="M328.242 410.88C328.364 410.934 323.742 421.618 317.921 434.741C312.098 447.869 307.281 458.464 307.159 458.41C307.038 458.356 311.658 447.673 317.481 434.546C323.302 421.423 328.121 410.825 328.242 410.88Z" fill="#EE2B47"/>
<path d="M402.375 428.717C402.375 428.717 402.357 428.541 402.348 428.197C402.34 427.836 402.33 427.33 402.317 426.675C402.301 425.317 402.278 423.347 402.247 420.82C402.209 415.735 402.095 408.378 401.915 399.288C401.569 381.108 400.749 356.002 399.742 328.275C398.735 300.539 397.968 275.424 397.71 257.239C397.574 248.148 397.511 240.789 397.531 235.704C397.54 233.177 397.546 231.207 397.551 229.848C397.558 229.194 397.564 228.688 397.568 228.326C397.575 227.983 397.591 227.807 397.591 227.807C397.591 227.807 397.607 227.983 397.617 228.326C397.624 228.688 397.635 229.194 397.648 229.848C397.664 231.206 397.688 233.176 397.718 235.703C397.756 240.787 397.871 248.143 398.05 257.233C398.395 275.413 399.216 300.522 400.223 328.258C401.23 355.984 401.997 381.097 402.255 399.283C402.391 408.374 402.453 415.733 402.434 420.818C402.425 423.347 402.419 425.317 402.414 426.675C402.407 427.33 402.401 427.836 402.397 428.197C402.39 428.541 402.375 428.717 402.375 428.717Z" fill="#EE2B47"/>
<path d="M348.58 307.776C348.713 307.776 348.822 331.906 348.822 361.665C348.822 391.434 348.713 415.559 348.58 415.559C348.447 415.559 348.34 391.434 348.34 361.665C348.34 331.906 348.447 307.776 348.58 307.776Z" fill="#EE2B47"/>
<path d="M290.839 448.265C290.826 448.275 290.668 448.053 290.378 447.622C290.228 447.395 290.052 447.129 289.849 446.821C289.63 446.51 289.405 446.134 289.184 445.693C288.183 443.992 287.047 441.333 286.254 437.886C285.464 434.439 285.197 430.183 285.681 425.535C286.212 420.896 287.458 415.854 289.685 410.933C290.808 408.469 292.258 406.235 293.874 404.269C294.264 403.765 294.665 403.279 295.099 402.827C295.523 402.369 295.931 401.902 296.358 401.465C297.248 400.625 298.083 399.762 298.999 399.033C300.757 397.488 302.616 396.258 304.367 395.142C305.277 394.642 306.135 394.119 307.002 393.696C307.881 393.298 308.691 392.843 309.524 392.544C312.798 391.214 315.614 390.566 317.581 390.398C318.556 390.234 319.331 390.294 319.846 390.26C320.365 390.25 320.637 390.253 320.637 390.27C320.637 390.286 320.365 390.315 319.85 390.356C319.336 390.423 318.569 390.392 317.605 390.584C315.659 390.808 312.881 391.5 309.656 392.858C308.835 393.163 308.037 393.624 307.171 394.026C306.317 394.454 305.472 394.98 304.574 395.483C302.85 396.603 301.019 397.833 299.288 399.37C298.385 400.095 297.563 400.953 296.686 401.786C296.266 402.221 295.864 402.683 295.446 403.137C295.019 403.585 294.625 404.066 294.241 404.565C292.649 406.509 291.225 408.712 290.122 411.135C287.922 415.996 286.671 420.997 286.123 425.584C285.618 430.184 285.848 434.394 286.586 437.813C287.329 441.234 288.406 443.889 289.349 445.604C289.556 446.05 289.767 446.431 289.972 446.748C290.158 447.063 290.321 447.336 290.46 447.57C290.722 448.015 290.853 448.255 290.839 448.265Z" fill="#EE2B47"/>
</svg>
