<svg width="80" height="80" viewBox="0 0 80 80" fill="none" xmlns="http://www.w3.org/2000/svg">
<path d="M40 80C62.0914 80 80 62.0914 80 40C80 17.9086 62.0914 0 40 0C17.9086 0 0 17.9086 0 40C0 62.0914 17.9086 80 40 80Z" fill="#FF7A00"/>
<path d="M72.4174 52.9227L12.6941 50.8383C10.8579 50.7743 9.42115 49.2336 9.48522 47.3974L10.8705 7.70364C10.9346 5.86739 12.4752 4.43068 14.3115 4.49474L74.0347 6.57911C75.871 6.64317 77.3077 8.1838 77.2437 10.02L75.8583 49.7138C75.7943 51.5502 74.2537 52.9868 72.4174 52.9227Z" fill="#001E89"/>
<path d="M73.443 58.2595L13.9933 64.338C12.1655 64.5248 10.5321 63.1945 10.3452 61.3667L6.30535 21.8547C6.11848 20.0269 7.44879 18.3934 9.2766 18.2065L68.7263 12.1281C70.5541 11.9412 72.1875 13.2715 72.3744 15.0994L76.4143 54.6114C76.6011 56.4392 75.2708 58.0726 73.443 58.2595Z" fill="#FFFBEB"/>
<path d="M76.8219 55.6486C76.0797 57.3954 75.2156 59.0767 74.2437 60.6845H74.2422L19.9125 74.5955C18.9375 74.0283 17.9891 73.4204 17.0687 72.7767C16.8844 72.647 16.7016 72.5173 16.5187 72.3845C16.3391 72.2533 16.1594 72.1204 15.9797 71.9861C15.9766 71.9845 15.9719 71.9814 15.9687 71.9783C15.7922 71.8455 15.6172 71.7111 15.4422 71.5751C15.2703 71.4408 15.0984 71.3048 14.9281 71.1689C14.9234 71.1642 14.9187 71.1611 14.9141 71.1564C14.7391 71.0158 14.5656 70.8736 14.3937 70.7298C14.2328 70.597 14.0734 70.4611 13.9156 70.3251C13.7281 70.1642 13.5437 70.0033 13.3609 69.8376C13.1984 69.6939 13.0375 69.547 12.8766 69.3986C12.7172 69.2517 12.5594 69.1033 12.4016 68.9548C12.3969 68.9486 12.3906 68.9439 12.3859 68.9392C12.2266 68.7861 12.0687 68.633 11.9109 68.4783C11.9031 68.472 11.8969 68.4642 11.8906 68.458C11.7359 68.3048 11.5812 68.1501 11.4281 67.9939L2.85937 34.5283C2.40312 32.7486 3.47655 30.9361 5.25624 30.4798L7.13749 29.9986L10.1187 29.2345L15.2047 27.933L63.1484 15.658C64.9297 15.2017 66.7422 16.2751 67.1969 18.0548L75.6016 50.8814V50.8829L76.3187 53.683V53.6861L76.8219 55.6486Z" fill="#64D2FF"/>
<path d="M26.7062 72.8547L19.9125 74.5954C16.7922 72.7813 13.9391 70.5563 11.4281 67.9938L2.85937 34.5282C2.40312 32.7485 3.47655 30.936 5.25624 30.4797L7.13749 29.9985L10.1187 29.2344L15.2047 27.9329C13.425 28.3891 12.3516 30.2016 12.8078 31.9813L17.6812 51.0126L17.7453 51.2641L18.5094 54.2485L19.5453 58.2938L20.3094 61.2782L20.9109 63.6297L21.3453 65.3235L22.1094 68.3079L22.6594 70.4579C23.1141 72.2375 24.9266 73.311 26.7062 72.8547Z" fill="#56CCF2"/>
<path d="M53.8448 24.4322C52.5675 23.6622 50.9947 23.3842 49.4356 23.7833C46.3489 24.5736 44.4873 27.7166 45.2776 30.8031C46.0679 33.8898 49.2109 35.7514 52.2976 34.9611C53.8565 34.5619 55.1023 33.5622 55.8525 32.2731C54.6008 31.5186 53.6328 30.2917 53.2417 28.7641C52.8504 27.2364 53.1097 25.6955 53.8448 24.4322Z" fill="#F3D75C"/>
<path d="M57.3996 21.7444C55.8407 22.1436 54.5949 23.1433 53.8447 24.4324C55.0964 25.1869 56.0644 26.4138 56.4555 27.9414C56.8466 29.4691 56.5874 31.0102 55.8524 32.2735C57.1297 33.0435 58.7025 33.3216 60.2615 32.9224C63.3482 32.1321 65.2097 28.9891 64.4194 25.9024C63.6293 22.8158 60.4863 20.9541 57.3996 21.7444Z" fill="#FF7A00"/>
<path d="M53.8449 24.4324C53.1097 25.6957 52.8505 27.2366 53.2417 28.7644C53.6328 30.2921 54.6008 31.5189 55.8525 32.2735C56.5877 31.0102 56.8469 29.4692 56.4556 27.9414C56.0644 26.4138 55.0966 25.1869 53.8449 24.4324Z" fill="#70D587"/>
<path d="M39.8673 48.7795L14.5325 55.2661C13.7083 55.4772 12.8692 54.9801 12.6583 54.1559C12.4472 53.3317 12.9442 52.4926 13.7684 52.2817L39.1031 45.7951C39.9273 45.584 40.7664 46.0811 40.9773 46.9053C41.1884 47.7295 40.6916 48.5684 39.8673 48.7795Z" fill="#FFFBEB"/>
<path d="M13.7684 52.2816C12.9442 52.4927 12.4472 53.3316 12.6583 54.1558C12.8694 54.9801 13.7083 55.4771 14.5325 55.266L18.5084 54.248L17.7444 51.2637L13.7684 52.2816Z" fill="#D8E0C9"/>
<path d="M58.6454 51.4624L16.3325 62.2959C15.5083 62.507 14.6693 62.01 14.4583 61.1858C14.2472 60.3616 14.7443 59.5225 15.5685 59.3116L57.8813 48.478C58.7055 48.2669 59.5446 48.7639 59.7555 49.5881C59.9666 50.4122 59.4696 51.2513 58.6454 51.4624Z" fill="#FFFBEB"/>
<path d="M15.5685 59.3114C14.7443 59.5225 14.2472 60.3614 14.4583 61.1856C14.6694 62.0098 15.5083 62.5069 16.3326 62.2958L20.3085 61.2778L19.5444 58.2935L15.5685 59.3114Z" fill="#D8E0C9"/>
<path d="M60.4453 58.4924L18.1325 69.326C17.3083 69.5371 16.4692 69.04 16.2583 68.2158C16.0472 67.3916 16.5442 66.5525 17.3684 66.3416L59.6812 55.508C60.5054 55.2969 61.3445 55.7939 61.5554 56.6182C61.7665 57.4422 61.2695 58.2813 60.4453 58.4924Z" fill="#FFFBEB"/>
<path d="M17.3683 66.3417C16.5441 66.5528 16.047 67.3917 16.2581 68.2159C16.4692 69.0401 17.3081 69.5372 18.1324 69.3261L22.1083 68.3081L21.3442 65.3237L17.3683 66.3417Z" fill="#D8E0C9"/>
</svg>
