<svg width="80" height="80" viewBox="0 0 80 80" fill="none" xmlns="http://www.w3.org/2000/svg">
<g clip-path="url(#clip0)">
<path d="M79.9988 39.6792C80.103 52.9851 73.7094 64.8032 63.8016 72.1498L56.247 74.5731C45.2086 78.1139 33.3916 78.4476 22.1708 75.5356L21.0938 75.256C8.5375 68.5107 0 55.2514 0 39.9998C0 17.9262 17.8817 0.027444 39.9487 -0.000212294C61.87 -0.0277123 79.8269 17.7585 79.9988 39.6792V39.6792Z" fill="#E20121"/>
<path d="M80 40C80 53.1734 73.6297 64.8625 63.8016 72.15L56.247 74.5733C45.2086 78.1141 33.3916 78.4478 22.1708 75.5358L21.0938 75.2563V75.2578C19.7437 74.5328 18.4391 73.7312 17.1875 72.8609C6.8 65.6359 0 53.6109 0 40C0 32.7781 1.91406 26.0047 5.2625 20.1562C12.1562 32.1984 25.1312 40.3125 40 40.3125C54.8688 40.3125 67.8453 32.1984 74.7375 20.1562C78.0859 26.0047 80 32.7781 80 40V40Z" fill="#EE2B47"/>
<path d="M63.8016 27.0328V72.15C61.1703 74.1 58.2937 75.7359 55.2234 77C54.2781 77.389 53.3141 77.7437 52.3344 78.0609L46.4672 79.4797L46.4563 79.4828C44.3547 79.8234 42.1984 80 40 80C39.7828 80 39.5656 79.9984 39.3484 79.9937C37.025 79.9562 34.75 79.7219 32.5406 79.3047L32.5359 79.3031L26.3438 77.6047H26.3406C24.5266 76.9469 22.775 76.1594 21.0938 75.2562V27.0328C21.0938 23.8187 23.6969 21.2156 26.9109 21.2156H57.9859C58.1141 21.2156 58.2422 21.2187 58.3687 21.2281C61.4031 21.425 63.8016 23.9484 63.8016 27.0328V27.0328Z" fill="#4E689B"/>
<path d="M63.8016 27.0328V72.15C61.1704 74.1 58.2938 75.7359 55.2235 77C54.2782 77.389 53.3141 77.7437 52.3344 78.0609L46.4672 79.4797L46.4563 79.4828C44.3547 79.8234 42.1985 80 40.0001 80C39.7829 80 39.5657 79.9984 39.3485 79.9937C37.0251 79.9562 34.75 79.7219 32.5407 79.3047L32.536 79.3031L30.2219 78.6687V27.0328C30.2219 23.8187 32.8266 21.2156 36.0376 21.2156H57.986C58.1141 21.2156 58.2422 21.2187 58.3688 21.2281C61.4032 21.425 63.8016 23.9484 63.8016 27.0328V27.0328Z" fill="#374C81"/>
<path d="M63.8015 27.0328V72.15C60.3609 74.7015 56.4968 76.714 52.3343 78.0625V78.0609L46.4734 79.4781C44.3656 79.8219 42.2031 80 40 80C39.7828 80 39.5656 79.9984 39.3484 79.9937V21.2156H57.9859C58.114 21.2156 58.2421 21.2187 58.3687 21.2281C61.4031 21.425 63.8015 23.9484 63.8015 27.0328Z" fill="#234177"/>
<path d="M52.0743 43.0756V50.7255C52.0743 52.5247 50.6165 53.9825 48.8173 53.9825H30.1647C28.3655 53.9825 26.9077 52.5247 26.9077 50.7255V43.0756C26.9077 41.2764 28.3655 39.8186 30.1647 39.8186H48.8174C50.6166 39.8186 52.0743 41.2764 52.0743 43.0756V43.0756Z" fill="#D1F6FF"/>
<path d="M31.4125 64.9402H28.2667C27.2006 64.9402 26.3364 64.076 26.3364 63.0099C26.3364 61.9438 27.2006 61.0796 28.2667 61.0796H31.4125C32.4786 61.0796 33.3428 61.9438 33.3428 63.0099C33.3428 64.076 32.4786 64.9402 31.4125 64.9402V64.9402Z" fill="white"/>
<path d="M31.4125 72.3042H28.2667C27.2006 72.3042 26.3364 71.44 26.3364 70.3739C26.3364 69.3078 27.2006 68.4436 28.2667 68.4436H31.4125C32.4786 68.4436 33.3428 69.3078 33.3428 70.3739C33.3428 71.44 32.4786 72.3042 31.4125 72.3042V72.3042Z" fill="white"/>
<path d="M33.3421 77.7375C33.3421 78.2704 33.1265 78.7532 32.7765 79.1032C32.7031 79.1766 32.625 79.2438 32.5406 79.3047C31.7593 79.1579 30.9859 78.9875 30.2218 78.7954C28.9 78.4625 27.6046 78.0657 26.3406 77.6047C26.3734 77.125 26.5812 76.6922 26.9015 76.3735C27.25 76.0235 27.7343 75.8079 28.2671 75.8079H31.4125C32.4781 75.8079 33.3421 76.6719 33.3421 77.7375V77.7375Z" fill="white"/>
<path d="M42.8512 63.0097C42.8512 63.5431 42.6344 64.0261 42.2852 64.3753C41.936 64.7245 41.4532 64.94 40.9208 64.94H37.7755C36.7097 64.94 35.8452 64.0767 35.8452 63.0097C35.8452 62.4761 36.0607 61.9945 36.4112 61.6453C36.7604 61.2948 37.2419 61.0793 37.7755 61.0793H40.9208C41.9866 61.0793 42.8512 61.9439 42.8512 63.0097V63.0097Z" fill="white"/>
<path d="M42.8512 70.3739C42.8512 70.9061 42.6344 71.3891 42.2852 71.7383C41.936 72.0875 41.4532 72.3042 40.9208 72.3042H37.7755C36.7097 72.3042 35.8452 71.4397 35.8452 70.3739C35.8452 69.8417 36.0607 69.3588 36.4112 69.0095C36.7604 68.6603 37.2419 68.4436 37.7755 68.4436H40.9208C41.9866 68.4436 42.8512 69.3081 42.8512 70.3739V70.3739Z" fill="white"/>
<path d="M42.8512 77.7379C42.8512 78.2715 42.6344 78.7531 42.2852 79.1023C41.936 79.4528 41.4532 79.6682 40.9208 79.6682H37.7755C36.7097 79.6682 35.8452 78.8037 35.8452 77.7379C35.8452 77.2043 36.0607 76.7228 36.4112 76.3736C36.7604 76.0231 37.2419 75.8076 37.7755 75.8076H40.9208C41.9866 75.8076 42.8512 76.6723 42.8512 77.7379V77.7379Z" fill="white"/>
<path d="M50.43 64.9405H47.2842C46.2181 64.9405 45.3539 64.0762 45.3539 63.0101C45.3539 61.9441 46.2181 61.0798 47.2842 61.0798H50.43C51.4961 61.0798 52.3603 61.9441 52.3603 63.0101C52.3603 64.0762 51.4961 64.9405 50.43 64.9405Z" fill="#FDDC41"/>
<path d="M50.43 72.3042H47.2842C46.2181 72.3042 45.3539 71.44 45.3539 70.3739C45.3539 69.3078 46.2181 68.4436 47.2842 68.4436H50.43C51.4961 68.4436 52.3603 69.3078 52.3603 70.3739C52.3603 71.44 51.4961 72.3042 50.43 72.3042Z" fill="#95D600"/>
<path d="M52.361 77.7375C52.361 77.8485 52.3516 77.9563 52.3344 78.061C50.4328 78.6782 48.4703 79.1547 46.4563 79.4829C45.8047 79.1719 45.3531 78.5079 45.3531 77.7375C45.3531 77.2047 45.5688 76.7219 45.9188 76.3735C46.2688 76.0235 46.7516 75.8079 47.2844 75.8079H50.4297C51.4953 75.8079 52.361 76.6719 52.361 77.7375Z" fill="#F75454"/>
<path d="M63.8016 27.0328V72.1499C61.1704 74.0999 58.2938 75.7359 55.2235 76.9999V21.2156H57.986C58.1141 21.2156 58.2423 21.2187 58.3688 21.2281C61.4032 21.425 63.8016 23.9484 63.8016 27.0328V27.0328Z" fill="#323B5A"/>
<path d="M51.8381 9.26367L51.781 31.5705H26.8624V9.26367L29.3599 11.1705L31.8562 9.26367L34.3538 11.1705L36.8513 9.26367L39.349 11.1705L41.8465 9.26367L44.3441 11.1705L46.8416 9.26367L49.3405 11.1705L51.8381 9.26367Z" fill="white"/>
<path d="M51.838 9.26367L51.7809 31.5705H39.3489V11.1705L41.8464 9.26367L44.344 11.1705L46.8415 9.26367L49.3404 11.1705L51.838 9.26367Z" fill="#D1F6FF"/>
<path d="M31.2089 16.6128H48.7787V18.8979H31.2089V16.6128Z" fill="#474F6F"/>
<path d="M31.2089 21.2847H48.7787V23.5698H31.2089V21.2847Z" fill="#474F6F"/>
<path d="M31.2089 25.9561H48.7787V28.2412H31.2089V25.9561Z" fill="#474F6F"/>
<path d="M52.0742 43.0756V50.7255C52.0742 52.5247 50.6164 53.9825 48.8172 53.9825H39.3488V39.8186H48.8172C50.6166 39.8186 52.0742 41.2764 52.0742 43.0756V43.0756Z" fill="#8FC8F5"/>
<path d="M42.8511 77.7379C42.8511 78.2715 42.6344 78.7531 42.2852 79.1023C41.9359 79.4528 41.4531 79.6682 40.9208 79.6682H39.3488V75.8076H40.9208C41.9866 75.8076 42.8511 76.6723 42.8511 77.7379V77.7379Z" fill="#D1F6FF"/>
<path d="M42.8511 70.3739C42.8511 70.9061 42.6344 71.3891 42.2852 71.7383C41.9359 72.0875 41.4531 72.3042 40.9208 72.3042H39.3488V68.4436H40.9208C41.9866 68.4436 42.8511 69.3081 42.8511 70.3739Z" fill="#D1F6FF"/>
<path d="M40.9209 64.94H39.3489V61.0793H40.9209C41.9867 61.0793 42.8512 61.9439 42.8512 63.0097C42.8512 63.5431 42.6345 64.0261 42.2853 64.3753C41.9359 64.7245 41.4531 64.94 40.9209 64.94Z" fill="#D1F6FF"/>
</g>
<defs>
<clipPath id="clip0">
<rect width="80" height="80" fill="white"/>
</clipPath>
</defs>
</svg>
