<svg width="80" height="80" viewBox="0 0 80 80" fill="none" xmlns="http://www.w3.org/2000/svg">
<path d="M40 80C62.0914 80 80 62.0914 80 40C80 17.9086 62.0914 0 40 0C17.9086 0 0 17.9086 0 40C0 62.0914 17.9086 80 40 80Z" fill="#EE2B47"/>
<path opacity="0.1" d="M48.4582 16.6667V21.8833L43.2416 16.6667H36.7582V21.8833L31.5416 16.6667H25.0583V23.15L28.2001 26.2917H25.0583V32.7835L28.2001 35.925H25.0583V42.4085L28.2001 45.55H25.0583V52.0335L51.3744 78.3496C67.4083 73.6007 79.2368 59.0799 79.9574 41.6825L54.9416 16.6667H48.4582Z" fill="black"/>
<path d="M31.5444 16.6667H25.0586V23.1525H31.5444V16.6667Z" fill="#0197F6"/>
<path d="M43.2436 16.6667H36.7578V23.1525H43.2436V16.6667Z" fill="#27A2DB"/>
<path d="M54.9444 16.6667H48.4586V23.1525H54.9444V16.6667Z" fill="#34C759"/>
<path d="M31.5444 26.2957H25.0586V32.7814H31.5444V26.2957Z" fill="#27A2DB"/>
<path d="M43.2436 26.2957H36.7578V32.7814H43.2436V26.2957Z" fill="#34C759"/>
<path d="M54.9444 26.2957H48.4586V32.7814H54.9444V26.2957Z" fill="#0197F6"/>
<path d="M31.5444 35.9246H25.0586V42.4104H31.5444V35.9246Z" fill="#F6C358"/>
<path d="M43.2436 35.9246H36.7578V42.4104H43.2436V35.9246Z" fill="#64798A"/>
<path d="M54.9444 35.9246H48.4586V42.4104H54.9444V35.9246Z" fill="#DC8744"/>
<path d="M31.5444 45.55H25.0586V52.0358H31.5444V45.55Z" fill="#0197F6"/>
<path d="M43.2436 45.55H36.7578V52.0358H43.2436V45.55Z" fill="#34C759"/>
<path d="M54.9444 45.55H48.4586V52.0358H54.9444V45.55Z" fill="#27A2DB"/>
<path d="M52.1686 38.7716C51.7472 38.7716 51.3542 38.885 51.0162 39.0792V38.8634C51.0162 37.6531 50.0352 36.672 48.8248 36.672C48.2628 36.672 47.7517 36.8855 47.3639 37.2334V36.9852C47.3639 35.7748 46.3828 34.7937 45.1725 34.7937C44.4733 34.7937 43.8519 35.1223 43.4506 35.6325V29.4197C43.4506 28.2094 42.4695 27.2283 41.2592 27.2283C40.0489 27.2283 39.0678 28.2094 39.0678 29.4197V44.3992C38.3083 43.0702 37.1017 41.7136 35.6863 41.1281C35.3063 40.9709 34.9045 40.8462 34.4933 40.8473C34.082 40.8484 33.6575 40.9889 33.3808 41.2931C32.9894 41.7234 32.9705 42.3889 33.1503 42.9422C33.3302 43.4955 33.6758 43.9766 33.9583 44.4852C34.6222 45.6802 34.9394 47.3155 35.3494 48.6194C35.7594 49.9234 36.2972 51.2403 37.2875 52.1827C37.7411 52.6144 38.2753 52.9525 38.7466 53.365C39.4606 53.9897 40.0244 54.7845 40.3781 55.665H49.9053H51.6839C53.5516 54.0827 54.0986 50.2789 54.4327 46.1166V40.9636C54.4323 39.7527 53.4187 38.7716 52.1686 38.7716Z" fill="#F6C358"/>
<path d="M53.488 55.4915H38.2389V63.3316H53.488V55.4915Z" fill="#0197F6"/>
<path d="M50.8659 60.7723C51.6142 60.7723 52.2209 60.1656 52.2209 59.4173C52.2209 58.6689 51.6142 58.0623 50.8659 58.0623C50.1175 58.0623 49.5109 58.6689 49.5109 59.4173C49.5109 60.1656 50.1175 60.7723 50.8659 60.7723Z" fill="#31978C"/>
</svg>
