<svg width="30" height="30" viewBox="0 0 30 30" fill="none" xmlns="http://www.w3.org/2000/svg">
<path fill-rule="evenodd" clip-rule="evenodd" d="M5.27543 3.08622C5.36251 2.99891 5.46597 2.92964 5.57986 2.88238C5.69376 2.83512 5.81586 2.81079 5.93918 2.81079C6.06249 2.81079 6.18459 2.83512 6.29849 2.88238C6.41239 2.92964 6.51584 2.99891 6.60293 3.08622L17.8529 14.3362C17.9402 14.4233 18.0095 14.5268 18.0568 14.6407C18.104 14.7546 18.1284 14.8767 18.1284 15C18.1284 15.1233 18.104 15.2454 18.0568 15.3593C18.0095 15.4732 17.9402 15.5766 17.8529 15.6637L6.60293 26.9137C6.42689 27.0898 6.18813 27.1887 5.93918 27.1887C5.69022 27.1887 5.45146 27.0898 5.27543 26.9137C5.09939 26.7377 5.00049 26.4989 5.00049 26.25C5.00049 26.001 5.09939 25.7623 5.27543 25.5862L15.8636 15L5.27543 4.41372C5.18812 4.32663 5.11885 4.22318 5.07159 4.10928C5.02433 3.99538 5 3.87328 5 3.74997C5 3.62665 5.02433 3.50455 5.07159 3.39065C5.11885 3.27676 5.18812 3.1733 5.27543 3.08622Z" fill="black" fill-opacity="0.3"/>
<path fill-rule="evenodd" clip-rule="evenodd" d="M12.7754 3.08622C12.8625 2.99891 12.966 2.92964 13.0799 2.88238C13.1938 2.83512 13.3159 2.81079 13.4392 2.81079C13.5625 2.81079 13.6846 2.83512 13.7985 2.88238C13.9124 2.92964 14.0158 2.99891 14.1029 3.08622L25.3529 14.3362C25.4402 14.4233 25.5095 14.5268 25.5568 14.6407C25.604 14.7546 25.6284 14.8767 25.6284 15C25.6284 15.1233 25.604 15.2454 25.5568 15.3593C25.5095 15.4732 25.4402 15.5766 25.3529 15.6637L14.1029 26.9137C13.9269 27.0898 13.6881 27.1887 13.4392 27.1887C13.1902 27.1887 12.9515 27.0898 12.7754 26.9137C12.5994 26.7377 12.5005 26.4989 12.5005 26.25C12.5005 26.001 12.5994 25.7623 12.7754 25.5862L23.3636 15L12.7754 4.41372C12.6881 4.32663 12.6189 4.22318 12.5716 4.10928C12.5243 3.99538 12.5 3.87328 12.5 3.74997C12.5 3.62665 12.5243 3.50455 12.5716 3.39065C12.6189 3.27676 12.6881 3.1733 12.7754 3.08622Z" fill="black" fill-opacity="0.3"/>
</svg>
