<svg width="80" height="80" viewBox="0 0 80 80" fill="none" xmlns="http://www.w3.org/2000/svg">
<path d="M78.2435 40.8784C78.2435 62.4847 60.7281 80.0001 39.1217 80.0001C29.8954 80.0001 21.415 76.8063 14.726 71.4639C5.75037 64.2954 0.00313958 40.2962 0.0095268 40.0063C0.473239 18.8027 17.8067 1.75659 39.1217 1.75659C60.7281 1.75659 78.2435 19.272 78.2435 40.8784Z" fill="#EE2B47"/>
<path d="M68.503 15.1697C68.503 23.5476 61.7113 30.3393 53.3334 30.3393C44.9554 30.3393 38.1637 23.5476 38.1637 15.1697C38.1637 6.7917 44.9554 0 53.3334 0C61.7113 0 68.503 6.7917 68.503 15.1697Z" fill="#FFB23C"/>
<path d="M63.2266 15.1697C63.2266 20.6337 58.7972 25.063 53.3333 25.063C47.8693 25.063 43.4399 20.6337 43.4399 15.1697C43.4399 9.70575 47.8693 5.27637 53.3333 5.27637C58.7972 5.27637 63.2266 9.70575 63.2266 15.1697Z" fill="#FFC981"/>
<path d="M63.2267 15.1698C63.2267 20.0579 59.6805 24.1154 55.0212 24.9167C50.3617 24.1154 46.8157 20.0579 46.8157 15.1698C46.8157 10.2816 50.3619 6.22413 55.0212 5.42285C59.6805 6.22413 63.2267 10.2816 63.2267 15.1698Z" fill="#FFD69E"/>
<path d="M42.9745 19.4604C43.2533 20.1335 42.9336 20.905 42.2606 21.1838C41.5875 21.4626 40.816 21.143 40.5372 20.4699C40.2584 19.7969 40.578 19.0253 41.2511 18.7465C41.924 18.4677 42.6957 18.7874 42.9745 19.4604ZM43.5395 23.0979C43.0243 23.6131 43.0243 24.4484 43.5395 24.9635C44.0546 25.4786 44.8899 25.4786 45.405 24.9635C45.9202 24.4484 45.9202 23.6131 45.405 23.0979C44.8899 22.5828 44.0546 22.5828 43.5395 23.0979ZM42.2606 9.15542C41.5875 8.87662 40.816 9.1963 40.5372 9.86935C40.2584 10.5424 40.578 11.314 41.2511 11.5928C41.9241 11.8716 42.6957 11.5519 42.9745 10.8789C43.2533 10.2058 42.9336 9.43422 42.2606 9.15542ZM43.5395 5.37578C43.0243 5.89091 43.0243 6.7262 43.5395 7.24133C44.0546 7.75646 44.8899 7.75646 45.405 7.24133C45.9202 6.7262 45.9202 5.89091 45.405 5.37578C44.8899 4.86065 44.0546 4.86065 43.5395 5.37578ZM42.121 15.1696C42.121 14.441 41.5305 13.8505 40.8019 13.8505C40.0734 13.8505 39.4828 14.441 39.4828 15.1696C39.4828 15.8981 40.0734 16.4888 40.8019 16.4888C41.5304 16.4888 42.121 15.8981 42.121 15.1696ZM65.4157 11.5928C66.0888 11.314 66.4085 10.5424 66.1297 9.86935C65.8508 9.1963 65.0793 8.87662 64.4062 9.15542C63.7332 9.43422 63.4135 10.2058 63.6923 10.8789C63.9709 11.5519 64.7427 11.8716 65.4157 11.5928ZM49.0425 25.5284C48.3695 25.2496 47.5979 25.5693 47.3191 26.2424C47.0403 26.9154 47.36 27.687 48.033 27.9658C48.7061 28.2446 49.4777 27.9249 49.7565 27.2519C50.0353 26.579 49.7156 25.8072 49.0425 25.5284ZM53.3333 3.95734C54.0618 3.95734 54.6524 3.36668 54.6524 2.63821C54.6524 1.90975 54.0618 1.31909 53.3333 1.31909C52.6049 1.31909 52.0142 1.90975 52.0142 2.63821C52.0142 3.36668 52.6049 3.95734 53.3333 3.95734ZM57.6241 25.5284C56.9511 25.8072 56.6314 26.5788 56.9102 27.2519C57.189 27.9249 57.9606 28.2446 58.6336 27.9658C59.3067 27.687 59.6263 26.9154 59.3475 26.2424C59.0687 25.5693 58.2972 25.2496 57.6241 25.5284ZM61.2616 5.37578C60.7465 5.89091 60.7465 6.7262 61.2616 7.24133C61.7768 7.75646 62.6121 7.75646 63.1272 7.24133C63.6423 6.7262 63.6423 5.89091 63.1272 5.37578C62.6121 4.86065 61.7768 4.86065 61.2616 5.37578ZM58.6338 2.37346C57.9607 2.09466 57.1891 2.41434 56.9103 3.0874C56.6315 3.76045 56.9512 4.53203 57.6243 4.81083C58.2973 5.08963 59.0689 4.76995 59.3477 4.0969C59.6263 3.42384 59.3068 2.65211 58.6338 2.37346ZM61.2616 23.0979C60.7465 23.6131 60.7465 24.4484 61.2616 24.9635C61.7768 25.4786 62.6121 25.4786 63.1272 24.9635C63.6423 24.4484 63.6423 23.6131 63.1272 23.0979C62.6121 22.5828 61.7768 22.5828 61.2616 23.0979ZM48.0329 2.37346C47.3598 2.65227 47.0402 3.42384 47.319 4.0969C47.5978 4.76995 48.3693 5.08963 49.0424 4.81083C49.7154 4.53203 50.0351 3.76045 49.7563 3.0874C49.4777 2.41418 48.7059 2.09466 48.0329 2.37346ZM65.4157 18.7465C64.7427 18.4677 63.9711 18.7874 63.6923 19.4604C63.4135 20.1335 63.7332 20.905 64.4062 21.1838C65.0793 21.4626 65.8508 21.143 66.1297 20.4699C66.4083 19.797 66.0888 19.0253 65.4157 18.7465ZM53.3333 26.3819C52.6049 26.3819 52.0142 26.9726 52.0142 27.701C52.0142 28.4295 52.6047 29.0202 53.3333 29.0202C54.0619 29.0202 54.6524 28.4295 54.6524 27.701C54.6524 26.9726 54.0618 26.3819 53.3333 26.3819ZM65.8647 13.8505C65.1363 13.8505 64.5456 14.441 64.5456 15.1696C64.5456 15.8981 65.1361 16.4888 65.8647 16.4888C66.5932 16.4888 67.1839 15.8983 67.1839 15.1696C67.1839 14.4412 66.5934 13.8505 65.8647 13.8505ZM53.7151 7.91454H52.9514C52.0695 7.91454 51.3546 8.62943 51.3546 9.51135V20.8279C51.3546 21.7098 52.0695 22.4247 52.9514 22.4247H53.7151C54.597 22.4247 55.3119 21.7098 55.3119 20.8279V9.51135C55.3119 8.62943 54.597 7.91454 53.7151 7.91454Z" fill="#EE9500"/>
<path d="M77.8134 38.8926L52.3617 41.1193C51.0439 41.2346 49.8822 40.2598 49.7669 38.9419L49.5783 36.7869C49.463 35.469 50.4379 34.3073 51.7557 34.1921L77.2074 31.9653C78.5252 31.85 79.6869 32.8249 79.8022 34.1427L79.9908 36.2978C80.1061 37.6155 79.1312 38.7773 77.8134 38.8926ZM69.6815 55.0805L70.0572 52.9501C70.287 51.6474 69.4171 50.4051 68.1144 50.1753L42.9537 45.7387C41.651 45.5089 40.4087 46.3789 40.1789 47.6816L39.8032 49.812C39.5734 51.1147 40.4433 52.357 41.746 52.5868L66.9067 57.0234C68.2096 57.2531 69.4519 56.3834 69.6815 55.0805Z" fill="#FFA40C"/>
<path d="M77.8201 36.2436L77.2101 36.2969L77.0951 34.9829C77.0316 34.2572 76.3917 33.7203 75.6661 33.7837C74.9405 33.8471 74.4035 34.487 74.4671 35.2127L74.5821 36.5267L71.0779 36.8333L70.9629 35.5193C70.8993 34.7935 70.2597 34.2567 69.5339 34.3201C68.8082 34.3836 68.2713 35.0235 68.3349 35.7491L68.4498 37.0631L64.9456 37.3697L64.8304 36.056C64.7668 35.3302 64.1271 34.7934 63.4014 34.8568C62.6756 34.9203 62.1388 35.5602 62.2023 36.2858L62.3173 37.5998L58.8131 37.9064L58.6981 36.5924C58.6346 35.8666 57.9949 35.3298 57.2692 35.3933C56.5434 35.4567 56.0066 36.0965 56.0701 36.8223L56.1851 38.1363L55.7065 38.1781C54.5193 38.2819 53.4728 37.4038 53.369 36.2166C53.2652 35.0294 54.1433 33.9829 55.3305 33.8791L77.4445 31.9444C78.6317 31.8406 79.6783 32.7187 79.7821 33.9059C79.8854 35.0933 79.0071 36.1398 77.8201 36.2436ZM68.3481 50.2166L46.4869 46.3619C45.3132 46.155 44.1942 46.9385 43.9872 48.1122C43.7803 49.2858 44.564 50.4049 45.7375 50.6118L46.2106 50.6952L46.4398 49.3962C46.5662 48.6787 47.2505 48.1997 47.9679 48.3262C48.6854 48.4526 49.1644 49.1369 49.0379 49.8543L48.8088 51.1533L52.2729 51.7641L52.5019 50.4651C52.6284 49.7476 53.3126 49.2686 54.03 49.3951C54.7475 49.5215 55.2265 50.2058 55.1001 50.9232L54.8709 52.2222L58.335 52.833L58.5642 51.534C58.6906 50.8165 59.3749 50.3375 60.0923 50.464C60.8098 50.5904 61.2888 51.2747 61.1623 51.9921L60.9334 53.2911L64.3975 53.9019L64.6266 52.6029C64.7531 51.8854 65.4373 51.4064 66.1548 51.5329C66.8722 51.6593 67.3512 52.3436 67.2248 53.061L66.9958 54.36L67.5989 54.4664C68.7726 54.6733 69.8916 53.8896 70.0985 52.7161C70.3053 51.5426 69.5218 50.4236 68.3481 50.2166Z" fill="#FFB23C"/>
<path d="M69.4999 55.8883C70.7131 55.8883 71.6966 56.8718 71.6966 58.0851C71.6966 58.7185 71.4231 59.3211 70.9464 59.7382L62.5344 67.0987C60.2056 69.1366 57.2166 70.2596 54.1223 70.2596H38.1526C36.1301 70.2596 34.206 69.3865 32.8742 67.8644C31.5423 66.3423 29.6183 65.4692 27.5958 65.4692H11.0179V46.3075H27.4167C27.9692 45.3539 28.9981 44.7107 30.1796 44.7107H31.7764H39.7605H55.7285C57.531 44.7107 58.9847 46.2039 58.9201 48.0207C58.8586 49.7513 57.3836 51.0979 55.652 51.0979H44.5509H39.7605C37.9966 51.0979 36.5668 52.5277 36.5668 54.2915C36.5668 56.0554 37.9966 57.4851 39.7605 57.4851H44.5509H59.6599C62.3441 57.4851 65.0108 57.0524 67.5573 56.2035C68.1836 55.9948 68.8396 55.8883 69.4999 55.8883Z" fill="#FFBFAB"/>
<path d="M71.6966 58.085C71.6966 58.7184 71.4231 59.3211 70.9464 59.7383L62.5344 67.0988C60.2056 69.1365 57.2166 70.2595 54.1223 70.2595H38.1526C36.1301 70.2595 34.206 69.3864 32.8741 67.8643C31.5422 66.3422 29.6182 65.4691 27.5955 65.4691H11.0179V60.6787H27.5957C29.6182 60.6787 31.5423 61.5518 32.8742 63.0739C34.2061 64.596 36.1301 65.4691 38.1528 65.4691H54.1225C57.2167 65.4691 60.2058 64.3461 62.5344 62.3084L69.8389 55.917C70.8907 56.0803 71.6966 56.9873 71.6966 58.085Z" fill="#FFA78F"/>
<path d="M57.3253 49.5011H54.9301C54.4892 49.5011 54.1317 49.1436 54.1317 48.7027V45.5091C54.1317 45.0682 54.4892 44.7107 54.9301 44.7107H57.3253C58.2072 44.7107 58.9221 45.4256 58.9221 46.3075V47.9043C58.9221 48.7862 58.2072 49.5011 57.3253 49.5011Z" fill="#FFDFCF"/>
<path d="M20.5988 43.9122V67.8643C20.5988 68.3051 20.2413 68.6627 19.8004 68.6627H13.4131C12.9723 68.6627 12.6147 68.3051 12.6147 67.8643V43.9122C12.6147 43.4713 12.9723 43.1138 13.4131 43.1138H19.8004C20.2413 43.1138 20.5988 43.4713 20.5988 43.9122Z" fill="#FFE2BD"/>
<path d="M20.5988 43.9122V60.6786H12.6147V43.9122C12.6147 43.4713 12.9723 43.1138 13.4131 43.1138H19.8004C20.2413 43.1138 20.5988 43.4713 20.5988 43.9122Z" fill="#FFF5F5"/>
<path d="M15.8084 42.3154V69.4611C15.8084 70.2981 15.3784 71.0338 14.7278 71.462C5.75218 64.2935 0 53.2584 0 40.8782C0 40.5867 0.00463074 40.2962 0.011018 40.0061C0.211417 39.9518 0.421078 39.9202 0.638723 39.9202H13.4132C14.736 39.9202 15.8084 40.9926 15.8084 42.3154Z" fill="#0A263E"/>
<path d="M15.8084 42.3154V64.6707C15.8084 65.9935 14.736 67.0659 13.4132 67.0659H10.0594C3.80711 60.1317 0 50.9499 0 40.8782C0 40.5867 0.00463074 40.2962 0.011018 40.0061C0.211417 39.9518 0.421078 39.9202 0.638723 39.9202H13.4132C14.736 39.9202 15.8084 40.9926 15.8084 42.3154Z" fill="#014C7E"/>
<path d="M59.5268 10.2023L58.3008 8.97623C57.989 8.66437 57.989 8.15898 58.3008 7.84713L59.5268 6.6211C59.8387 6.30924 60.3441 6.30924 60.656 6.6211L61.882 7.84713C62.1938 8.15898 62.1938 8.66437 61.882 8.97623L60.656 10.2023C60.3441 10.514 59.8385 10.514 59.5268 10.2023ZM47.8815 30.1056L49.1075 28.8796C49.4194 28.5678 49.4194 28.0624 49.1075 27.7505L47.8815 26.5245C47.5696 26.2126 47.0643 26.2126 46.7524 26.5245L45.5264 27.7505C45.2145 28.0624 45.2145 28.5678 45.5264 28.8796L46.7524 30.1056C47.0641 30.4173 47.5696 30.4173 47.8815 30.1056Z" fill="#FFF5F5"/>
<path d="M70.9988 46.2665L69.773 47.4923C69.4611 47.8042 68.9556 47.8042 68.6439 47.4923L67.4178 46.2665C67.106 45.9546 67.106 45.4491 67.4178 45.1374L68.6439 43.9115C68.9557 43.5997 69.4613 43.5997 69.773 43.9115L70.9988 45.1374C71.3107 45.4491 71.3107 45.9548 70.9988 46.2665ZM43.6398 35.6943C43.3279 35.3825 42.8226 35.3825 42.5107 35.6943L41.2847 36.9202C40.9728 37.2321 40.9728 37.7375 41.2847 38.0493L42.5107 39.2753C42.8226 39.5872 43.3279 39.5872 43.6398 39.2753L44.8658 38.0493C45.1777 37.7375 45.1777 37.2321 44.8658 36.9202L43.6398 35.6943Z" fill="#FF6A31"/>
</svg>
