<svg width="22" height="22" viewBox="0 0 22 22" fill="none" xmlns="http://www.w3.org/2000/svg">
<path fill-rule="evenodd" clip-rule="evenodd" d="M3.29999 7.70001C3.29999 7.40827 3.41588 7.12848 3.62217 6.92219C3.82846 6.7159 4.10825 6.60001 4.39999 6.60001H17.6C17.8917 6.60001 18.1715 6.7159 18.3778 6.92219C18.5841 7.12848 18.7 7.40827 18.7 7.70001C18.7 7.99174 18.5841 8.27153 18.3778 8.47782C18.1715 8.68411 17.8917 8.80001 17.6 8.80001H4.39999C4.10825 8.80001 3.82846 8.68411 3.62217 8.47782C3.41588 8.27153 3.29999 7.99174 3.29999 7.70001Z" fill="#FDFFFC"/>
<path fill-rule="evenodd" clip-rule="evenodd" d="M3.29999 14.3C3.29999 14.0083 3.41588 13.7285 3.62217 13.5222C3.82846 13.3159 4.10825 13.2 4.39999 13.2H17.6C17.8917 13.2 18.1715 13.3159 18.3778 13.5222C18.5841 13.7285 18.7 14.0083 18.7 14.3C18.7 14.5918 18.5841 14.8715 18.3778 15.0778C18.1715 15.2841 17.8917 15.4 17.6 15.4H4.39999C4.10825 15.4 3.82846 15.2841 3.62217 15.0778C3.41588 14.8715 3.29999 14.5918 3.29999 14.3Z" fill="#FDFFFC"/>
</svg>
