<svg width="1440" height="206" viewBox="0 0 1440 206" fill="none" xmlns="http://www.w3.org/2000/svg">
<path d="M-1.81361 77.855L46.1388 75.7175C94.0912 73.5799 189.996 69.3048 285.664 59.7156C381.34 50.3251 476.758 35.124 573.378 46.8902C669.985 58.3584 767.793 96.7939 863.926 97.634C960.068 98.6729 1054.56 62.6131 1150.22 53.024C1245.9 43.6335 1342.73 60.217 1391.17 68.8564L1439.59 77.2972L1442.43 140.866L1394.47 143.004C1346.52 145.142 1250.62 149.417 1154.71 153.692C1058.81 157.967 962.901 162.242 866.997 166.517C771.092 170.792 669.283 149.225 573.378 153.5C477.473 157.775 387.405 149.225 291.5 153.5C195.595 157.775 94.0912 159.862 46.1388 162L-1.81363 171.5L-1.81361 77.855Z" fill="#0197F6"/>
<path d="M0 45.7352H48C96 45.7352 192 45.7352 288 40.4159C384 35.2955 480 24.3587 576 40.4159C672 56.1749 768 98.9279 864 104.048C960 109.368 1056 77.5514 1152 72.2321C1248 67.1117 1344 87.9911 1392 98.7788L1440 109.368V173H1392C1344 173 1248 173 1152 173C1056 173 960 173 864 173C768 173 672 173 576 173C480 173 384 173 288 173C192 173 96 173 48 173H0V45.7352Z" fill="#FDFFFC"/>
</svg>
