<svg width="57" height="57" viewBox="0 0 57 57" fill="none" xmlns="http://www.w3.org/2000/svg">
<rect y="28.2843" width="40" height="40" rx="10" transform="rotate(-45 0 28.2843)" fill="#FDFDFD"/>
<path d="M28.2949 35.4561C27.3711 35.4561 26.4938 35.2879 25.6631 34.9513C24.8395 34.6147 24.1413 34.1134 23.5684 33.4474C23.0026 32.7742 22.641 31.9578 22.4834 30.9981L25.1904 30.3106C25.2835 31.213 25.6165 31.8933 26.1895 32.3517C26.7695 32.81 27.4857 33.0392 28.3379 33.0392C28.8607 33.0392 29.3118 32.9568 29.6914 32.7921C30.071 32.6202 30.3574 32.3875 30.5508 32.0938C30.7441 31.8002 30.8408 31.4708 30.8408 31.1056C30.8408 30.6687 30.7048 30.2963 30.4326 29.9884C30.1676 29.6804 29.8346 29.4262 29.4336 29.2257C29.0326 29.0252 28.4811 28.7852 27.7793 28.506C26.8626 28.1407 26.1214 27.8041 25.5557 27.4962C24.9899 27.1811 24.5029 26.7442 24.0947 26.1856C23.6937 25.627 23.4932 24.9216 23.4932 24.0694C23.4932 23.2029 23.7044 22.4545 24.127 21.8243C24.5566 21.1869 25.1296 20.7035 25.8457 20.3741C26.569 20.0447 27.3639 19.88 28.2305 19.88C29.2044 19.88 30.0924 20.102 30.8945 20.546C31.6966 20.9828 32.3483 21.6489 32.8496 22.544L30.583 23.9298C30.318 23.4142 29.9707 23.0167 29.541 22.7374C29.1113 22.4509 28.6423 22.3077 28.1338 22.3077C27.7757 22.3077 27.4499 22.3757 27.1562 22.5118C26.8698 22.6479 26.6406 22.8412 26.4688 23.0919C26.304 23.3354 26.2217 23.6147 26.2217 23.9298C26.2217 24.3165 26.347 24.6459 26.5977 24.9181C26.8483 25.1902 27.1634 25.4194 27.543 25.6056C27.9297 25.7918 28.4561 26.0138 29.1221 26.2716C30.0674 26.6368 30.8337 26.9806 31.4209 27.3028C32.0081 27.6251 32.513 28.0763 32.9355 28.6563C33.3581 29.2364 33.5693 29.9705 33.5693 30.8585C33.5693 31.7895 33.333 32.6023 32.8604 33.297C32.3949 33.9916 31.7611 34.5252 30.959 34.8976C30.1569 35.2699 29.2689 35.4561 28.2949 35.4561Z" fill="#EE2B47"/>
</svg>
