<svg width="80" height="80" viewBox="0 0 80 80" fill="none" xmlns="http://www.w3.org/2000/svg">
<path d="M66.2994 69.534C73.6773 62.5559 78.2814 52.6753 78.2814 41.7185C78.2814 20.5764 61.1422 3.43713 40 3.43713C18.8578 3.43713 1.71857 20.5764 1.71857 41.7185C1.71857 62.8607 18.8578 80 40 80C41.6567 80 43.2889 79.8945 44.8901 79.6904L66.2994 69.534Z" fill="#FF7A00"/>
<path d="M62.0056 57.1192C61.6697 55.8847 61.5512 54.6011 61.6556 53.3259L62.2808 47.4377C62.5859 43.7431 62.0228 40.0416 60.3873 36.7148C56.1615 28.1191 57.1309 27.4953 56.9997 18.9642C56.9997 17.2216 55.5869 15.8086 53.844 15.8086C52.1012 15.8086 50.6884 17.2214 50.6884 18.9642C50.6884 53.6567 50.753 51.1109 50.539 52.1281V56.6709C50.539 60.4984 47.4251 63.6125 43.5976 63.6125C41.0556 63.6125 32.2892 63.6125 26.3239 63.6125C28.9776 67.3031 32.6081 70.1928 36.8212 71.9427C36.8473 71.9534 36.8734 71.9644 36.8995 71.9755C40.1547 73.3503 43.7892 76.0938 44.3965 79.4977L44.4553 79.7408C53.0273 78.747 60.7353 74.923 66.6209 69.2256L62.0056 57.1192Z" fill="#F9BA8F"/>
<path d="M14.6036 15.9189L13.6425 15.0284C12.1608 13.6556 9.82533 13.7446 8.45252 15.2262C7.07971 16.7079 7.16877 19.0434 8.65033 20.4162L14.6036 25.9323V15.9189Z" fill="#F9BA8F"/>
<path d="M10.6036 17.6559C9.69471 16.8137 9.31236 15.6096 9.46752 14.4623C9.09658 14.6521 8.75111 14.9043 8.45252 15.2263C7.07971 16.7081 7.16877 19.0435 8.65033 20.4163L14.6036 25.9324V21.3623L10.6036 17.6559Z" fill="#FCAD6D"/>
<path d="M62.2931 57.8732C60.9897 66.8616 53.2537 73.7668 43.9041 73.7668C42.2898 73.7668 40.7239 73.5607 39.2308 73.1739C41.7062 74.6875 43.9331 76.8997 44.3966 79.4975L44.4553 79.7407C53.0273 78.7469 60.7351 74.9229 66.6209 69.2255L62.2931 57.8732Z" fill="#FD995B"/>
<path d="M45.2523 63.7617H19.9031C16.9055 63.7617 14.4669 61.323 14.4669 58.3253V5.43641C14.4669 2.43875 16.9055 0 19.9031 0H45.2523C48.25 0 50.6886 2.43875 50.6886 5.43641V58.3255C50.6886 61.323 48.2498 63.7617 45.2523 63.7617Z" fill="#2A428C"/>
<path d="M19.9031 0C16.9055 0 14.4669 2.43875 14.4669 5.43625V58.3253C14.4669 61.323 16.9056 63.7617 19.9031 63.7617H27.46C25.7828 62.0508 27.739 60.3794 27.739 60.3794C24.9786 59.6552 25.213 56.7541 25.213 56.7541C25.213 56.7541 25.213 12.4187 25.213 9.64531C25.213 6.87187 28.0301 6.17141 28.0301 6.17141C26.9205 5.06172 28.0301 3.89562 28.0301 3.89562V2.01672C27.0065 1.36797 27.2081 0.484688 27.4309 0L19.9031 0Z" fill="#142766"/>
<path d="M28.573 3.89579H28.0302C27.5113 3.89579 27.0906 3.47516 27.0906 2.95625C27.0906 2.43735 27.5113 2.01672 28.0302 2.01672H28.573C29.0919 2.01672 29.5125 2.43735 29.5125 2.95625C29.5125 3.47516 29.0919 3.89579 28.573 3.89579Z" fill="#3C58A0"/>
<path d="M36.9954 3.89579H31.7795C31.2606 3.89579 30.84 3.47516 30.84 2.95625C30.84 2.43735 31.2606 2.01672 31.7795 2.01672H36.9954C37.5143 2.01672 37.935 2.43735 37.935 2.95625C37.935 3.47516 37.5143 3.89579 36.9954 3.89579Z" fill="#3C58A0"/>
<path d="M45.2523 3.3822H41.4425C40.7322 3.3822 40.1566 3.95798 40.1566 4.66814C40.1566 5.49486 39.4802 6.17142 38.6534 6.17142H26.5023C25.6756 6.17142 24.9991 5.49501 24.9991 4.66814C24.9991 3.95798 24.4233 3.3822 23.7131 3.3822H19.9031C18.7687 3.3822 17.8491 4.30189 17.8491 5.43626V58.3253C17.8491 59.4597 18.7687 60.3794 19.9031 60.3794H45.2523C46.3867 60.3794 47.3064 59.4597 47.3064 58.3253C47.3064 52.8849 47.3064 6.8883 47.3064 5.43626C47.3064 4.30189 46.3867 3.3822 45.2523 3.3822Z" fill="#F89B66"/>
<path d="M27.7389 60.3796C27.3483 58.6942 29.3033 58.3004 29.3033 58.3004C29.3033 58.3004 30.5467 47.4084 29.3033 46.1649C28.0599 44.9215 29.3033 43.7473 29.3033 43.7473C29.3033 43.7473 30.6617 32.9704 29.3033 31.6118C27.9449 30.2534 29.3033 29.1942 29.3033 29.1942V17.0587C26.8702 15.5224 28.15 13.312 28.15 13.312V9.83151C26.3114 7.99292 28.0294 6.17229 28.03 6.17167H26.5022C25.6755 6.17167 24.9989 5.49526 24.9989 4.66838C24.9989 3.95823 24.4231 3.38245 23.713 3.38245H19.9031C18.7687 3.38245 17.8491 4.30198 17.8491 5.43651V58.3257C17.8491 59.4601 18.7687 60.3798 19.9031 60.3798H27.7389V60.3796Z" fill="#F7774F"/>
<path d="M24.9356 13.3117H40.2199C41.181 13.3117 41.96 12.5327 41.96 11.5716C41.96 10.6105 41.181 9.83142 40.2199 9.83142H24.9356C23.9745 9.83142 23.1953 10.6105 23.1953 11.5716C23.1953 12.5328 23.9745 13.3117 24.9356 13.3117Z" fill="#E9EFFF"/>
<path d="M24.9356 9.83142H28.15V13.3119H24.9356C23.9745 13.3119 23.1954 12.5328 23.1954 11.5717C23.1953 10.6103 23.9745 9.83142 24.9356 9.83142Z" fill="#9BD8F9"/>
<path d="M43.3084 29.1941H21.847C20.986 29.1941 20.2816 28.4897 20.2816 27.6288V18.6239C20.2816 17.763 20.986 17.0586 21.847 17.0586H43.3084C44.1693 17.0586 44.8737 17.763 44.8737 18.6239V27.6288C44.8737 28.4897 44.1693 29.1941 43.3084 29.1941Z" fill="#E9EFFF"/>
<path d="M43.3084 43.7472H21.847C20.986 43.7472 20.2816 43.0428 20.2816 42.1819V33.177C20.2816 32.3161 20.986 31.6117 21.847 31.6117H43.3084C44.1693 31.6117 44.8737 32.3161 44.8737 33.177V42.1819C44.8737 43.0428 44.1693 43.7472 43.3084 43.7472Z" fill="#E9EFFF"/>
<path d="M43.3084 58.3003H21.847C20.986 58.3003 20.2816 57.5959 20.2816 56.7349V47.7301C20.2816 46.8692 20.986 46.1648 21.847 46.1648H43.3084C44.1693 46.1648 44.8737 46.8692 44.8737 47.7301V56.7349C44.8737 57.5959 44.1693 58.3003 43.3084 58.3003Z" fill="#E9EFFF"/>
<path d="M43.3084 29.1941H21.847C20.986 29.1941 20.2816 28.4897 20.2816 27.6288V18.6239C20.2816 17.763 20.986 17.0586 21.847 17.0586H43.3084C44.1693 17.0586 44.8737 17.763 44.8737 18.6239V27.6288C44.8737 28.4897 44.1693 29.1941 43.3084 29.1941Z" fill="#E9EFFF"/>
<path d="M43.3084 43.7472H21.847C20.986 43.7472 20.2816 43.0428 20.2816 42.1819V33.177C20.2816 32.3161 20.986 31.6117 21.847 31.6117H43.3084C44.1693 31.6117 44.8737 32.3161 44.8737 33.177V42.1819C44.8737 43.0428 44.1693 43.7472 43.3084 43.7472Z" fill="#E9EFFF"/>
<path d="M43.3084 58.3003H21.847C20.986 58.3003 20.2816 57.5959 20.2816 56.7349V47.7301C20.2816 46.8692 20.986 46.1648 21.847 46.1648H43.3084C44.1693 46.1648 44.8737 46.8692 44.8737 47.7301V56.7349C44.8737 57.5959 44.1693 58.3003 43.3084 58.3003Z" fill="#E9EFFF"/>
<path d="M27.7379 27.6286V18.6239C27.7379 17.763 28.4423 17.0586 29.3032 17.0586H21.847C20.986 17.0586 20.2816 17.763 20.2816 18.6239V27.6286C20.2816 28.4895 20.986 29.1939 21.847 29.1939H29.3032C28.4423 29.1939 27.7379 28.4895 27.7379 27.6286Z" fill="#D3DCFB"/>
<path d="M27.7379 42.1817V33.1769C27.7379 32.3159 28.4423 31.6116 29.3032 31.6116H21.847C20.986 31.6116 20.2816 32.3159 20.2816 33.1769V42.1817C20.2816 43.0427 20.986 43.747 21.847 43.747H29.3032C28.4423 43.747 27.7379 43.0427 27.7379 42.1817Z" fill="#D3DCFB"/>
<path d="M27.7379 56.7348V47.73C27.7379 46.869 28.4423 46.1647 29.3032 46.1647H21.847C20.986 46.1647 20.2816 46.869 20.2816 47.73V56.7348C20.2816 57.5958 20.986 58.3001 21.847 58.3001H29.3032C28.4423 58.3001 27.7379 57.5958 27.7379 56.7348Z" fill="#D3DCFB"/>
<path d="M31.7315 22.0918H25.4551C24.808 22.0918 24.2833 21.5673 24.2833 20.9199C24.2833 20.2726 24.808 19.748 25.4551 19.748H31.7315C32.3787 19.748 32.9034 20.2726 32.9034 20.9199C32.9034 21.5671 32.3787 22.0918 31.7315 22.0918Z" fill="#3C58A0"/>
<path d="M39.7003 26.5045H25.4551C24.808 26.5045 24.2833 25.98 24.2833 25.3326C24.2833 24.6853 24.808 24.1608 25.4551 24.1608H39.7003C40.3475 24.1608 40.8722 24.6853 40.8722 25.3326C40.8722 25.98 40.3475 26.5045 39.7003 26.5045Z" fill="#BEC8F7"/>
<path d="M36.6273 22.0918H35.7418C35.0946 22.0918 34.5699 21.5673 34.5699 20.9199C34.5699 20.2726 35.0946 19.748 35.7418 19.748H36.6273C37.2745 19.748 37.7992 20.2726 37.7992 20.9199C37.7992 21.5671 37.2746 22.0918 36.6273 22.0918Z" fill="#BEC8F7"/>
<path d="M31.7315 36.6449H25.4551C24.808 36.6449 24.2833 36.1204 24.2833 35.473C24.2833 34.8257 24.808 34.3011 25.4551 34.3011H31.7315C32.3787 34.3011 32.9034 34.8257 32.9034 35.473C32.9034 36.1204 32.3787 36.6449 31.7315 36.6449Z" fill="#3C58A0"/>
<path d="M39.7003 41.0576H25.4551C24.808 41.0576 24.2833 40.5331 24.2833 39.8858C24.2833 39.2384 24.808 38.7139 25.4551 38.7139H39.7003C40.3475 38.7139 40.8722 39.2384 40.8722 39.8858C40.8722 40.5329 40.3475 41.0576 39.7003 41.0576Z" fill="#BEC8F7"/>
<path d="M36.6273 36.6449H35.7418C35.0946 36.6449 34.5699 36.1204 34.5699 35.473C34.5699 34.8257 35.0946 34.3011 35.7418 34.3011H36.6273C37.2745 34.3011 37.7992 34.8257 37.7992 35.473C37.7992 36.1204 37.2746 36.6449 36.6273 36.6449Z" fill="#BEC8F7"/>
<path d="M31.7315 51.198H25.4551C24.808 51.198 24.2833 50.6733 24.2833 50.0261C24.2833 49.3788 24.808 48.8542 25.4551 48.8542H31.7315C32.3787 48.8542 32.9034 49.3788 32.9034 50.0261C32.9034 50.6735 32.3787 51.198 31.7315 51.198Z" fill="#3C58A0"/>
<path d="M39.7003 55.6108H25.4551C24.808 55.6108 24.2833 55.0863 24.2833 54.439C24.2833 53.7916 24.808 53.2671 25.4551 53.2671H39.7003C40.3475 53.2671 40.8722 53.7916 40.8722 54.439C40.8722 55.0863 40.3475 55.6108 39.7003 55.6108Z" fill="#BEC8F7"/>
<path d="M36.6273 51.198H35.7418C35.0946 51.198 34.5699 50.6733 34.5699 50.0261C34.5699 49.3788 35.0946 48.8542 35.7418 48.8542H36.6273C37.2745 48.8542 37.7992 49.3788 37.7992 50.0261C37.7992 50.6735 37.2746 51.198 36.6273 51.198Z" fill="#BEC8F7"/>
<path d="M19.9482 35.2879C18.7402 36.5914 16.7043 36.6691 15.4007 35.4611L10.0106 30.4668C8.70697 29.2589 8.62931 27.2228 9.83728 25.9193C11.0452 24.6157 13.0812 24.538 14.3848 25.746L19.7749 30.7404C21.0785 31.9483 21.1562 33.9843 19.9482 35.2879Z" fill="#F9BA8F"/>
<path d="M17.6182 33.191L12.2281 28.1966C11.3265 27.3613 11.0123 26.13 11.3031 25.0188C10.7596 25.1757 10.2498 25.4743 9.83728 25.9194C8.62931 27.223 8.70697 29.2591 10.0106 30.4669L15.4007 35.4613C16.7043 36.6691 18.7402 36.5916 19.9482 35.288C20.3207 34.886 20.5701 34.414 20.6998 33.9183C19.6518 34.2207 18.4766 33.9865 17.6182 33.191Z" fill="#FCAD6D"/>
<path d="M19.9482 52.8423C18.7402 54.1459 16.7043 54.2236 15.4007 53.0156L10.0106 48.0212C8.70697 46.8134 8.62931 44.7773 9.83728 43.4737C11.0452 42.1701 13.0812 42.0924 14.3848 43.3004L19.7749 48.2948C21.0785 49.5026 21.1562 51.5387 19.9482 52.8423Z" fill="#F9BA8F"/>
<path d="M17.6182 50.7453L12.2281 45.7509C11.3265 44.9156 11.0123 43.6844 11.3031 42.5731C10.7596 42.73 10.2498 43.0286 9.83728 43.4737C8.62931 44.7773 8.70697 46.8134 10.0106 48.0212L15.4007 53.0156C16.7043 54.2234 18.7402 54.1459 19.9482 52.8423C20.3207 52.4403 20.5701 51.9683 20.6998 51.4726C19.6518 51.7751 18.4766 51.5408 17.6182 50.7453Z" fill="#FCAD6D"/>
<path d="M19.9482 44.0652C18.7402 45.3688 16.7043 45.4465 15.4007 44.2385L10.0106 39.2441C8.70697 38.0363 8.62931 36.0002 9.83728 34.6966C11.0452 33.393 13.0812 33.3153 14.3848 34.5233L19.7749 39.5177C21.0785 40.7255 21.1562 42.7615 19.9482 44.0652Z" fill="#F9BA8F"/>
<path d="M17.6182 41.9682L12.2281 36.9738C11.3265 36.1385 11.0123 34.9073 11.3031 33.796C10.7596 33.9529 10.2496 34.2515 9.83728 34.6966C8.62931 36.0002 8.70697 38.0362 10.0106 39.2441L15.4007 44.2385C16.7043 45.4465 18.7402 45.3688 19.9482 44.0652C20.3207 43.6632 20.5701 43.1912 20.6998 42.6955C19.6518 42.998 18.4766 42.7637 17.6182 41.9682Z" fill="#FCAD6D"/>
<path d="M65.9481 13.5762C63.8701 16.2193 61.9948 20.0168 63.494 24.1609C66.3065 31.9348 70.7858 38.5343 68.7023 50.0262C67.757 55.2405 70.859 57.4263 74.5298 58.2585C76.9328 53.252 78.2812 47.6432 78.2812 41.7187C78.2814 30.5893 73.5304 20.571 65.9481 13.5762Z" fill="#FFB23C"/>
</svg>
