<svg width="80" height="80" viewBox="0 0 80 80" fill="none" xmlns="http://www.w3.org/2000/svg">
<g clip-path="url(#clip0)">
<path d="M79.8438 39.8438C79.8438 61.9354 61.9354 79.8438 39.8438 79.8438C17.7521 79.8438 -0.15625 61.9354 -0.15625 39.8438C-0.15625 17.7521 17.7521 -0.15625 39.8438 -0.15625C61.9354 -0.15625 79.8438 17.7521 79.8438 39.8438Z" fill="#EE2B47"/>
<path d="M53.537 2.85645L41.9977 17.2162L40.7251 16.1932L52.2644 1.8335L53.537 2.85645Z" fill="#585858"/>
<path d="M55.401 2.34436C55.401 3.72559 54.2816 4.84497 52.9004 4.84497C51.5192 4.84497 50.3998 3.72559 50.3998 2.34436C50.3998 0.963135 51.5192 -0.15625 52.9004 -0.15625C54.2816 -0.15625 55.401 0.963135 55.401 2.34436Z" fill="#585858"/>
<path d="M27.4231 1.8335L38.9624 16.1926L37.6898 17.2156L26.1505 2.85584L27.4231 1.8335Z" fill="#585858"/>
<path d="M29.2877 2.34436C29.2877 3.72559 28.1683 4.84497 26.7871 4.84497C25.4059 4.84497 24.2865 3.72559 24.2865 2.34436C24.2865 0.963135 25.4059 -0.15625 26.7871 -0.15625C28.1683 -0.15625 29.2877 0.963135 29.2877 2.34436Z" fill="#585858"/>
<path d="M50.6195 18.1732C50.6195 24.1248 45.7947 28.949 39.8438 28.949C33.8928 28.949 29.068 24.1248 29.068 18.1732C29.068 12.2223 33.8928 7.39807 39.8438 7.39807C45.7947 7.39807 50.6195 12.2223 50.6195 18.1732Z" fill="#585858"/>
<path d="M77.2321 18.5455V54.0936C76.0681 57.1429 74.5429 60.0134 72.7063 62.6532C72.0825 63.5516 71.4227 64.4232 70.7275 65.2655C68.9166 67.4646 66.8744 69.4666 64.6375 71.2347H15.0507C9.44092 66.7987 5.04944 60.8899 2.45667 54.0936V18.5455C2.45667 15.274 5.10803 12.6221 8.37952 12.6221H71.3086C74.5789 12.6221 77.2321 15.274 77.2321 18.5455Z" fill="#797979"/>
<path d="M55.6104 21.272C41.0181 19.4653 26.4258 19.4653 11.8335 21.272C10.3186 21.4594 9.11743 22.6324 8.87146 24.1388C6.8573 36.4887 6.8573 48.8379 8.87146 61.1871C9.11743 62.6935 10.3186 63.8666 11.8335 64.0546C26.4258 65.8612 41.0181 65.8612 55.6104 64.0546C57.1246 63.8666 58.3264 62.6935 58.5718 61.1871C60.5859 48.8379 60.5859 36.4887 58.5718 24.1388C58.3264 22.6331 57.1246 21.4594 55.6104 21.272Z" fill="#585858"/>
<path d="M56.5887 60.1489C56.4319 61.145 55.6305 61.9153 54.6277 62.0349C52.7686 62.2565 50.9039 62.4493 49.0393 62.6123C45.6354 62.9114 42.2247 63.1104 38.8269 63.2117C37.121 63.2623 35.4199 63.2867 33.7219 63.2867C32.0239 63.2867 30.3229 63.2623 28.6163 63.2117C25.2191 63.1104 21.8085 62.9114 18.4045 62.6123C16.5399 62.4493 14.6753 62.2565 12.8156 62.0349C11.8134 61.9153 11.0114 61.145 10.8551 60.1489C9.03748 48.5291 9.03748 36.7969 10.8551 25.1776C11.0114 24.1815 11.8134 23.4106 12.8156 23.2916C14.6753 23.0695 16.5399 22.8772 18.4045 22.7136C21.8085 22.4152 25.2191 22.2156 28.6163 22.1149C30.3229 22.0642 32.0239 22.0398 33.7219 22.0398C35.4199 22.0398 37.121 22.0642 38.8269 22.1149C42.2247 22.2156 45.6354 22.4152 49.0393 22.7136C50.9039 22.8772 52.7686 23.0695 54.6277 23.2916C55.6305 23.4106 56.4319 24.1815 56.5887 25.1776C58.4058 36.7969 58.4058 48.5291 56.5887 60.1489Z" fill="#EE2B47"/>
<path d="M72.3932 45.5231C70.4004 47.5165 67.392 47.8705 65.0378 46.5869C64.527 46.3104 64.046 45.9552 63.6145 45.5231C63.1824 45.0916 62.8272 44.61 62.5507 44.0997C61.2671 41.7456 61.6211 38.7366 63.6145 36.7438C65.6073 34.751 68.6157 34.397 70.9698 35.6799C71.4807 35.957 71.9617 36.3123 72.3938 36.7438C72.8253 37.1759 73.1812 37.6569 73.4576 38.1677C74.7406 40.5219 74.386 43.5303 72.3932 45.5231Z" fill="#585858"/>
<path d="M70.9601 44.0894C69.6179 45.4316 67.5916 45.6702 66.0065 44.806C65.6622 44.6198 65.3381 44.3805 65.0476 44.0894C64.7565 43.7989 64.5172 43.4748 64.3311 43.1305C63.4668 41.5455 63.7048 39.5191 65.0476 38.1769C66.3898 36.8348 68.4155 36.5967 70.0012 37.461C70.3449 37.6471 70.669 37.8864 70.9601 38.1769C71.2506 38.4681 71.4899 38.7922 71.676 39.1358C72.5403 40.7215 72.3023 42.7479 70.9601 44.0894Z" fill="#4A4A4A"/>
<path d="M71.676 39.1364L66.0065 44.8059C65.6622 44.6198 65.3381 44.3805 65.0476 44.0894C64.7565 43.7988 64.5172 43.4747 64.3311 43.1305L70.0012 37.4609C70.3449 37.6471 70.669 37.8864 70.9601 38.1775C71.2506 38.468 71.4899 38.7921 71.676 39.1364Z" fill="#585858"/>
<path d="M74.2114 27.7551C74.2114 30.5737 72.3346 32.9517 69.7626 33.7091C69.2059 33.8745 68.6145 33.9636 68.0035 33.9636C67.3932 33.9636 66.8018 33.8745 66.2451 33.7091C63.6725 32.9517 61.7957 30.5737 61.7957 27.7551C61.7957 24.9371 63.6731 22.5592 66.2451 21.8018C66.8018 21.6364 67.3932 21.5472 68.0035 21.5472C68.6145 21.5472 69.2059 21.6364 69.7626 21.8018C72.3346 22.5592 74.2114 24.9371 74.2114 27.7551Z" fill="#585858"/>
<path d="M72.1845 27.7551C72.1845 29.6533 70.9204 31.2549 69.1882 31.7645C68.8135 31.8762 68.4149 31.936 68.0035 31.936C67.5928 31.936 67.1942 31.8762 66.8195 31.7645C65.0873 31.2549 63.8232 29.6533 63.8232 27.7551C63.8232 25.8575 65.0873 24.256 66.8195 23.7463C67.1942 23.6346 67.5928 23.5748 68.0035 23.5748C68.4149 23.5748 68.8135 23.6346 69.1882 23.7463C70.9204 24.256 72.1845 25.8575 72.1845 27.7551Z" fill="#4A4A4A"/>
<path d="M69.1882 23.7463V31.7645C68.8135 31.8762 68.4149 31.936 68.0035 31.936C67.5928 31.936 67.1942 31.8762 66.8195 31.7645V23.7463C67.1942 23.6346 67.5928 23.5748 68.0035 23.5748C68.4149 23.5748 68.8135 23.6346 69.1882 23.7463Z" fill="#585858"/>
<path d="M62.2113 49.5203H73.8037V52.1326H62.2113V49.5203Z" fill="#4A4A4A"/>
<path d="M62.2113 53.7653H73.8037V56.3776H62.2113V53.7653Z" fill="#4A4A4A"/>
<path d="M62.2113 58.2098H73.8037V60.8221H62.2113V58.2098Z" fill="#4A4A4A"/>
<path d="M72.7063 62.6532C72.0825 63.5516 71.4227 64.4232 70.7275 65.2655H62.2113V62.6532H72.7063Z" fill="#4A4A4A"/>
<path d="M18.4045 22.7136V62.6123C16.5399 62.4493 14.6753 62.2565 12.8156 62.0349C11.8134 61.9153 11.0114 61.145 10.8551 60.1489C9.03748 48.5291 9.03748 36.7969 10.8551 25.1776C11.0114 24.1815 11.8134 23.4106 12.8156 23.2916C14.6753 23.0695 16.5399 22.8772 18.4045 22.7136Z" fill="#0197F6"/>
<path d="M28.6163 22.1149V63.2117C25.2191 63.1104 21.8085 62.9114 18.4045 62.6123V22.7136C21.8085 22.4152 25.2191 22.2156 28.6163 22.1149Z" fill="#FF7591"/>
<path d="M38.8269 22.1149V63.2117C37.121 63.2623 35.4199 63.2867 33.7219 63.2867C32.0239 63.2867 30.3229 63.2623 28.6163 63.2117V22.1149C30.3229 22.0642 32.0239 22.0398 33.7219 22.0398C35.4199 22.0398 37.121 22.0642 38.8269 22.1149Z" fill="white"/>
<path d="M49.0393 22.7136V62.6123C45.6354 62.9114 42.2247 63.1104 38.8269 63.2117V22.1149C42.2247 22.2156 45.6354 22.4152 49.0393 22.7136Z" fill="#FFD861"/>
<path d="M56.5887 60.1489C56.4319 61.145 55.6305 61.9153 54.6277 62.0349C52.7686 62.2565 50.9039 62.4493 49.0393 62.6123V22.7136C50.9039 22.8772 52.7686 23.0695 54.6277 23.2916C55.6305 23.4106 56.4319 24.1815 56.5887 25.1776C58.4058 36.7969 58.4058 48.5291 56.5887 60.1489Z" fill="#0A263E"/>
</g>
<defs>
<clipPath id="clip0">
<rect width="80" height="80" fill="white"/>
</clipPath>
</defs>
</svg>
