<svg width="80" height="80" viewBox="0 0 80 80" fill="none" xmlns="http://www.w3.org/2000/svg">
<g clip-path="url(#clip0)">
<path d="M80 40C80 44.5734 79.2328 48.9679 77.8174 53.0615C77.3456 54.4324 76.7981 55.7697 76.1847 57.0691C75.4919 58.537 74.7119 59.9561 73.8513 61.319C69.5282 68.1714 63.1805 73.6182 55.6488 76.8231C54.0619 77.4988 52.4213 78.075 50.7361 78.5419C49.3469 78.9288 47.9266 79.2426 46.4801 79.4775C45.3943 79.6558 44.2957 79.7876 43.1836 79.8743C42.9456 79.8938 42.7069 79.9103 42.4689 79.9249C41.6522 79.9756 40.8295 80 40 80C36.557 80 33.2178 79.5654 30.0311 78.7463C26.1877 77.7618 22.5665 76.2189 19.2603 74.2108C19.2603 74.209 19.259 74.209 19.259 74.209C17.5885 73.1952 15.9998 72.0618 14.5026 70.8197C14.054 70.4504 13.6145 70.0684 13.1836 69.6783C11.8091 68.4375 10.5206 67.1002 9.33044 65.6781C9.22791 65.556 9.12659 65.4352 9.02527 65.3113C8.95325 65.2228 8.88184 65.1349 8.81165 65.0464C7.77283 63.7567 6.81152 62.3981 5.93811 60.9827C5.69946 60.5975 5.46753 60.2075 5.24231 59.8138C4.7821 59.0076 4.34753 58.1812 3.94287 57.3407C3.48755 56.3953 3.06763 55.4303 2.68738 54.444C0.951538 49.964 0 45.0922 0 40C0 28.075 5.2179 17.3682 13.4973 10.0391C16.2628 7.59155 19.3695 5.52002 22.738 3.90686C25.3125 2.67273 28.0389 1.70776 30.8832 1.04492C32.2729 0.720215 33.6914 0.46875 35.1349 0.293579C36.7297 0.0994873 38.3527 0 40 0C62.0917 0 80 17.9083 80 40Z" fill="#FF7A00"/>
<path d="M61.2329 11.2915L55.6488 76.8231C54.0619 77.4988 52.4213 78.075 50.7361 78.5419C49.3469 78.9288 47.9266 79.2426 46.4801 79.4775C45.1624 79.693 43.8251 79.8431 42.4689 79.9249C41.6522 79.9756 40.8295 80 40 80C32.4066 80 25.3076 77.8839 19.2603 74.2108C19.2603 74.209 19.259 74.209 19.259 74.209C17.5885 73.1952 15.9998 72.0618 14.5026 70.8197C14.054 70.4504 13.6145 70.0684 13.1836 69.6783C11.6064 68.2544 10.1434 66.7053 8.81165 65.0464L13.4973 10.0391L13.7354 7.24549C13.9264 4.99451 15.907 3.32581 18.1586 3.51685L22.738 3.90686L57.5037 6.86829C59.7552 7.06116 61.4252 9.03992 61.2329 11.2915Z" fill="#40C4AD"/>
<path d="M55.7434 19.7614L51.1377 73.819C47.0856 73.4729 43.468 76.1206 42.4689 79.9249C41.6522 79.9756 40.8295 80 40 80C32.4066 80 25.3076 77.8839 19.2603 74.2108C19.2603 74.209 19.259 74.209 19.259 74.209C18.1635 72.5714 16.4899 71.3385 14.5026 70.8197C14.054 70.4504 13.6145 70.0684 13.1836 69.6783L17.7124 16.521C22.2498 16.908 26.2415 13.5431 26.6284 9.00574L48.2288 10.8459C47.8418 15.3827 51.2067 19.3744 55.7434 19.7614Z" fill="#15B2A2"/>
<path d="M23.1281 8.70667L18.4125 8.30505L18.0249 12.8522C18.0798 12.8595 18.1348 12.8662 18.1903 12.8705C20.7037 13.0847 22.9138 11.2201 23.1281 8.70667Z" fill="#15B2A2"/>
<path d="M72.2369 24.2725L43.1836 79.8743C42.9456 79.8938 42.7069 79.9103 42.4689 79.925C41.6522 79.9756 40.8295 80 40 80C36.557 80 33.2178 79.5655 30.0311 78.7464C26.1877 77.7619 22.5665 76.2189 19.2603 74.2109C19.2603 74.209 19.259 74.209 19.259 74.209C17.5885 73.1952 15.9998 72.0618 14.5026 70.8197C14.054 70.4505 13.6145 70.0684 13.1836 69.6784C11.8091 68.4375 10.5206 67.1003 9.33044 65.6781C9.22791 65.5561 9.12659 65.4352 9.02527 65.3113C8.95325 65.2228 8.88184 65.1349 8.81165 65.0464C7.77283 63.7568 6.81152 62.3981 5.93811 60.9827C5.62805 60.7612 5.29663 60.5567 4.94873 60.3754L5.24231 59.8139C4.7821 59.0076 4.34753 58.1812 3.94287 57.3407C3.48755 56.3953 3.06763 55.4303 2.68738 54.444L29.9872 2.19731C30.2203 1.7487 30.5273 1.36174 30.8832 1.04497C32.0197 0.0262916 33.667 -0.295364 35.1349 0.293625C35.2606 0.344285 35.3845 0.401658 35.5072 0.465134L70.506 18.7525C72.5079 19.7992 73.2831 22.2712 72.2369 24.2725Z" fill="#40C4AD"/>
<path d="M63.902 29.9658L38.7787 78.0505C35.8789 76.5356 32.4915 76.9141 30.0311 78.7463C26.1877 77.7618 22.5665 76.2189 19.2603 74.2108C19.2603 74.209 19.259 74.209 19.259 74.209C17.5885 73.1952 15.9998 72.0618 14.5026 70.8197C14.054 70.4504 13.6145 70.0684 13.1836 69.6783C11.8091 68.4375 16.2909 54.8071 15.943 54.6259L11.5399 47.7606L30.0732 12.2888C34.1095 14.3982 39.0906 12.8357 41.1981 8.80005L60.4132 18.8391C58.3038 22.8754 59.8663 27.8564 63.902 29.9658Z" fill="#15B2A2"/>
<path d="M50.47 22.8613C50.47 26.2714 47.7057 29.0363 44.295 29.0363C40.885 29.0363 38.1201 26.2714 38.1201 22.8613C38.1201 19.4507 40.885 16.6864 44.295 16.6864C47.7057 16.6864 50.47 19.4507 50.47 22.8613Z" fill="#40C4AD"/>
<path d="M47.1436 22.8613C47.1436 24.4342 45.8679 25.7092 44.295 25.7092C42.7222 25.7092 41.4471 24.4342 41.4471 22.8613C41.4471 21.2885 42.7222 20.0128 44.295 20.0128C45.8679 20.0128 47.1436 21.2885 47.1436 22.8613Z" fill="#15B2A2"/>
<path d="M48.9929 32.149L54.6021 21.4142L57.3383 22.8442L51.7291 33.5791L48.9929 32.149Z" fill="#40C4AD"/>
<path d="M63.526 20.4651L67.721 22.6569L65.6073 26.701C65.5566 26.6785 65.5072 26.6541 65.4578 26.6284C63.2227 25.4602 62.3578 22.7008 63.526 20.4651Z" fill="#15B2A2"/>
<path d="M38.0859 7.17285L33.8916 4.98108L31.7786 9.02527C31.8262 9.05395 31.8744 9.08081 31.9232 9.10644C34.1589 10.2747 36.9183 9.40857 38.0859 7.17285Z" fill="#15B2A2"/>
<path d="M76.1847 34.95V57.0691C72.0062 65.9149 64.679 72.981 55.6488 76.8231C54.0619 77.4988 52.4213 78.075 50.7361 78.5419C49.3469 78.9288 47.9266 79.2426 46.4801 79.4775C45.1624 79.693 43.8251 79.8431 42.4689 79.9249C41.6522 79.9756 40.8295 80 40 80C32.4066 80 25.3076 77.8839 19.2603 74.2108C19.2603 74.209 19.259 74.209 19.259 74.209C17.5885 73.1952 15.9998 72.0618 14.5026 70.8197C14.054 70.4504 13.6145 70.0684 13.1836 69.6783C11.6064 68.2544 10.1434 66.7053 8.81165 65.0464C6.90918 62.6843 5.27161 60.0995 3.94287 57.3407V34.95C3.94287 30.8051 7.30469 27.4432 11.4496 27.4432H68.6774C72.8247 27.4432 76.1847 30.8051 76.1847 34.95Z" fill="#0A263E"/>
<path d="M16.8378 27.4432C12.6923 27.4432 9.33044 30.8051 9.33044 34.95V65.6781C9.15405 65.4694 8.98132 65.2588 8.81165 65.0464C6.90918 62.6843 5.27161 60.0995 3.94287 57.3407V34.95C3.94287 30.8051 7.30469 27.4432 11.4496 27.4432H16.8378Z" fill="#090809"/>
<path d="M77.8174 44.9487V53.0615C77.3456 54.4324 76.7981 55.7697 76.1847 57.0691C75.4919 58.537 74.7119 59.9561 73.8513 61.319H63.7683C61.1786 61.319 58.8342 60.2692 57.1362 58.5712C55.4401 56.875 54.3903 54.5288 54.3903 51.9397C54.3903 46.759 58.5895 42.5616 63.7683 42.5616H75.4303C76.7493 42.5616 77.8174 43.6292 77.8174 44.9487Z" fill="#0A263E"/>
<path d="M70.0293 51.9391C70.0293 54.4061 68.4247 56.496 66.2006 57.2223C65.6555 57.4023 65.0745 57.4982 64.4702 57.4982C61.4008 57.4982 58.9124 55.0104 58.9124 51.9391C58.9124 48.8696 61.4008 46.38 64.4702 46.38C65.0745 46.38 65.6555 46.4764 66.2006 46.6559C68.4247 47.3828 70.0293 49.4739 70.0293 51.9391Z" fill="#FDFFFC"/>
<path d="M70.0293 51.9391C70.0293 54.4061 68.4247 56.496 66.2006 57.2223C63.9789 56.496 62.3724 54.4061 62.3724 51.9391C62.3724 49.4739 63.9789 47.3828 66.2006 46.6559C68.4247 47.3828 70.0293 49.4739 70.0293 51.9391Z" fill="#090809"/>
</g>
<defs>
<clipPath id="clip0">
<rect width="80" height="80" fill="white"/>
</clipPath>
</defs>
</svg>
